<?xml version="1.0" encoding="utf-8"?>
<!-- Generator: Adobe Illustrator 21.1.0, SVG Export Plug-In . SVG Version: 6.00 Build 0)  -->
<svg version="1.1" id="Capa_1" xmlns="http://www.w3.org/2000/svg" xmlns:xlink="http://www.w3.org/1999/xlink" x="0px" y="0px"
	 viewBox="0 0 207.4 40" style="enable-background:new 0 0 207.4 40;" xml:space="preserve">
<style type="text/css">
	.st0{fill:#FFFFFF;}
	.st1{fill:url(#SVGID_1_);}
	.st2{fill:url(#SVGID_2_);}
	.st3{fill:#F48E30;}
	.st4{fill:#5D717D;}
	.st5{fill:#57C6D2;}
	.st6{fill:#172F58;}
	.st7{fill:#183058;}
	.st8{fill-rule:evenodd;clip-rule:evenodd;fill:#F48E30;}
	.st9{fill:none;stroke:#5D717D;stroke-miterlimit:10;}
	.st10{fill:#414142;}
	.st11{fill:#F16A24;}
	.st12{opacity:0.5;}
	.st13{clip-path:url(#SVGID_4_);fill:#FFFFFF;}
	.st14{clip-path:url(#SVGID_6_);fill:#FFFFFF;}
	.st15{clip-path:url(#SVGID_8_);fill:#FFFFFF;}
	.st16{clip-path:url(#SVGID_10_);fill:#FFFFFF;}
	.st17{clip-path:url(#SVGID_12_);fill-rule:evenodd;clip-rule:evenodd;fill:#FFFFFF;}
	.st18{clip-path:url(#SVGID_14_);}
	.st19{opacity:0.9;}
	.st20{fill:url(#SVGID_15_);}
</style>
<g>
	<g>
		<path class="st5" d="M202.1,17.1L202.1,17.1c3.3-0.5,5.2-3.4,5.2-6.6c0-5.3-3.5-6.5-9.1-6.5h-11.7l-5.9,27.9h14.9
			c5.6,0,10.7-3.1,10.7-9.2C206.3,20.1,204.8,17.8,202.1,17.1z M195.3,27.2h-7.7l0,0h-0.3l1.6-7.7h6c0,0,0.1,0,0.1,0h0.2
			c2.2,0,4.9,0.2,4.9,3.2C200.1,25.6,198.1,27.2,195.3,27.2z M197.1,15.3h-7l0,0h-0.3l1.4-6.5h6.5h0h0.3c2,0,3.2,0.7,3.2,2.9
			C201.2,14.1,199.3,15.3,197.1,15.3z"/>
		<g>
			<path class="st7" d="M7.4,21.1c-1.4,0-2.6,0.6-3.5,1.7l0,0l1.2-5.7H3.3L0,32.7h1.7l0.4-2.1h0C2.4,31.7,3.8,33,5.9,33
				c3.8,0,6-3.4,6-6.9C11.9,23.1,10.5,21.1,7.4,21.1z M5.9,31.3c-1.8,0-3.1-1-3.1-2.8c0-2.4,1.4-5.7,4.6-5.7c1.7,0,2.6,1.4,2.6,3.2
				C10,28.2,8.6,31.3,5.9,31.3z"/>
			<path class="st7" d="M15.4,30.5L15.4,30.5l-1.4-9h-2l2,11.3l-1.1,1.9c-0.4,0.7-0.9,1.2-1.7,1.2c-0.3,0-0.8-0.1-1.1-0.3l-0.3,1.5
				c0.4,0.2,0.9,0.3,1.3,0.3c1.9,0,2.7-1.2,3.7-2.7l7.5-13.2h-2L15.4,30.5z"/>
		</g>
		<polygon class="st7" points="65.3,17.5 64.6,18.9 65.2,17.8 		"/>
		<g>
			<path class="st7" d="M48.7,22.3c0-5.6-3.4-7.5-8.3-8.7c-2.1-0.5-7.4-1.3-7.4-4.4c0-2.9,2.8-3.9,5.5-3.9c3.2,0,8.7,0.4,9.5,4h5.9
				C53,1.8,45.1,0,38.8,0c-6,0-12.3,2.7-12.3,9.7c0,5.4,3.9,7.2,7.8,8.4c3.9,1.2,7.9,1.8,7.9,4.8c0,3.1-3.2,4.4-5.9,4.4
				c-3.9,0-6.9-1.4-6.7-5.8H23c0,7.5,4.4,11.1,13,11.1C41.9,32.6,48.7,29.8,48.7,22.3z"/>
			<path class="st7" d="M79.4,10.1c-3,0-5.6,1.2-7.4,3.5h-0.1l0.7-3h-1.8l-5.8,11.7l-2.4,9.6h5.8l2.4-11.3c0.6-3,2.4-5.9,6-5.9
				c1.4,0,2.8,0.9,2.8,2.2c0,0.6-0.2,2-0.4,2.6l-2.6,12.5h5.8L85,19.4c0.2-0.7,0.6-2.8,0.6-3.7C85.6,12.1,83.4,10.1,79.4,10.1z"/>
			<path class="st7" d="M65.3,18.6l3.9-7.9h-2.2h-3.3l-7.4,15.2h-0.1l-1.9-15.2h-6l3.8,21.1c-0.8,1.1-1.1,2.9-3.9,2.9
				c-0.8,0-1.6-0.2-2.4-0.2l-1,4.9c1,0,2.1,0.2,3.1,0.2c4.4,0,6.3-0.8,8.3-4.5L64.6,20L65.3,18.6z"/>
			<g>
				<path class="st7" d="M106.6,22.8c0.2-1,0.3-2.2,0.3-3.3c0-6.2-4-9.3-9.9-9.3c-7.2,0-11.7,6.3-11.7,13.1c0,6.1,3.8,9.3,9.5,9.3
					c6.1,0,9.2-2.6,11-7.3h-5.8c-0.9,1.4-2,2.9-4.4,2.9c-3.2,0-4.7-1.7-4.7-4.2c0-0.3,0-0.7,0-1.2H106.6z M97.3,14.6
					c3.4,0,4,2.3,4,4.5h-9.8C92.4,16.7,94,14.6,97.3,14.6z"/>
			</g>
			<path class="st7" d="M122,10.2c0,0-0.1,0-0.1,0C121.9,10.2,121.9,10.2,122,10.2L122,10.2z"/>
			<path class="st7" d="M122.6,16l0.1-0.3l-0.3-0.3c-0.1,0.1-0.2,0.3-0.3,0.4C122.2,15.9,122.4,15.9,122.6,16z"/>
			<path class="st7" d="M154.3,17.4l-4.8,8.5h-0.1l-1.9-15.2H145l-1.5,8.1l1.8,12.9c-0.8,1.1-1.1,2.9-3.9,2.9
				c-0.8,0-1.6-0.2-2.4-0.2l-1,4.9c1,0,2.1,0.2,3.1,0.2c4.4,0,6.2,0.8,8.2-2.9l5.7-9.9C154.1,23.1,153.6,20.8,154.3,17.4z"/>
			<path class="st7" d="M120.7,15.6c0.2-0.3,0.3-0.6,0.5-0.9c0.5-0.8,1-1.4,1.6-2c0.9-0.9,1.5-1.6,2.3-2.1c-2.2-0.5-2.6-0.5-3.2-0.5
				c0,0-0.1,0-0.1,0c-0.2,0-0.4,0-0.7,0c-0.2,0-0.4,0.1-0.6,0.1c-2.6,0.4-4.9,1.9-6,4.4l-0.1-0.1l0.9-3.8h-5.6L105.4,32h5.8l2-9.4
				c0.8-3.6,2.4-7,6.9-7C120.4,15.6,120.4,15.6,120.7,15.6z"/>
			<path class="st7" d="M141.4,22.4L141.4,22.4l1.1-6.1l1-5.6v0h-5.3l-0.7,3.3h-0.1c-1.2-2.8-3.6-3.8-6.5-3.8
				c-0.8,0-1.6,0.1-2.3,0.3c-0.2,0.1-1.1,0.3-1.9,0.7c-1.2,0.7-2.5,1.7-3.9,3.4c-0.2,0.2-0.4,0.7-0.6,0.9l0.3,0.3l-0.1,0.3
				c-0.2,0-0.3-0.1-0.5-0.1c-0.1,0.2-0.2,0.3-0.3,0.5c-1,2-1.5,4.3-1.5,6.5c0,5.2,3.1,8.7,8.2,8.7c2.4,0,4.3-1,5.8-3l0.1,0.1
				c-1.2,4.2-2.2,7.4-5.9,7.4c-1.9,0-3.9-0.9-3.8-3h-5.8c0,5.1,4.8,7,9.1,7c7,0,10.3-2.7,11.7-9.2L141.4,22.4z M130.1,27.2
				c-2.7,0-4-2.2-4-4.7c0-3.4,2.1-8,6-8c2.8,0,4.2,1.9,4.2,4.6C136.3,22.7,134.3,27.2,130.1,27.2z"/>
			<path class="st7" d="M126.8,11.1c0.1,0,0.1,0.1,0.2,0.1c0.8-0.5,1.5-0.7,1.7-0.8C128,10.6,127.4,10.8,126.8,11.1z"/>
			<path class="st7" d="M122,15.9c-0.1,0.2-0.2,0.4-0.3,0.5C121.9,16.2,122,16.1,122,15.9C122,15.9,122,15.9,122,15.9z"/>
			<path class="st7" d="M122.3,15.4L122.3,15.4c-0.1,0.1-0.2,0.3-0.3,0.4c0,0,0,0,0,0C122.1,15.7,122.2,15.6,122.3,15.4z"/>
			<path class="st7" d="M122.8,14.7l0-0.2c-0.2,0.3-0.4,0.6-0.6,0.9l0,0C122.5,15.2,122.7,14.9,122.8,14.7z"/>
		</g>
		<path class="st7" d="M161.5,17.5C161.5,17.4,161.5,17.4,161.5,17.5c0.1-0.6,0.2-0.9,0.4-1.7c0,0,0-0.1,0-0.1
			c0.1-0.3,0.2-0.6,0.3-0.8c1.1-3.1,3.3-5.8,6.6-6.5c0,0,0,0,0.1,0c0,0,0.1,0,0.2,0c0.5-0.1,0.9-0.1,1.5-0.1c1.9,0,3.3,0.4,4.3,1.4
			c0.1,0.1,0.2,0.2,0.3,0.4c0,0,0,0,0.1,0.1c0.6,0.7,1,1.6,0.9,2.9h6.1c0-0.7-0.1-1.3-0.2-2c-0.3-1.4-1-3.3-2.6-4.9
			c-0.1-0.1-0.3-0.3-0.4-0.4c-0.2-0.1-0.4-0.3-0.6-0.4c-1-0.7-2.2-1.3-3.5-1.6c0,0,0,0-0.1,0c-0.6-0.2-1.2-0.3-1.9-0.4
			c-0.2,0-0.4-0.1-0.6-0.1C172,3.1,171.3,3,170.7,3c-1.9,0-5,0.3-8,2.2c-0.2,0.1-0.4,0.2-0.5,0.4c-0.3,0.2-0.5,0.3-0.8,0.5
			c-0.4,0.3-0.7,0.6-1.1,1c-0.1,0.1-0.2,0.1-0.2,0.2c-0.2,0.2-0.3,0.4-0.5,0.5c-1.5,1.7-2.8,4.1-3.6,7.3c-0.1,0.5-0.2,0.9-0.3,1.4
			c0,0,0,0,0,0.1c-0.1,0.5-0.1,0.9-0.2,1.4c0,0.2,0,0.3,0,0.5c0,0.4,0,0.8,0,1.3c0,0.1,0,0.3,0,0.4c0,1.2,0.1,1.9,0.4,3.2
			c0.2,0.7,0.4,1.3,0.6,2l5.1-7.7C161.5,17.6,161.5,17.6,161.5,17.5z"/>
		<path class="st5" d="M169.2,21.4h6.5c-1.1,3.6-3.1,6-7.7,6c-4.4,0-6.3-3.3-6.3-7.1l-4.4,7.1c2,3.4,5.7,5.2,10.6,5.2
			c2.6,0,5.2-1,7-3.5h0.1v2.9h3.9l3.2-15.1h-11.8L169.2,21.4z"/>
	</g>
</g>
</svg>
