<?xml version="1.0" encoding="utf-8"?>
<!-- Generator: Adobe Illustrator 21.1.0, SVG Export Plug-In . SVG Version: 6.00 Build 0)  -->
<svg version="1.1" id="Capa_1" xmlns="http://www.w3.org/2000/svg" xmlns:xlink="http://www.w3.org/1999/xlink" x="0px" y="0px"
	 viewBox="0 0 339 99.5" style="enable-background:new 0 0 339 99.5;" xml:space="preserve">
<style type="text/css">
	.st0{fill:#FFFFFF;}
	.st1{fill:url(#SVGID_1_);}
	.st2{fill:url(#SVGID_2_);}
	.st3{fill:#F48E30;}
	.st4{fill:#5D717D;}
	.st5{font-family:'Helvetica';}
	.st6{font-size:17.9262px;}
	.st7{fill:#57C6D2;}
	.st8{fill:#172F58;}
	.st9{fill:#183058;}
	.st10{fill-rule:evenodd;clip-rule:evenodd;fill:#F48E30;}
	.st11{fill:none;stroke:#5D717D;stroke-miterlimit:10;}
	.st12{fill:#414142;}
	.st13{fill:#F16A24;}
	.st14{opacity:0.5;}
	.st15{clip-path:url(#SVGID_4_);fill:#FFFFFF;}
	.st16{clip-path:url(#SVGID_6_);fill:#FFFFFF;}
	.st17{clip-path:url(#SVGID_8_);fill:#FFFFFF;}
	.st18{clip-path:url(#SVGID_10_);fill:#FFFFFF;}
	.st19{clip-path:url(#SVGID_12_);fill-rule:evenodd;clip-rule:evenodd;fill:#FFFFFF;}
	.st20{clip-path:url(#SVGID_14_);}
	.st21{opacity:0.9;}
	.st22{fill:url(#SVGID_15_);}
</style>
<g>
	<g>
		<g>
			<path class="st3" d="M139,23.7v29c0,5.3-1.7,9.5-5.2,12.5c-3.5,3-7.9,4.5-13.4,4.5c-5.3,0-9.6-1.5-12.9-4.5c-3.4-3-5-7.2-5-12.5
				v-29h9.8v29c0,3.7,1.1,6.6,3.2,8.7s3.3,2.7,6.6,2.7c3.6,0,4.8-0.6,7-2.7c2.2-2.1,3.3-5,3.3-8.7v-29H139z"/>
			<path class="st3" d="M152,35.6l0,7.6c1.1-2.2,2.5-4.2,4.2-5.2c2-1.2,3.9-2.2,6.5-2.3c3.1-0.1,6.2,0.8,8.4,2.8s3.1,4.9,3.1,9.2
				v20.8h-6.6V47.9c0-2.9-0.6-5-1.9-6.2c-1.3-1.2-2.4-1.5-5-1.5c-2,0-3.8,0.4-5.5,1.8c-1.9,1.5-2.3,3.1-3.2,4.4v22.2H145V35.6H152z"
				/>
			<path class="st3" d="M273.7,35.6l0,7.8c1.1-2.2,2.5-4.2,4.2-5.3c2-1.3,3.9-2.3,6.5-2.4c3.1-0.1,6.2,0.8,8.4,2.9s3.1,5,3.1,9.4
				v21.2h-6.6V48.1c0-3-0.6-5.1-1.9-6.3c-1.3-1.2-2.4-1.5-5-1.5c-2,0-3.8,0.4-5.5,1.8c-1.9,1.5-2.3,3.1-3.2,4.5v22.6h-7.1V35.6
				H273.7z"/>
			<path class="st3" d="M187.7,68.5H180V35.6h7.7V68.5z M188.2,28.6c0,2.7-2.2,4.9-4.9,4.9s-4.9-2.2-4.9-4.9s2.2-4.9,4.9-4.9
				S188.2,25.9,188.2,28.6z"/>
			<path class="st3" d="M192.7,68.5V23.7h18.4c7.1,0,9.6,1,12.5,3c2.9,2,4.3,5.1,4.3,9.1c0,1.9-1.1,4.1-2.4,5.6
				c-1.3,1.5-4.1,2.2-6.3,3c3.2,0.4,5.7,1.7,7.5,3.8c1.9,2.1,2.8,4.6,2.8,7.5c0,4.1-1.4,7.2-4.3,9.4c-2.9,2.2-8.4,3.2-13.3,3.2
				H192.7z M200.6,41.2l9.3,0c2.4,0,4.4-0.6,6-1.9c1.5-1.2,2.3-3,2.3-5.2c0-1.8-0.8-2.6-2.5-3.8c-1.7-1.2-4-1.8-7.1-1.8l-7.9,0V41.2
				z M200.5,47.9l0.1,15.9l9,0c3,0,6.4-0.4,8-1.8c1.7-1.4,2.1-3.3,2.1-5.8c0-2.5-0.4-4.8-2.1-6.3c-1.7-1.5-2.8-1.9-5.7-2h-0.4
				L200.5,47.9z"/>
			<path class="st3" d="M254.7,69.1c0,0,0.1-3.9,0.1-4.7c-1.2,1.6-2.6,2.6-4.6,3.7c-2,1.1-4.1,1.6-6.3,1.6c-3.8,0-6.6-0.9-8.6-2.6
				c-2-1.8-2.9-4.2-2.9-7.2c0-3.1,1.4-5.6,4.2-7.4c2.8-1.8,6.6-2.7,11.3-2.7h7.1v-3.2c0-1.9-0.6-3.4-1.9-4.6
				c-1.3-1.1-2.6-1.9-5.5-1.9c-6.5,0-8.7,3.1-7.1,3c4.5-0.2,3.4,4.4,2.5,5.3c-1,1.2-4,1-6,0.4c-2.4-0.8-2.7-3.5-2.7-3.5
				c-0.1-2.9,1-4.8,3.6-6.8c2.6-2,6-3,10.1-3c4.1,0,7.4,0.9,9.9,2.8c2.5,1.9,3.7,4.6,3.7,8.2v15.8c0,1.2,0,6.6,0,6.6L254.7,69.1z
				 M246.3,64.6c2.4,0,3.6-1,5.5-2.2c1.9-1.3,2.4-2.2,3.2-3.2v-5.3l-6.5,1c-1.5,0.5-3.8,0.9-5.3,2.2c-0.9,0.7-1.3,1.4-1.3,3.1
				c0,1.5,0.4,2.2,1,2.8C243.6,63.9,244.3,64.6,246.3,64.6z"/>
			<path class="st3" d="M314.6,55l-5.6,4.6v9.5h-7.5V24.4h7.5v26.9l4-2.9l12.1-10.3h9l-13.6,13l14.9,18.1h-8.9L314.6,55z"/>
		</g>
		<text transform="matrix(1 0 0 1 174.2078 90.8889)" class="st4 st5 st6">Tu opción inteligente</text>
		<path class="st4" d="M30.3,49V6.1c0,0,0-9.9-15.6-4.4c0,0-14.7,6-14.7,22v32.1c0,0,1.6,14.2,13,17.8c0,0,11.1,4.8,19.4-1.5
			c0,0,4.8-3.7,7.6-6.7C40,65.5,30.4,58.1,30.3,49z"/>
		<path class="st3" d="M20,78.6c0,0,16.8,4.5,26.3-16.2c0,0-1.2-31.6,0-33.4c1.2-1.9,6.1-12,18.4-3.7c0,0,9.9,5.1,12.4,16.2
			c0,0,2,9.6,0,15.2c-1.6,4.5-5.3,23.5-32.4,27.9C44.6,84.6,23.8,86.5,20,78.6z"/>
	</g>
</g>
</svg>
