<?xml version="1.0" encoding="utf-8"?>
<!-- Generator: Adobe Illustrator 21.1.0, SVG Export Plug-In . SVG Version: 6.00 Build 0)  -->
<svg version="1.1" id="Capa_1" xmlns="http://www.w3.org/2000/svg" xmlns:xlink="http://www.w3.org/1999/xlink" x="0px" y="0px"
	 viewBox="0 0 509.1 71" style="enable-background:new 0 0 509.1 71;" xml:space="preserve">
<style type="text/css">
	.st0{fill:#FFFFFF;}
	.st1{fill:url(#SVGID_1_);}
	.st2{fill:url(#SVGID_2_);}
	.st3{fill:#F48E30;}
	.st4{fill:#5D717D;}
	.st5{fill:#57C6D2;}
	.st6{fill:#172F58;}
	.st7{fill:#183058;}
	.st8{fill-rule:evenodd;clip-rule:evenodd;fill:#F48E30;}
	.st9{fill:none;stroke:#5D717D;stroke-miterlimit:10;}
	.st10{fill:#414142;}
	.st11{fill:#F16A24;}
	.st12{opacity:0.5;}
	.st13{clip-path:url(#SVGID_4_);fill:#FFFFFF;}
	.st14{clip-path:url(#SVGID_6_);fill:#FFFFFF;}
	.st15{clip-path:url(#SVGID_8_);fill:#FFFFFF;}
	.st16{clip-path:url(#SVGID_10_);fill:#FFFFFF;}
	.st17{clip-path:url(#SVGID_12_);fill-rule:evenodd;clip-rule:evenodd;fill:#FFFFFF;}
	.st18{clip-path:url(#SVGID_14_);}
	.st19{opacity:0.9;}
	.st20{fill:url(#SVGID_15_);}
</style>
<g>
	<g>
		<polygon class="st11" points="78.1,35.5 71,28.9 71,0 0,0 0,71 71,71 71,42.1 		"/>
		<polygon class="st3" points="77.8,35.8 78.1,35.5 71,28.9 71,0 0,0 0,35.8 		"/>
		<g>
			<g>
				<g>
					<g>
						<path class="st0" d="M32.7,27.3c1.1,1.9,1.6,4.6,1.6,8.1s-0.5,6.2-1.6,8.1c-1.1,1.9-3,2.9-5.7,2.9c-2.7,0-4.6-1-5.7-2.9
							c-1.1-1.9-1.6-4.6-1.6-8.1s0.5-6.2,1.6-8.1c1.1-1.9,3-2.9,5.7-2.9C29.7,24.4,31.6,25.4,32.7,27.3z M24.5,41.1
							c0.4,1.3,1.2,1.9,2.5,1.9s2.1-0.6,2.4-1.9s0.6-3.2,0.6-5.6c0-2.6-0.2-4.5-0.6-5.7c-0.4-1.2-1.2-1.9-2.4-1.9s-2.1,0.6-2.5,1.9
							c-0.4,1.2-0.6,3.1-0.6,5.7C23.9,37.9,24.1,39.8,24.5,41.1z"/>
						<path class="st0" d="M37.5,31.2v-2.9c1.3-0.1,2.2-0.1,2.8-0.3c0.8-0.2,1.5-0.6,2.1-1.1c0.4-0.4,0.6-0.9,0.8-1.5
							c0.1-0.4,0.2-0.7,0.2-0.9h3.5v21.3h-4.3V31.2H37.5z"/>
					</g>
				</g>
			</g>
		</g>
	</g>
	<g>
		<polygon class="st11" points="185.8,35.5 178.8,28.9 178.8,0 107.8,0 107.8,71 178.8,71 178.8,42.1 		"/>
		<polygon class="st3" points="185.6,35.8 185.8,35.5 178.8,28.9 178.8,0 107.8,0 107.8,35.8 		"/>
		<g>
			<g>
				<g>
					<g>
						<path class="st0" d="M140.4,27.3c1.1,1.9,1.6,4.6,1.6,8.1s-0.5,6.2-1.6,8.1c-1.1,1.9-3,2.9-5.7,2.9c-2.7,0-4.6-1-5.7-2.9
							c-1.1-1.9-1.6-4.6-1.6-8.1s0.5-6.2,1.6-8.1c1.1-1.9,3-2.9,5.7-2.9C137.4,24.4,139.3,25.4,140.4,27.3z M132.3,41.1
							c0.4,1.3,1.2,1.9,2.5,1.9s2.1-0.6,2.4-1.9s0.6-3.2,0.6-5.6c0-2.6-0.2-4.5-0.6-5.7c-0.4-1.2-1.2-1.9-2.4-1.9s-2.1,0.6-2.5,1.9
							c-0.4,1.2-0.6,3.1-0.6,5.7C131.7,37.9,131.9,39.8,132.3,41.1z"/>
						<path class="st0" d="M145.1,41.7c0.6-1.4,2-2.9,4.2-4.5c1.9-1.4,3.2-2.4,3.7-3c0.9-0.9,1.3-2,1.3-3.1c0-0.9-0.2-1.7-0.7-2.2
							c-0.5-0.6-1.2-0.9-2.1-0.9c-1.3,0-2.1,0.5-2.6,1.4c-0.3,0.5-0.4,1.4-0.5,2.6h-4.1c0.1-1.8,0.4-3.3,1-4.4
							c1.1-2.1,3.1-3.2,6-3.2c2.3,0,4.1,0.6,5.4,1.9c1.3,1.2,2,2.9,2,5c0,1.6-0.5,3-1.4,4.2c-0.6,0.8-1.6,1.7-3,2.7l-1.7,1.2
							c-1.1,0.7-1.8,1.3-2.2,1.6c-0.4,0.3-0.7,0.7-1,1.2h9.3v3.7h-14.6C144.2,44.4,144.5,43,145.1,41.7z"/>
					</g>
				</g>
			</g>
		</g>
	</g>
	<g>
		<polygon class="st11" points="293.6,35.5 286.5,28.9 286.5,0 215.5,0 215.5,71 286.5,71 286.5,42.1 		"/>
		<polygon class="st3" points="293.3,35.8 293.6,35.5 286.5,28.9 286.5,0 215.5,0 215.5,35.8 		"/>
		<g>
			<g>
				<g>
					<g>
						<path class="st0" d="M248.2,27.3c1.1,1.9,1.6,4.6,1.6,8.1s-0.5,6.2-1.6,8.1c-1.1,1.9-3,2.9-5.7,2.9c-2.7,0-4.6-1-5.7-2.9
							c-1.1-1.9-1.6-4.6-1.6-8.1s0.5-6.2,1.6-8.1c1.1-1.9,3-2.9,5.7-2.9C245.2,24.4,247.1,25.4,248.2,27.3z M240,41.1
							c0.4,1.3,1.2,1.9,2.5,1.9s2.1-0.6,2.4-1.9s0.6-3.2,0.6-5.6c0-2.6-0.2-4.5-0.6-5.7c-0.4-1.2-1.2-1.9-2.4-1.9s-2.1,0.6-2.5,1.9
							c-0.4,1.2-0.6,3.1-0.6,5.7C239.4,37.9,239.6,39.8,240,41.1z"/>
						<path class="st0" d="M255.8,39.4c0,0.9,0.1,1.6,0.4,2.1c0.5,1,1.4,1.5,2.8,1.5c0.8,0,1.5-0.3,2.1-0.8c0.6-0.6,0.9-1.4,0.9-2.4
							c0-1.4-0.6-2.3-1.7-2.8c-0.6-0.3-1.7-0.4-3-0.4v-3c1.4,0,2.3-0.2,2.8-0.4c0.9-0.4,1.4-1.2,1.4-2.5c0-0.8-0.2-1.5-0.7-2
							c-0.5-0.5-1.1-0.8-2-0.8c-1,0-1.7,0.3-2.2,0.9c-0.5,0.6-0.7,1.5-0.7,2.5h-3.9c0-1.1,0.2-2.1,0.5-3c0.3-0.8,0.9-1.6,1.6-2.3
							c0.5-0.5,1.2-0.9,2-1.1c0.8-0.3,1.7-0.4,2.8-0.4c2,0,3.7,0.5,4.9,1.6s1.9,2.5,1.9,4.2c0,1.3-0.4,2.3-1.1,3.2
							c-0.5,0.5-1,0.9-1.5,1.1c0.4,0,0.9,0.3,1.6,1c1.1,1,1.6,2.3,1.6,4.1c0,1.8-0.6,3.4-1.9,4.8c-1.2,1.4-3.1,2.1-5.5,2.1
							c-3,0-5.1-1-6.3-3c-0.6-1-1-2.4-1-4.1H255.8z"/>
					</g>
				</g>
			</g>
		</g>
	</g>
	<g>
		<polygon class="st11" points="401.3,35.5 394.2,28.9 394.2,0 323.2,0 323.2,71 394.2,71 394.2,42.1 		"/>
		<polygon class="st3" points="401.1,35.8 401.3,35.5 394.2,28.9 394.2,0 323.2,0 323.2,35.8 		"/>
		<g>
			<g>
				<g>
					<g>
						<path class="st0" d="M355.9,27.3c1.1,1.9,1.6,4.6,1.6,8.1s-0.5,6.2-1.6,8.1c-1.1,1.9-3,2.9-5.7,2.9c-2.7,0-4.6-1-5.7-2.9
							c-1.1-1.9-1.6-4.6-1.6-8.1s0.5-6.2,1.6-8.1c1.1-1.9,3-2.9,5.7-2.9C352.9,24.4,354.8,25.4,355.9,27.3z M347.8,41.1
							c0.4,1.3,1.2,1.9,2.5,1.9s2.1-0.6,2.4-1.9s0.6-3.2,0.6-5.6c0-2.6-0.2-4.5-0.6-5.7c-0.4-1.2-1.2-1.9-2.4-1.9s-2.1,0.6-2.5,1.9
							c-0.4,1.2-0.6,3.1-0.6,5.7C347.2,37.9,347.4,39.8,347.8,41.1z"/>
						<path class="st0" d="M374.4,41.3H372v4.6h-4.1v-4.6h-8.4v-3.7l7.8-12.9h4.7v13.3h2.4V41.3z M367.9,38.1v-9.2l-5.3,9.2H367.9z"
							/>
					</g>
				</g>
			</g>
		</g>
	</g>
	<g class="st12">
		<polygon class="st11" points="509.1,35.5 502,28.9 502,0 431,0 431,71 502,71 502,42.1 		"/>
		<polygon class="st3" points="508.8,35.8 509.1,35.5 502,28.9 502,0 431,0 431,35.8 		"/>
		<g>
			<g>
				<g>
					<g>
						<path class="st0" d="M463.7,27.3c1.1,1.9,1.6,4.6,1.6,8.1s-0.5,6.2-1.6,8.1c-1.1,1.9-3,2.9-5.7,2.9c-2.7,0-4.6-1-5.7-2.9
							c-1.1-1.9-1.6-4.6-1.6-8.1s0.5-6.2,1.6-8.1c1.1-1.9,3-2.9,5.7-2.9C460.7,24.4,462.6,25.4,463.7,27.3z M455.5,41.1
							c0.4,1.3,1.2,1.9,2.5,1.9s2.1-0.6,2.4-1.9s0.6-3.2,0.6-5.6c0-2.6-0.2-4.5-0.6-5.7c-0.4-1.2-1.2-1.9-2.4-1.9s-2.1,0.6-2.5,1.9
							c-0.4,1.2-0.6,3.1-0.6,5.7C454.9,37.9,455.1,39.8,455.5,41.1z"/>
						<path class="st0" d="M471.4,40.2c0.2,0.9,0.5,1.6,1,2.1c0.5,0.5,1.2,0.7,2.1,0.7c1,0,1.8-0.4,2.4-1.1c0.5-0.7,0.8-1.6,0.8-2.8
							c0-1.1-0.3-2-0.8-2.8s-1.3-1.1-2.4-1.1c-0.5,0-0.9,0.1-1.3,0.2c-0.7,0.2-1.1,0.7-1.5,1.3l-3.8-0.2l1.5-11.8h11.7v3.6h-8.7
							l-0.8,4.7c0.6-0.4,1.1-0.7,1.5-0.8c0.6-0.2,1.3-0.3,2.2-0.3c1.8,0,3.3,0.6,4.6,1.8c1.3,1.2,2,2.9,2,5.2c0,2-0.6,3.7-1.9,5.3
							c-1.3,1.5-3.2,2.3-5.7,2.3c-2,0-3.7-0.5-5-1.6s-2-2.6-2.2-4.6H471.4z"/>
					</g>
				</g>
			</g>
		</g>
	</g>
</g>
</svg>
