<?xml version="1.0" encoding="utf-8"?>
<!-- Generator: Adobe Illustrator 21.1.0, SVG Export Plug-In . SVG Version: 6.00 Build 0)  -->
<svg version="1.1" id="Capa_1" xmlns="http://www.w3.org/2000/svg" xmlns:xlink="http://www.w3.org/1999/xlink" x="0px" y="0px"
	 viewBox="0 0 506.6 106.3" style="enable-background:new 0 0 506.6 106.3;" xml:space="preserve">
<style type="text/css">
	.st0{opacity:0.3;}
	.st1{clip-path:url(#SVGID_2_);}
	.st2{fill:#E1E5E8;}
	.st3{fill:#FF8300;}
	.st4{fill:#002856;}
	.st5{fill:#00B3E3;}
	.st6{fill:none;stroke:#002856;stroke-width:5;stroke-miterlimit:10;}
	.st7{clip-path:url(#SVGID_4_);fill:#FFFFFF;}
	.st8{clip-path:url(#SVGID_4_);}
	.st9{opacity:0.4;}
	.st10{fill:none;}
	.st11{fill:#01A8D8;}
	.st12{fill:#A7A9AC;}
	.st13{fill:#FFFFFF;}
	.st14{clip-path:url(#SVGID_6_);fill:url(#SVGID_7_);}
	.st15{clip-path:url(#SVGID_6_);fill:url(#SVGID_8_);}
	.st16{clip-path:url(#SVGID_6_);}
	.st17{fill:#F69320;}
	.st18{fill:#07BCE4;}
	.st19{fill:#F89828;}
	.st20{fill-rule:evenodd;clip-rule:evenodd;fill:#002856;}
	.st21{fill:#676767;}
	.st22{fill:#F47621;}
	.st23{fill-rule:evenodd;clip-rule:evenodd;fill:#FFFFFF;stroke:#002856;stroke-miterlimit:10;}
	.st24{clip-path:url(#SVGID_12_);fill:#FFFFFF;}
	.st25{clip-path:url(#SVGID_18_);fill:#FFFFFF;}
	.st26{clip-path:url(#SVGID_22_);fill:#FFFFFF;}
	.st27{clip-path:url(#SVGID_24_);fill:#FFFFFF;}
	.st28{clip-path:url(#SVGID_26_);fill-rule:evenodd;clip-rule:evenodd;fill:#FFFFFF;}
	.st29{clip-path:url(#SVGID_28_);}
	.st30{opacity:0.9;}
	.st31{fill:#17415E;}
</style>
<g>
	<path class="st20" d="M110,67.4l34.2,34.2c3.4,3.4,9.1,3.4,12.5,0L191,67.4c3.5-3.5,3.5-9.1,0-12.5l-21.7-21.7
		c-10.3-10.4-27.3-10.4-37.6,0L110,54.9C106.5,58.3,106.5,64,110,67.4L110,67.4z"/>
	<path class="st20" d="M12.3,67.4l34.2,34.2c3.4,3.4,9.1,3.4,12.5,0l34.2-34.2c3.4-3.5,3.4-9.1,0-12.5L71.7,33.2
		c-10.3-10.4-27.3-10.4-37.6,0L12.3,54.9C8.9,58.3,8.9,64,12.3,67.4L12.3,67.4z"/>
	<path class="st20" d="M207.6,67.4l34.2,34.2c3.5,3.4,9.1,3.4,12.5,0l34.2-34.2c3.4-3.5,3.4-9.1,0-12.5l-21.7-21.7
		c-10.4-10.4-27.3-10.4-37.6,0l-21.7,21.7C204.1,58.3,204.1,64,207.6,67.4L207.6,67.4z"/>
	<path class="st20" d="M305.2,67.4l34.2,34.2c3.4,3.4,9.1,3.4,12.5,0l34.2-34.2c3.4-3.5,3.4-9.1,0-12.5l-21.7-21.7
		c-10.4-10.4-27.3-10.4-37.6,0l-21.7,21.7C301.7,58.3,301.7,64,305.2,67.4L305.2,67.4z"/>
	<path class="st11" d="M505.8,3.8l-5.5,21.3l-6.7-6.7l-1.6-1.5c-6.7,7.1-4.8,5.4-16.3,17l-5.7-5.7c-3.2-3.2-6.9-5.7-10.9-7.3
		c-4.1-1.7-8.5-2.6-12.9-2.6c-4.4,0-8.8,0.9-12.9,2.6c-4,1.6-7.7,4.1-10.9,7.3c-35.2,35.2-17.7,35.2-52.8,0
		c-3.2-3.2-6.9-5.7-10.9-7.3c-4.1-1.7-8.5-2.6-12.9-2.6c-4.4,0-8.8,0.9-12.9,2.6c-4,1.6-7.7,4.1-10.9,7.3c-31.9,31.9-18,31.9-49.9,0
		c-3.2-3.2-6.9-5.7-10.9-7.3c-4.1-1.7-8.5-2.6-12.9-2.6c-4.4,0-8.8,0.9-12.9,2.6c-4,1.6-7.7,4.1-10.9,7.3c-31.9,31.9-18,31.9-49.9,0
		c-3.2-3.2-6.9-5.7-10.9-7.3c-4.1-1.7-8.5-2.6-12.9-2.6c-4.4,0-8.8,0.9-12.9,2.6c-3.6,1.5-11.7,8.5-21.4,17.9
		c-4.2,4.1-2.4,2.3-7.1,7C95,59.9,90.1,38.7,75,28c-4.8-3.4-8-5.1-11.8-6.6c-0.3-0.1-5.9-2.1-12.2-1.7c-3.7,0.2-6.3,0.5-10.2,2.5
		c-17,8.7-33.3,31.2-35.3,32.7c-3.4,2.6-4.2,2.2-5,1.5c-0.4-0.4-1.2-1.4,0.6-3.7C2.9,50.1,20,29,39.2,18.4c3.1-1.7,7.3-2.5,12-2.8
		c4.5-0.2,12.4,1.3,14.6,2.5c3.9,2.1,6,2.8,10.2,5.6c13.9,9.1,20.9,29.5,30.6,19.6c4.6-4.8,3-3,7.3-7.1c10-9.6,18.3-16.8,22.3-18.5
		c4.6-1.9,9.4-2.8,14.3-2.8c4.9,0,9.7,0.9,14.3,2.8c4.4,1.8,8.5,4.5,12.1,8.1c28.8,28.8,16.1,28.8,44.9,0c3.5-3.6,7.7-6.2,12.1-8.1
		c4.6-1.9,9.4-2.8,14.3-2.8c4.9,0,9.7,0.9,14.3,2.8c4.4,1.8,8.5,4.5,12.1,8.1c28.8,28.8,16.1,28.8,44.9,0c3.6-3.6,7.7-6.2,12.1-8.1
		c4.6-1.9,9.4-2.8,14.3-2.8c4.9,0,9.7,0.9,14.3,2.8c4.4,1.8,8.5,4.5,12.1,8.1c31.2,31.2,16.6,31.2,47.8,0c3.5-3.6,7.7-6.2,12.1-8.1
		c4.6-1.9,9.4-2.8,14.3-2.8c4.9,0,9.7,0.9,14.3,2.8c4.4,1.8,8.5,4.5,12.1,8.1l3.1,3.1c6.6-6.9,3.5-4.2,13.6-14.5l-1.4-1.6l-6.4-6.4
		L503,1l3.6-1L505.8,3.8L505.8,3.8z"/>
	<path class="st23" d="M405.7,69l34.2,34.2c3.5,3.5,9.1,3.5,12.5,0L486.7,69c3.5-3.4,3.5-9.1,0-12.5L465,34.8
		c-10.4-10.4-27.3-10.4-37.6,0l-21.7,21.7C402.2,59.9,402.2,65.5,405.7,69L405.7,69z"/>
	<g>
		<path class="st13" d="M52.5,56.7h-8.2v-1.8c1.2-0.1,2.3-0.2,3.3-0.4c1-0.1,1.8-0.4,2.6-0.8c0.7-0.4,1.3-1,1.8-1.8
			c0.5-0.8,0.9-1.8,1.1-3.1h2.3v30.9h-2.9V56.7z"/>
	</g>
	<g>
		<path class="st13" d="M141.1,58.8c0-1.5,0.2-2.9,0.7-4.1c0.5-1.2,1.2-2.3,2.1-3.2c0.9-0.9,2-1.6,3.3-2.1c1.3-0.5,2.7-0.7,4.2-0.7
			c1.6,0,3,0.2,4.2,0.7c1.2,0.5,2.2,1.1,3.1,1.8s1.4,1.7,1.9,2.7c0.4,1.1,0.6,2.2,0.6,3.3c0,1.4-0.2,2.6-0.7,3.6
			c-0.5,1.1-1.1,2-1.8,2.8c-0.8,0.8-1.6,1.5-2.6,2.2c-1,0.6-2,1.2-3,1.8c-1,0.6-2,1.1-3,1.6c-1,0.5-1.9,1.1-2.6,1.7
			c-0.5,0.4-1,0.8-1.5,1.2c-0.5,0.4-0.9,0.9-1.3,1.4c-0.4,0.5-0.7,1-0.9,1.6s-0.4,1.3-0.4,2h17.6v2.4h-20.7c0-1.5,0.2-2.8,0.5-4
			c0.3-1.2,1-2.4,2-3.5c1.1-1.2,2.3-2.3,3.4-3.2c1.2-0.9,2.3-1.7,3.5-2.3c1.1-0.7,2.2-1.3,3.2-1.9c1-0.6,1.9-1.2,2.7-1.9
			s1.4-1.4,1.8-2.3s0.7-1.9,0.7-3.1c0-1-0.2-1.9-0.5-2.7s-0.9-1.5-1.5-2c-0.6-0.6-1.4-1-2.2-1.2c-0.8-0.3-1.8-0.4-2.7-0.4
			c-1,0-2,0.2-2.9,0.6s-1.6,1-2.2,1.7s-1.1,1.5-1.4,2.5s-0.5,1.9-0.4,3H141.1z"/>
	</g>
	<g>
		<path class="st13" d="M246.1,62.4c1.3,0,2.6-0.1,3.7-0.2c1.1-0.2,2.1-0.5,2.9-0.9c0.8-0.5,1.4-1.1,1.9-1.8s0.7-1.7,0.7-2.9
			c0-1-0.2-1.8-0.5-2.5s-0.8-1.2-1.5-1.7c-0.6-0.4-1.3-0.8-2.2-1c-0.8-0.2-1.7-0.3-2.6-0.3c-1,0-1.9,0.2-2.8,0.5s-1.5,0.8-2.1,1.4
			c-0.6,0.6-1.1,1.3-1.4,2.1s-0.5,1.7-0.5,2.7h-2.9c0-1.4,0.2-2.7,0.7-3.8c0.5-1.1,1.3-2.2,2.3-3.1c1-0.9,2.1-1.4,3.3-1.7
			s2.5-0.4,3.8-0.4c1.3,0,2.4,0.2,3.5,0.5c1.1,0.3,2,0.8,2.9,1.4c0.8,0.6,1.5,1.4,1.9,2.4c0.5,1,0.7,2.1,0.7,3.4
			c0,1.6-0.4,3-1.1,4.2s-1.9,2.1-3.4,2.7c1.1,0.4,2.1,0.8,2.8,1.4c0.7,0.6,1.3,1.2,1.7,1.9c0.4,0.7,0.7,1.4,0.9,2.2
			c0.2,0.8,0.2,1.5,0.2,2.2c0,1.3-0.2,2.5-0.7,3.6s-1.1,2.1-2,2.9c-0.9,0.8-1.9,1.5-3.2,2c-1.3,0.5-2.7,0.8-4.3,0.8
			c-1.8,0-3.4-0.2-4.8-0.5s-2.5-0.9-3.4-1.6c-0.9-0.7-1.6-1.7-2.1-2.9c-0.5-1.2-0.9-2.7-1-4.5h2.9c0,2.4,0.7,4.2,2.2,5.4
			c1.5,1.2,3.3,1.8,5.7,1.8c1.1,0,2.2-0.2,3.2-0.6c1-0.4,1.8-0.9,2.5-1.5c0.7-0.6,1.2-1.4,1.6-2.2c0.4-0.8,0.5-1.7,0.5-2.6
			c-0.1-1.3-0.4-2.3-0.9-3.1c-0.5-0.8-1.3-1.5-2.2-2c-0.9-0.5-2-0.8-3.2-1c-1.2-0.2-2.5-0.2-3.9-0.1V62.4z"/>
	</g>
	<g>
		<path class="st13" d="M347.2,72h-14.5v-2.4L347.4,49h2.6v20.6h4.4V72H350v7.6h-2.9V72z M335.5,69.6h11.6V53.2L335.5,69.6z"/>
	</g>
	<g>
		<path class="st4" d="M439.1,71.6c0.3,2.1,1.2,3.7,2.6,4.7s3.2,1.6,5.2,1.6c1.2,0,2.2-0.2,3.2-0.6c0.9-0.4,1.7-1,2.4-1.7
			c0.7-0.7,1.2-1.5,1.5-2.5c0.3-0.9,0.5-2,0.5-3.1c0-1.1-0.2-2.2-0.6-3.2c-0.4-1-0.9-1.8-1.6-2.5c-0.7-0.7-1.5-1.2-2.5-1.6
			c-1-0.4-2.1-0.6-3.3-0.6c-1.4,0-2.7,0.3-3.9,0.8c-1.1,0.5-2.1,1.3-3,2.4l-2.4-0.3l2.6-16h15.7v2.4h-13.3l-2,10.4
			c0.6-0.4,1.2-0.7,1.7-1s1.1-0.5,1.6-0.6c0.5-0.2,1.1-0.3,1.7-0.3s1.2-0.1,2-0.1c1.4,0,2.8,0.2,4,0.7c1.2,0.5,2.3,1.1,3.2,2
			c0.9,0.9,1.6,1.9,2.1,3.2c0.5,1.3,0.7,2.7,0.7,4.3c0,1.6-0.3,3.1-0.8,4.4c-0.6,1.3-1.3,2.3-2.2,3.2c-0.9,0.9-2,1.5-3.2,2
			c-1.2,0.5-2.5,0.7-3.7,0.7c-1.5,0-2.9-0.1-4.2-0.4c-1.3-0.3-2.4-0.8-3.4-1.5s-1.8-1.6-2.4-2.7c-0.6-1.1-1-2.4-1.1-4.1H439.1z"/>
	</g>
</g>
</svg>
