<?xml version="1.0" encoding="utf-8"?>
<!-- Generator: Adobe Illustrator 16.0.0, SVG Export Plug-In . SVG Version: 6.00 Build 0)  -->
<!DOCTYPE svg PUBLIC "-//W3C//DTD SVG 1.1//EN" "http://www.w3.org/Graphics/SVG/1.1/DTD/svg11.dtd">
<svg version="1.1" id="Layer_1" xmlns="http://www.w3.org/2000/svg" xmlns:xlink="http://www.w3.org/1999/xlink" x="0px" y="0px"
	 width="59.803px" height="102.957px" viewBox="0 0 59.803 102.957" enable-background="new 0 0 59.803 102.957"
	 xml:space="preserve">
<g>
	<g>
		<path fill="#414042" d="M52.854,0h-45.9C3.131,0,0,3.134,0,6.953v89.049c0,3.824,3.131,6.955,6.953,6.955h45.9
			c3.816,0,6.949-3.131,6.949-6.955V6.953C59.803,3.134,56.67,0,52.854,0L52.854,0z M22.564,5.009h14.673
			c0.474,0,0.847,0.377,0.847,0.853c0,0.457-0.373,0.826-0.847,0.826H22.564c-0.479,0-0.851-0.369-0.851-0.826
			C21.714,5.386,22.085,5.009,22.564,5.009L22.564,5.009z M29.9,99.484c-1.93,0-3.474-1.556-3.474-3.482
			c0-1.922,1.544-3.473,3.474-3.473c1.925,0,3.473,1.551,3.473,3.473C33.373,97.929,31.825,99.484,29.9,99.484L29.9,99.484z
			 M54.963,90.086H4.837V11.031h50.126V90.086z M54.963,90.086"/>
	</g>
</g>
</svg>
