<?xml version="1.0" encoding="utf-8"?>
<!-- Generator: Adobe Illustrator 16.0.0, SVG Export Plug-In . SVG Version: 6.00 Build 0)  -->
<!DOCTYPE svg PUBLIC "-//W3C//DTD SVG 1.1//EN" "http://www.w3.org/Graphics/SVG/1.1/DTD/svg11.dtd">
<svg version="1.1" xmlns="http://www.w3.org/2000/svg" xmlns:xlink="http://www.w3.org/1999/xlink" x="0px" y="0px"
	 width="515.061px" height="60.848px" viewBox="0 0 515.061 60.848" enable-background="new 0 0 515.061 60.848"
	 xml:space="preserve">
<g id="fondo">
</g>
<g id="Contenido">
	<g>
		<g>
			<polygon fill="#0A5099" points="89.17,14.143 0,14.143 0,41.143 89.17,41.143 103.356,27.576 			"/>
			<polygon fill="none" stroke="#0A5099" stroke-miterlimit="10" points="397.54,13.643 308.61,13.643 322.794,27.076 
				308.61,40.643 397.54,40.643 411.727,27.076 			"/>
			<polygon fill="none" stroke="#0A5099" stroke-miterlimit="10" points="500.148,13.643 411.219,13.643 425.403,27.076 
				411.219,40.643 500.148,40.643 514.336,27.076 			"/>
			<polygon fill="#0A5099" points="192.323,14.143 103.389,14.143 117.578,27.576 103.389,41.143 192.323,41.143 206.508,27.576 			
				"/>
			<polygon fill="#0A5099" points="294.934,14.143 206,14.143 220.188,27.576 206,41.143 294.934,41.143 309.117,27.576 			"/>
		</g>
		<g>
			<circle fill="#FFFFFF" stroke="#0A5099" stroke-miterlimit="10" cx="47.826" cy="26.446" r="25.946"/>
			<g>
				<path fill="#004E9B" d="M38.89,19.844v-2.831c2.667-0.26,4.526-0.694,5.579-1.303c1.053-0.608,1.839-2.047,2.359-4.318h2.913
					v29.25h-3.938V19.844H38.89z"/>
			</g>
		</g>
		<g>
			<circle fill="#FFFFFF" stroke="#0A5099" stroke-miterlimit="10" cx="152.826" cy="26.446" r="25.945"/>
			<g>
				<path fill="#004E9B" d="M142.751,34.038c0.909-1.873,2.684-3.576,5.323-5.107l3.938-2.277c1.764-1.025,3.001-1.901,3.713-2.628
					c1.121-1.137,1.682-2.438,1.682-3.905c0-1.712-0.513-3.072-1.539-4.08c-1.026-1.007-2.393-1.51-4.103-1.51
					c-2.53,0-4.28,0.96-5.251,2.88c-0.52,1.029-0.807,2.455-0.861,4.279H141.9c0.041-2.557,0.513-4.643,1.415-6.256
					c1.6-2.844,4.424-4.267,8.472-4.267c3.364,0,5.822,0.91,7.374,2.728c1.552,1.819,2.328,3.843,2.328,6.072
					c0,2.352-0.827,4.362-2.482,6.031c-0.957,0.971-2.673,2.147-5.148,3.528l-2.81,1.559c-1.34,0.738-2.393,1.443-3.159,2.113
					c-1.367,1.189-2.229,2.509-2.584,3.958h16.041v3.487h-20.163C141.318,38.113,141.841,35.912,142.751,34.038z"/>
			</g>
		</g>
		<g>
			<circle fill="#FFFFFF" stroke="#0A5099" stroke-miterlimit="10" cx="256.826" cy="26.446" r="25.946"/>
			<g>
				<path fill="#004E9B" d="M247.223,38.582c-1.566-1.908-2.349-4.229-2.349-6.964h3.856c0.164,1.901,0.52,3.282,1.067,4.144
					c0.957,1.545,2.687,2.318,5.189,2.318c1.941,0,3.5-0.52,4.677-1.559c1.176-1.039,1.764-2.379,1.764-4.021
					c0-2.023-0.619-3.439-1.856-4.246c-1.238-0.807-2.958-1.21-5.159-1.21c-0.247,0-0.496,0.003-0.749,0.01
					c-0.253,0.007-0.509,0.018-0.769,0.031v-3.261c0.383,0.041,0.704,0.068,0.964,0.082s0.54,0.021,0.841,0.021
					c1.381,0,2.516-0.219,3.405-0.657c1.559-0.766,2.338-2.133,2.338-4.102c0-1.463-0.52-2.591-1.559-3.385
					c-1.039-0.793-2.25-1.189-3.63-1.189c-2.461,0-4.164,0.82-5.107,2.461c-0.52,0.902-0.814,2.188-0.882,3.856h-3.651
					c0-2.188,0.438-4.047,1.312-5.579c1.504-2.735,4.15-4.103,7.938-4.103c2.995,0,5.312,0.667,6.954,2
					c1.641,1.333,2.461,3.265,2.461,5.795c0,1.805-0.486,3.268-1.457,4.39c-0.602,0.697-1.381,1.244-2.338,1.641
					c1.545,0.424,2.752,1.241,3.621,2.451c0.868,1.21,1.302,2.691,1.302,4.441c0,2.804-0.923,5.087-2.769,6.851
					s-4.465,2.646-7.856,2.646C251.308,41.443,248.789,40.489,247.223,38.582z"/>
			</g>
		</g>
		<g>
			<circle fill="#FFFFFF" stroke="#0A5099" stroke-miterlimit="10" cx="359.826" cy="26.446" r="25.946"/>
			<g opacity="0.2">
				<path fill="#004E9B" d="M360.817,40.643v-7.179h-12.882v-3.61l13.456-18.666h3.118v19.056h4.328v3.221h-4.328v7.179H360.817z
					 M360.756,30.243V16.902l-9.415,13.341H360.756z"/>
			</g>
		</g>
		<g>
			<circle fill="#FFFFFF" stroke="#0A5099" stroke-miterlimit="10" cx="459.826" cy="26.446" r="25.946"/>
			<g opacity="0.2">
				<path fill="#004E9B" d="M452.059,33.156c0.246,2.106,1.224,3.562,2.934,4.369c0.875,0.41,1.887,0.615,3.036,0.615
					c2.188,0,3.808-0.697,4.861-2.092c1.053-1.395,1.58-2.94,1.58-4.636c0-2.051-0.626-3.637-1.877-4.759
					c-1.251-1.121-2.752-1.682-4.502-1.682c-1.272,0-2.362,0.246-3.272,0.739c-0.909,0.492-1.686,1.176-2.328,2.051l-3.2-0.185
					l2.237-15.815h15.26v3.569h-12.492l-1.251,8.164c0.684-0.52,1.333-0.91,1.949-1.169c1.094-0.451,2.359-0.677,3.794-0.677
					c2.694,0,4.978,0.869,6.851,2.605c1.874,1.737,2.81,3.938,2.81,6.605c0,2.776-0.858,5.224-2.574,7.343s-4.455,3.179-8.215,3.179
					c-2.394,0-4.51-0.673-6.349-2.021c-1.839-1.347-2.869-3.415-3.087-6.205H452.059z"/>
			</g>
		</g>
	</g>
</g>
<g id="Action_Bar">
</g>
<g id="Status_Bar">
</g>
<g id="Layer_7">
</g>
<g id="Layer_6" display="none">
</g>
<g id="Screenshots">
</g>
</svg>
