<?xml version="1.0" encoding="utf-8"?>
<!-- Generator: Adobe Illustrator 16.0.0, SVG Export Plug-In . SVG Version: 6.00 Build 0)  -->
<!DOCTYPE svg PUBLIC "-//W3C//DTD SVG 1.1//EN" "http://www.w3.org/Graphics/SVG/1.1/DTD/svg11.dtd">
<svg version="1.1" id="Layer_1" xmlns="http://www.w3.org/2000/svg" xmlns:xlink="http://www.w3.org/1999/xlink" x="0px" y="0px"
	 width="54.973px" height="54.973px" viewBox="0 0 54.973 54.973" enable-background="new 0 0 54.973 54.973" xml:space="preserve">
<g>
	<g>
		<defs>
			<circle id="SVGID_26_" cx="27.486" cy="27.486" r="27.486"/>
		</defs>
		<use xlink:href="#SVGID_26_"  overflow="visible" fill="#DC1F26"/>
		<clipPath id="SVGID_2_">
			<use xlink:href="#SVGID_26_"  overflow="visible"/>
		</clipPath>
		<g clip-path="url(#SVGID_2_)">
			<g>
				<path fill="#FFFFFF" d="M19.102,11.537h2.667l1.723,6.855h0.168l1.64-6.855h2.689l-3.087,10.035v7.119h-2.647v-6.801
					L19.102,11.537z"/>
				<path fill="#FFFFFF" d="M27.869,18.926c0-0.977,0.316-1.76,0.949-2.338c0.638-0.578,1.487-0.869,2.552-0.869
					c0.978,0,1.778,0.301,2.394,0.916c0.625,0.609,0.936,1.402,0.936,2.363v6.537c0,1.082-0.306,1.936-0.916,2.551
					c-0.612,0.617-1.448,0.926-2.522,0.926c-1.024,0-1.847-0.32-2.467-0.953c-0.617-0.635-0.925-1.496-0.925-2.568V18.926z
					 M30.289,25.725c0,0.354,0.083,0.617,0.251,0.811c0.167,0.188,0.404,0.281,0.72,0.281c0.322,0,0.566-0.096,0.759-0.293
					c0.188-0.189,0.282-0.459,0.282-0.799v-6.891c0-0.275-0.094-0.498-0.29-0.668c-0.19-0.172-0.446-0.254-0.751-0.254
					c-0.287,0-0.522,0.082-0.7,0.254c-0.182,0.17-0.271,0.393-0.271,0.668V25.725z"/>
				<path fill="#FFFFFF" d="M43.414,16.035v12.656h-2.353v-1.396c-0.439,0.516-0.889,0.906-1.354,1.176
					c-0.471,0.268-0.929,0.402-1.368,0.402c-0.545,0-0.952-0.182-1.229-0.564c-0.278-0.377-0.413-0.941-0.413-1.695V16.035h2.35
					v9.699c0,0.301,0.051,0.52,0.144,0.656c0.102,0.131,0.264,0.199,0.486,0.199c0.175,0,0.393-0.088,0.655-0.27
					c0.261-0.172,0.506-0.4,0.729-0.678v-9.607H43.414z"/>
			</g>
			<g>
				<path fill="#FFFFFF" d="M35.407,39.449c-0.135,0-0.271,0.029-0.399,0.098c-0.132,0.068-0.263,0.172-0.393,0.312v6.387
					c0.151,0.164,0.301,0.287,0.453,0.361c0.142,0.074,0.295,0.109,0.452,0.109c0.239,0,0.411-0.074,0.523-0.217
					c0.104-0.141,0.161-0.381,0.161-0.707v-5.287c0-0.35-0.063-0.613-0.203-0.791C35.863,39.537,35.671,39.449,35.407,39.449z"/>
				<path fill="#FFFFFF" d="M42.416,39.486c-0.307,0-0.522,0.094-0.656,0.279c-0.129,0.184-0.2,0.488-0.2,0.918v1.037h1.683v-1.037
					c0-0.43-0.061-0.734-0.198-0.918C42.916,39.58,42.705,39.486,42.416,39.486z"/>
				<path fill="#FFFFFF" d="M47.593,35.57c0-2.473-2.031-4.482-4.537-4.482c-3.566-0.148-7.224-0.217-10.951-0.209
					c-3.732-0.008-7.384,0.061-10.958,0.209c-2.503,0-4.533,2.01-4.533,4.482c-0.153,1.955-0.215,3.924-0.209,5.881
					c-0.006,1.961,0.056,3.92,0.209,5.877c0,2.475,2.03,4.486,4.533,4.486c3.574,0.148,7.226,0.217,10.958,0.207
					c3.728,0.01,7.385-0.059,10.951-0.207c2.506,0,4.537-2.012,4.537-4.486c0.152-1.957,0.217-3.916,0.208-5.877
					C47.81,39.494,47.745,37.525,47.593,35.57z M23.199,48.197h-2.145V36.32h-2.221v-2.02h6.582v2.02h-2.217V48.197z M30.832,48.197
					h-1.907v-1.135c-0.351,0.42-0.717,0.736-1.093,0.953c-0.381,0.219-0.75,0.326-1.104,0.326c-0.444,0-0.773-0.148-0.997-0.455
					c-0.228-0.305-0.337-0.764-0.337-1.375v-8.562h1.905v7.859c0,0.242,0.039,0.414,0.12,0.52c0.081,0.115,0.209,0.166,0.391,0.166
					c0.138,0,0.314-0.07,0.524-0.211c0.215-0.15,0.414-0.334,0.591-0.553v-7.781h1.907V48.197z M38.164,46.074
					c0,0.725-0.146,1.283-0.445,1.67c-0.301,0.387-0.73,0.578-1.294,0.578c-0.372,0-0.704-0.072-1-0.221
					c-0.288-0.15-0.562-0.379-0.81-0.689v0.785h-1.927V34.301h1.927v4.477c0.257-0.312,0.526-0.547,0.816-0.713
					c0.291-0.158,0.579-0.246,0.878-0.246c0.601,0,1.062,0.219,1.381,0.658c0.312,0.438,0.474,1.072,0.474,1.91V46.074z
					 M45.208,43.314H41.56v1.934c0,0.537,0.067,0.908,0.19,1.121c0.128,0.207,0.337,0.312,0.644,0.312
					c0.314,0,0.542-0.092,0.662-0.268c0.129-0.174,0.187-0.562,0.187-1.166v-0.717h1.966v0.773c0,1.051-0.241,1.842-0.719,2.373
					c-0.479,0.529-1.195,0.795-2.139,0.795c-0.853,0-1.524-0.279-2.013-0.846c-0.493-0.564-0.734-1.336-0.734-2.322v-4.6
					c0-0.889,0.266-1.613,0.804-2.176c0.544-0.559,1.236-0.84,2.088-0.84c0.875,0,1.543,0.26,2.003,0.781
					c0.475,0.52,0.71,1.264,0.71,2.234V43.314z"/>
			</g>
		</g>
	</g>
</g>
</svg>
