<?xml version="1.0" encoding="utf-8"?>
<!-- Generator: Adobe Illustrator 16.0.0, SVG Export Plug-In . SVG Version: 6.00 Build 0)  -->
<!DOCTYPE svg PUBLIC "-//W3C//DTD SVG 1.1//EN" "http://www.w3.org/Graphics/SVG/1.1/DTD/svg11.dtd">
<svg version="1.1" id="Layer_1" xmlns="http://www.w3.org/2000/svg" xmlns:xlink="http://www.w3.org/1999/xlink" x="0px" y="0px"
	 width="54.974px" height="54.973px" viewBox="0 0 54.974 54.973" enable-background="new 0 0 54.974 54.973" xml:space="preserve">
<g>
	<g>
		<defs>
			<circle id="SVGID_22_" cx="27.487" cy="27.486" r="27.487"/>
		</defs>
		<use xlink:href="#SVGID_22_"  overflow="visible" fill="#32AAE1"/>
		<clipPath id="SVGID_2_">
			<use xlink:href="#SVGID_22_"  overflow="visible"/>
		</clipPath>
		<path clip-path="url(#SVGID_2_)" fill="#FFFFFF" d="M46.062,38.634c-2.046-0.88-2.281-0.793-2.281-0.793s1.904-0.418,2.467-0.694
			c0.553-0.276,4.457-2.229,4.502-6.873c0.049-4.644-3.389-7.111-5.389-7.758c-2-0.649-2.735-0.461-2.735-0.461h-7.96
			c0,0-0.13-3.744-1.475-5.487c-1.254-1.624-3.252-3.066-5.991-3.158c-2.742-0.093-5.253,1.07-6.879,3.158
			c-1.626,2.095-1.484,3.859-1.484,3.859s-0.047,21.786,0,22.39c0.048,0.603,0.413,2.181,0.838,3.204
			c0.416,1.023,1.021,2.788,4.181,5.341c3.159,2.554,6.548,2.273,6.548,2.273s12.537,0.096,13.753,0
			c1.205-0.088,2.036-0.552,2.783-1.062c0.738-0.518,3.766-2.143,3.811-6.553C50.799,41.607,48.103,39.519,46.062,38.634z
			 M43.887,49.974H30.252c0,0-2.827-0.116-4.838-2.182c-2.012-2.075-2.188-2.59-2.531-3.685c-0.347-1.093-0.4-1.954-0.461-2.304
			c-0.055-0.35,0-20.717,0-20.717s0.171-2.072,1.379-2.99c1.206-0.919,2.302-1.096,3.107-1.096c0.807,0,1.959,0.46,2.537,1.037
			c0.572,0.574,1.044,1.184,1.31,1.947c0.317,0.955,0.188,5.71,0.188,5.71H43.83c0,0,3.046,0.915,3.109,4.025
			c0.057,3.108-2.882,4.371-2.882,4.371H30.942v7.019c0,0,0,0,0.227,0.231c0.229,0.231,12.602,0,12.602,0s3.11,0.812,3.169,4.548
			C46.996,49.63,43.887,49.974,43.887,49.974z"/>
	</g>
</g>
</svg>
