<?xml version="1.0" encoding="utf-8"?>
<!-- Generator: Adobe Illustrator 21.1.0, SVG Export Plug-In . SVG Version: 6.00 Build 0)  -->
<svg version="1.1" id="Capa_1" xmlns="http://www.w3.org/2000/svg" xmlns:xlink="http://www.w3.org/1999/xlink" x="0px" y="0px"
	 viewBox="0 0 36.8 40.2" style="enable-background:new 0 0 36.8 40.2;" xml:space="preserve">
<style type="text/css">
	.st0{fill:#FFFFFF;}
	.st1{fill:#3657A3;}
	.st2{opacity:0.2;}
	.st3{clip-path:url(#SVGID_2_);}
	.st4{opacity:0.5;}
	.st5{opacity:0.3;}
	.st6{fill:#0B255A;}
	.st7{fill:#A9123D;}
	.st8{opacity:0.27;fill:#D7D8D7;}
	.st9{clip-path:url(#SVGID_8_);}
	.st10{fill:#252454;}
	.st11{fill-rule:evenodd;clip-rule:evenodd;fill:#A9123D;}
	.st12{fill:none;stroke:#A9123D;stroke-miterlimit:10;}
	.st13{fill:#8A8A8A;}
	.st14{opacity:0.3;fill:none;stroke:#E3E3E3;stroke-miterlimit:10;}
	.st15{fill:#66B054;}
	.st16{opacity:0.9;fill:#252454;}
	.st17{fill:#83C5D0;}
	.st18{fill:#263357;}
</style>
<g>
	<g>
		<g>
			<g>
				<g>
					<path class="st7" d="M7.5,8c5.9-5.4,14.8-5.5,20.8-0.6l-4.8,0.2c-0.6,0-1.1,0.5-1.1,1.1c0,0.6,0.5,1.1,1.1,1.1c0,0,0,0,0,0
						L31,9.5C31.5,9.5,32,9,32,8.4V8.4c0,0,0,0,0,0v0l0,0l-0.3-7.2c0-0.6-0.5-1.1-1.1-1.1c-0.6,0-1.1,0.5-1.1,1.2l0.2,4.5
						c-3-2.4-6.6-3.8-10.6-4C14.3,1.4,9.6,3.1,6,6.3c-5,4.5-7.1,11.3-5.5,17.8C0.6,24.7,1.1,25,1.6,25c0.1,0,0.2,0,0.3,0
						c0.6-0.1,1-0.7,0.8-1.3C1.3,17.9,3.1,11.9,7.5,8z"/>
				</g>
				<g>
					<path class="st7" d="M36.2,16c-0.1-0.6-0.7-1-1.3-0.8c-0.6,0.1-1,0.7-0.8,1.3c1.4,5.7-0.5,11.7-4.8,15.7
						c-3.1,2.8-6.9,4.1-10.7,4.1c-3.7,0-7.3-1.2-10.2-3.7l4.8-0.4c0.6-0.1,1.1-0.6,1-1.2c-0.1-0.6-0.6-1.1-1.2-1l-7.3,0.7
						c-0.6,0.1-1.1,0.6-1,1.2l0.7,7.3c0,0.6,0.5,1,1.1,1c0,0,0.1,0,0.1,0c0.6-0.1,1.1-0.6,1-1.2l-0.4-4.4c3,2.4,6.6,3.8,10.5,4
						c0.3,0,0.6,0,0.9,0c4.5,0,8.8-1.7,12.2-4.7C35.7,29.4,37.8,22.6,36.2,16z"/>
				</g>
			</g>
		</g>
		<g>
			<g>
				<path class="st7" d="M9.7,12.6c0.9-0.2,2.7-0.3,4.5-0.3c2.1,0,3.4,0.2,4.5,0.9c1.1,0.6,1.8,1.6,1.8,3c0,1.3-0.8,2.6-2.5,3.3v0
					c1.8,0.5,3,1.8,3,3.8c0,1.4-0.6,2.5-1.6,3.3c-1.1,0.9-3,1.4-6,1.4c-1.7,0-3-0.1-3.8-0.2V12.6z M13.1,18.4h1.1
					c1.8,0,2.8-0.8,2.8-1.9c0-1.2-0.9-1.8-2.5-1.8c-0.8,0-1.2,0-1.5,0.1V18.4z M13.1,25.2c0.3,0.1,0.8,0.1,1.3,0.1
					c1.6,0,3-0.6,3-2.2c0-1.5-1.4-2.2-3.1-2.2h-1.2V25.2z"/>
			</g>
			<g>
				<path class="st7" d="M22.3,28.6l4.9-16.5h2.3l-4.9,16.5H22.3z"/>
			</g>
		</g>
	</g>
</g>
</svg>
