<?xml version="1.0" encoding="utf-8"?>
<!-- Generator: Adobe Illustrator 21.1.0, SVG Export Plug-In . SVG Version: 6.00 Build 0)  -->
<svg version="1.1" id="Capa_1" xmlns="http://www.w3.org/2000/svg" xmlns:xlink="http://www.w3.org/1999/xlink" x="0px" y="0px"
	 viewBox="0 0 38.3 38.3" style="enable-background:new 0 0 38.3 38.3;" xml:space="preserve">
<style type="text/css">
	.st0{fill:#FFFFFF;}
	.st1{fill:#3657A3;}
	.st2{opacity:0.2;}
	.st3{clip-path:url(#SVGID_2_);}
	.st4{opacity:0.5;}
	.st5{opacity:0.3;}
	.st6{fill:#0B255A;}
	.st7{fill:#A9123D;}
	.st8{opacity:0.27;fill:#D7D8D7;}
	.st9{clip-path:url(#SVGID_8_);}
	.st10{fill:#252454;}
	.st11{fill-rule:evenodd;clip-rule:evenodd;fill:#A9123D;}
	.st12{fill:none;stroke:#A9123D;stroke-miterlimit:10;}
	.st13{fill:#8A8A8A;}
	.st14{opacity:0.3;fill:none;stroke:#E3E3E3;stroke-miterlimit:10;}
	.st15{fill:#66B054;}
	.st16{opacity:0.9;fill:#252454;}
	.st17{fill:#83C5D0;}
	.st18{fill:#263357;}
</style>
<g>
	<g>
		<g>
			<g>
				<path class="st7" d="M21.3,25.6l-1.6,0.7l2.1-10.7c0.2-1.1-1-2.3-2.3-1.6l-3.9,2.2c-0.7,0.4-1,1.4-0.6,2.1
					c0.4,0.7,1.4,1,2.1,0.6l1-0.5l-2,10.2c-0.2,0.9,0.6,1.9,1.5,1.9c0.2,0,0.5-0.1,0.6-0.2l4.3-1.9c0.8-0.3,1.1-1.2,0.8-2
					C23,25.6,22.1,25.3,21.3,25.6z"/>
				<path class="st7" d="M17.6,30.6c-0.5,0-1-0.2-1.3-0.6c-0.3-0.4-0.5-0.9-0.4-1.4l1.9-9.9L17.2,19c-0.3,0.1-0.5,0.2-0.8,0.2
					c-0.6,0-1.2-0.3-1.5-0.9c-0.5-0.8-0.2-1.9,0.6-2.4l4-2.2c0.3-0.2,0.6-0.2,0.9-0.2c0.5,0,1,0.2,1.3,0.6c0.3,0.4,0.5,0.9,0.4,1.4
					L20,26l1.3-0.6c0.2-0.1,0.5-0.1,0.7-0.1c0.7,0,1.3,0.4,1.6,1c0.4,0.9,0,1.9-0.9,2.3l-4.3,1.8C18.2,30.5,17.9,30.6,17.6,30.6z
					 M18.3,18l-2.1,10.6c-0.1,0.4,0.1,0.8,0.3,1.1c0.3,0.3,0.6,0.5,1,0.5c0.3,0,0.5-0.1,0.6-0.1l0,0l4.3-1.9c0.7-0.3,1-1,0.7-1.8
					c-0.2-0.5-0.7-0.8-1.2-0.8c-0.2,0-0.4,0-0.6,0.1l-1.9,0.9l2.2-11.1c0.1-0.4,0-0.8-0.3-1.1c-0.3-0.3-0.6-0.5-1-0.5
					c-0.2,0-0.5,0.1-0.7,0.2l-4,2.2c-0.6,0.3-0.9,1.2-0.5,1.8c0.2,0.4,0.7,0.7,1.2,0.7c0.2,0,0.5-0.1,0.7-0.2l0,0L18.3,18z"/>
			</g>
			<g>
				<path class="st7" d="M20.3,12.2c1.2,0,2.2-1,2.2-2.2c0-1.2-1-2.2-2.2-2.2s-2.2,1-2.2,2.2C18.1,11.2,19.1,12.2,20.3,12.2z"/>
				<path class="st7" d="M20.3,12.4c-1.3,0-2.4-1.1-2.4-2.4c0-1.3,1.1-2.4,2.4-2.4c1.3,0,2.4,1.1,2.4,2.4
					C22.6,11.3,21.6,12.4,20.3,12.4z M20.3,8c-1.1,0-2,0.9-2,2c0,1.1,0.9,2,2,2c1.1,0,2-0.9,2-2C22.3,8.9,21.4,8,20.3,8z"/>
			</g>
		</g>
		<path class="st7" d="M19.1,2.2c2.3,0,4.5,0.4,6.6,1.3c2,0.9,3.8,2.1,5.4,3.6c1.6,1.6,2.8,3.4,3.6,5.4c0.9,2.1,1.3,4.3,1.3,6.6
			c0,2.3-0.4,4.5-1.3,6.6c-0.9,2-2.1,3.8-3.6,5.4c-1.6,1.6-3.4,2.8-5.4,3.6c-2.1,0.9-4.3,1.3-6.6,1.3c-2.3,0-4.5-0.4-6.6-1.3
			c-2-0.9-3.8-2.1-5.4-3.6c-1.6-1.6-2.8-3.4-3.6-5.4c-0.9-2.1-1.3-4.3-1.3-6.6c0-2.3,0.4-4.5,1.3-6.6c0.9-2,2.1-3.8,3.6-5.4
			c1.6-1.6,3.4-2.8,5.4-3.6C14.6,2.7,16.9,2.2,19.1,2.2 M19.1,0C8.6,0,0,8.6,0,19.1c0,10.6,8.6,19.1,19.1,19.1
			c10.6,0,19.1-8.6,19.1-19.1C38.3,8.6,29.7,0,19.1,0L19.1,0z"/>
	</g>
</g>
</svg>
