<?xml version="1.0" encoding="utf-8"?>
<!-- Generator: Adobe Illustrator 21.1.0, SVG Export Plug-In . SVG Version: 6.00 Build 0)  -->
<svg version="1.1" id="Capa_1" xmlns="http://www.w3.org/2000/svg" xmlns:xlink="http://www.w3.org/1999/xlink" x="0px" y="0px"
	 viewBox="0 0 49.1 50.5" style="enable-background:new 0 0 49.1 50.5;" xml:space="preserve">
<style type="text/css">
	.st0{fill:#FFFFFF;}
	.st1{fill:#3657A3;}
	.st2{opacity:0.2;}
	.st3{clip-path:url(#SVGID_2_);}
	.st4{opacity:0.5;}
	.st5{opacity:0.3;}
	.st6{fill:#0B255A;}
	.st7{fill:#A9123D;}
	.st8{opacity:0.27;fill:#D7D8D7;}
	.st9{clip-path:url(#SVGID_8_);}
	.st10{fill:#252454;}
	.st11{fill-rule:evenodd;clip-rule:evenodd;fill:#A9123D;}
	.st12{fill:none;stroke:#A9123D;stroke-miterlimit:10;}
	.st13{fill:#8A8A8A;}
	.st14{opacity:0.3;fill:none;stroke:#E3E3E3;stroke-miterlimit:10;}
	.st15{fill:#66B054;}
	.st16{opacity:0.9;fill:#252454;}
	.st17{fill:#83C5D0;}
	.st18{fill:#263357;}
</style>
<g>
	<g id="Layer_1_1_">
		<g>
			<g>
				<path class="st7" d="M21.6,17c0.3-2.7,1.2-5.2,2.7-7.4C23,4.1,18.1,0,12.3,0C5.5,0,0,5.5,0,12.3c0,5.9,4.2,10.8,9.7,12
					C12.5,20.5,16.7,17.8,21.6,17z M7.4,15.2c0-0.4,0.3-0.8,0.8-0.8h2.5v-0.6l-0.3-0.6H8.2c-0.4,0-0.8-0.3-0.8-0.8
					c0-0.4,0.3-0.8,0.8-0.8h1.2L6.7,7.2C6.6,7,6.4,6.7,6.4,6.4c0-1.1,1-1.5,1.7-1.5c0.9,0,1.2,0.7,1.4,1l2.7,5.2L15,5.9
					c0.1-0.3,0.5-1,1.4-1c0.7,0,1.7,0.4,1.7,1.5c0,0.3-0.1,0.6-0.3,0.8l-2.7,4.4h1.2c0.4,0,0.8,0.3,0.8,0.8c0,0.4-0.3,0.8-0.8,0.8
					h-2.2l-0.3,0.6v0.6h2.5c0.4,0,0.8,0.3,0.8,0.8c0,0.4-0.3,0.8-0.8,0.8h-2.5v2c0,1-0.6,1.6-1.6,1.6c-1,0-1.6-0.7-1.6-1.6v-2H8.2
					C7.7,16,7.4,15.6,7.4,15.2z"/>
			</g>
			<g>
				<path class="st7" d="M36.8,6.1c-6.2,0-11.3,4.6-12.1,10.6c2.3,0,4.6,0.5,6.6,1.3c0.1-0.3,0.4-0.5,0.9-0.5h0.4
					c-0.4-0.6-0.6-1.4-0.6-2.2c0-2.5,2.2-4.3,5.1-4.3c3.6,0,5.3,1.9,5.3,3.5c0,0.9-0.6,1.4-1.5,1.4c-1.8,0-0.7-2.5-3.4-2.5
					c-1.2,0-2.3,0.7-2.3,2c0,0.7,0.3,1.4,0.7,2H38c0.8,0,1.3,0.3,1.3,1c0,0.7-0.4,1-1.3,1h-1.6c0.1,0.2,0.1,0.3,0.1,0.5
					c0,0.3-0.1,0.7-0.2,1c0.7,0.5,1.3,1.2,1.9,1.8c0.6,0.1,1.1,0.2,1.7,0.2c0.3,0,1.2-0.2,1.5-0.2c0.7,0,1.2,0.6,1.2,1.3
					c0,1.1-1,1.6-2.1,1.7c0.7,1.2,1.3,2.4,1.7,3.7c4.1-2,7-6.2,7-11.1C49.1,11.6,43.6,6.1,36.8,6.1z"/>
			</g>
			<g>
				<path class="st7" d="M25.4,36.6v5c1.5-0.1,3.1-0.8,3.1-2.5C28.5,37.4,26.7,36.9,25.4,36.6z"/>
			</g>
			<g>
				<path class="st7" d="M21,30.6c0,1.3,0.9,2,2.8,2.4v-4.5C22.1,28.5,21,29.5,21,30.6z"/>
			</g>
			<g>
				<path class="st7" d="M24.6,19.8c-8.5,0-15.3,6.9-15.3,15.3c0,8.5,6.9,15.3,15.3,15.3c8.5,0,15.3-6.9,15.3-15.3
					C39.9,26.7,33,19.8,24.6,19.8z M25.4,44.2v1.6c0,0.4-0.3,0.9-0.8,0.9c-0.4,0-0.8-0.4-0.8-0.9v-1.6c-4.3-0.1-6.4-2.7-6.4-4.7
					c0-1,0.6-1.6,1.6-1.6c2.8,0,0.6,3.5,4.8,3.7v-5.3c-3.8-0.7-6-2.3-6-5.2c0-3.4,2.9-5.2,6-5.3v-1.4c0-0.4,0.3-0.9,0.8-0.9
					c0.4,0,0.8,0.4,0.8,0.9v1.4c2,0.1,6,1.3,6,3.8c0,1-0.7,1.6-1.6,1.6c-1.6,0-1.6-2.7-4.4-2.8v4.8c3.3,0.7,6.3,1.7,6.3,5.6
					C31.7,42.3,29.1,44,25.4,44.2z"/>
			</g>
		</g>
	</g>
</g>
</svg>
