<?xml version="1.0" encoding="utf-8"?>
<!-- Generator: Adobe Illustrator 21.1.0, SVG Export Plug-In . SVG Version: 6.00 Build 0)  -->
<svg version="1.1" id="Capa_1" xmlns="http://www.w3.org/2000/svg" xmlns:xlink="http://www.w3.org/1999/xlink" x="0px" y="0px"
	 viewBox="0 0 27.8 18.8" style="enable-background:new 0 0 27.8 18.8;" xml:space="preserve">
<style type="text/css">
	.st0{fill:#FFFFFF;}
	.st1{fill:#3657A3;}
	.st2{opacity:0.2;}
	.st3{clip-path:url(#SVGID_2_);}
	.st4{opacity:0.5;}
	.st5{opacity:0.3;}
	.st6{fill:#0B255A;}
	.st7{fill:#A9123D;}
	.st8{opacity:0.27;fill:#D7D8D7;}
	.st9{clip-path:url(#SVGID_8_);}
	.st10{fill:#252454;}
	.st11{fill-rule:evenodd;clip-rule:evenodd;fill:#A9123D;}
	.st12{fill:none;stroke:#A9123D;stroke-miterlimit:10;}
	.st13{fill:#8A8A8A;}
	.st14{opacity:0.3;fill:none;stroke:#E3E3E3;stroke-miterlimit:10;}
	.st15{fill:#66B054;}
	.st16{opacity:0.9;fill:#252454;}
	.st17{fill:#83C5D0;}
	.st18{fill:#263357;}
</style>
<g>
	<g>
		<g>
			<path class="st7" d="M27.7,3.7l0-2.2C27.7,0.7,27,0,26.1,0L1.6,0.1C0.7,0.1,0,0.8,0,1.7l0,2.2L27.7,3.7z"/>
			<path class="st7" d="M0,7.9l0,9.3c0,0.9,0.7,1.6,1.6,1.6l24.6-0.1c0.9,0,1.6-0.7,1.6-1.6l0-9.3L0,7.9z M10.6,15.8
				c0,0.2-0.1,0.3-0.3,0.3l-6.9,0c-0.2,0-0.3-0.1-0.3-0.3l0-1.6c0-0.2,0.1-0.3,0.3-0.3l6.9,0c0.2,0,0.3,0.1,0.3,0.3L10.6,15.8z"/>
		</g>
	</g>
</g>
</svg>
