<?xml version="1.0" encoding="utf-8"?>
<!-- Generator: Adobe Illustrator 21.1.0, SVG Export Plug-In . SVG Version: 6.00 Build 0)  -->
<svg version="1.1" id="Capa_1" xmlns="http://www.w3.org/2000/svg" xmlns:xlink="http://www.w3.org/1999/xlink" x="0px" y="0px"
	 viewBox="0 0 30.8 29.8" style="enable-background:new 0 0 30.8 29.8;" xml:space="preserve">
<style type="text/css">
	.st0{fill:#FFFFFF;}
	.st1{fill:#3657A3;}
	.st2{opacity:0.2;}
	.st3{clip-path:url(#SVGID_2_);}
	.st4{opacity:0.5;}
	.st5{opacity:0.3;}
	.st6{fill:#0B255A;}
	.st7{fill:#A9123D;}
	.st8{opacity:0.27;fill:#D7D8D7;}
	.st9{clip-path:url(#SVGID_8_);}
	.st10{fill:#252454;}
	.st11{fill-rule:evenodd;clip-rule:evenodd;fill:#A9123D;}
	.st12{fill:none;stroke:#A9123D;stroke-miterlimit:10;}
	.st13{fill:#8A8A8A;}
	.st14{opacity:0.3;fill:none;stroke:#E3E3E3;stroke-miterlimit:10;}
	.st15{fill:#66B054;}
	.st16{opacity:0.9;fill:#252454;}
	.st17{fill:#83C5D0;}
	.st18{fill:#263357;}
</style>
<g>
	<g>
		<g>
			<path class="st7" d="M14.9,27.6c0-0.1-0.1-0.2,0-0.3c0-0.1,0-0.2-0.2-0.2c-0.1-0.1-0.2-0.1-0.2-0.1c0,0-0.1-0.1-0.3-0.1
				c-0.2,0-0.3,0-0.3,0h-0.3h-0.3H6.7c-1,0-1.9-0.4-2.6-1.1C3.3,25,3,24.1,3,23.1V6.7c0-1,0.4-1.9,1.1-2.6C4.8,3.3,5.7,3,6.7,3h7.5
				c0.2,0,0.4-0.1,0.5-0.2c0.1-0.1,0.2-0.3,0.2-0.5c0-0.2,0.1-0.4,0.1-0.5c0-0.2,0-0.4,0-0.6c0-0.2,0-0.4,0-0.5
				c0-0.2-0.1-0.4-0.2-0.5C14.5,0.1,14.4,0,14.2,0H6.7C4.9,0,3.3,0.7,2,2S0,4.9,0,6.7v16.4c0,1.8,0.7,3.4,2,4.7c1.3,1.3,2.9,2,4.7,2
				h7.5c0.2,0,0.4-0.1,0.5-0.2c0.1-0.1,0.2-0.3,0.2-0.5c0-0.2,0.1-0.4,0.1-0.5c0-0.2,0-0.4,0-0.6C14.9,27.8,14.9,27.7,14.9,27.6z"/>
			<path class="st7" d="M30.5,14.1l-10-10c-0.2-0.2-0.5-0.4-0.8-0.4c-0.3,0-0.6,0.1-0.8,0.4c-0.2,0.2-0.4,0.5-0.4,0.8v5.3h-8.3
				c-0.3,0-0.6,0.1-0.8,0.4c-0.2,0.2-0.4,0.5-0.4,0.8v7.1c0,0.3,0.1,0.6,0.4,0.8c0.2,0.2,0.5,0.3,0.8,0.3h8.3V25
				c0,0.3,0.1,0.6,0.4,0.8c0.2,0.2,0.5,0.3,0.8,0.3c0.3,0,0.6-0.1,0.8-0.3l10-10c0.2-0.2,0.4-0.5,0.4-0.8
				C30.8,14.6,30.7,14.3,30.5,14.1z"/>
		</g>
	</g>
</g>
</svg>
