<?xml version="1.0" encoding="utf-8"?>
<!-- Generator: Adobe Illustrator 21.1.0, SVG Export Plug-In . SVG Version: 6.00 Build 0)  -->
<svg version="1.1" id="Capa_1" xmlns="http://www.w3.org/2000/svg" xmlns:xlink="http://www.w3.org/1999/xlink" x="0px" y="0px"
	 viewBox="0 0 48.2 48.2" style="enable-background:new 0 0 48.2 48.2;" xml:space="preserve">
<style type="text/css">
	.st0{fill:#FFFFFF;}
	.st1{fill:#3657A3;}
	.st2{opacity:0.2;}
	.st3{clip-path:url(#SVGID_2_);}
	.st4{opacity:0.5;}
	.st5{opacity:0.3;}
	.st6{fill:#0B255A;}
	.st7{fill:#A9123D;}
	.st8{opacity:0.27;fill:#D7D8D7;}
	.st9{clip-path:url(#SVGID_8_);}
	.st10{fill:#252454;}
	.st11{fill-rule:evenodd;clip-rule:evenodd;fill:#A9123D;}
	.st12{fill:none;stroke:#A9123D;stroke-miterlimit:10;}
	.st13{fill:#8A8A8A;}
	.st14{opacity:0.3;fill:none;stroke:#E3E3E3;stroke-miterlimit:10;}
	.st15{fill:#66B054;}
	.st16{opacity:0.9;fill:#252454;}
	.st17{fill:#83C5D0;}
	.st18{fill:#263357;}
</style>
<g>
	<path class="st7" d="M14.5,20.1h15.7l-3.8,3.7c-0.3,0.3-0.4,0.6-0.4,1c0,0.4,0.2,0.7,0.4,1c0.3,0.3,0.7,0.4,1.1,0.4
		c0.4,0,0.8-0.2,1.1-0.4l6.3-6.3c0.6-0.6,0.6-1.5,0-2.1L28.5,11c-0.6-0.6-1.5-0.6-2.1,0c-0.6,0.6-0.6,1.6,0,2.2l3.8,3.9H14.5
		c-0.8,0-1.5,0.7-1.5,1.5C13,19.4,13.6,20.1,14.5,20.1z"/>
	<path class="st7" d="M33.7,30.1H18l3.8-4c0.6-0.6,0.6-1.6,0-2.2c-0.6-0.6-1.5-0.6-2.1-0.1l-6.3,6.3c-0.3,0.3-0.4,0.6-0.4,1
		c0,0.4,0.2,0.8,0.4,1l6.3,6.3c0.3,0.3,0.7,0.4,1.1,0.4c0.4,0,0.8-0.2,1.1-0.4c0.3-0.3,0.4-0.7,0.4-1.1c0-0.4-0.2-0.5-0.4-0.8
		L18,33.1h15.7c0.8,0,1.5-0.7,1.5-1.5S34.6,30.1,33.7,30.1z"/>
</g>
</svg>
