<?xml version="1.0" encoding="utf-8"?>
<!-- Generator: Adobe Illustrator 16.0.0, SVG Export Plug-In . SVG Version: 6.00 Build 0)  -->
<!DOCTYPE svg PUBLIC "-//W3C//DTD SVG 1.1//EN" "http://www.w3.org/Graphics/SVG/1.1/DTD/svg11.dtd">
<svg version="1.1" xmlns="http://www.w3.org/2000/svg" xmlns:xlink="http://www.w3.org/1999/xlink" x="0px" y="0px"
	 width="44.498px" height="45.319px" viewBox="0 0 44.498 45.319" enable-background="new 0 0 44.498 45.319" xml:space="preserve">
<g id="fondo">
</g>
<g id="Contenido">
	<g>
		<path fill="#004D9E" d="M10.042,38.77v-0.78c0-0.494-0.403-0.896-0.897-0.896H0.897C0.402,37.094,0,37.496,0,37.99v0.78
			c0,0.497,0.402,0.898,0.897,0.898h8.247C9.639,39.668,10.042,39.267,10.042,38.77z"/>
		<path fill="#004D9E" d="M10.042,28.254v-0.78c0-0.495-0.403-0.897-0.897-0.897H0.897C0.402,26.578,0,26.979,0,27.475v0.78
			c0,0.496,0.402,0.898,0.897,0.898h8.247C9.639,29.152,10.042,28.75,10.042,28.254z"/>
		<path fill="#004D9E" d="M10.042,17.823v-0.78c0-0.495-0.403-0.896-0.897-0.896H0.897C0.402,16.147,0,16.548,0,17.043v0.78
			c0,0.497,0.402,0.897,0.897,0.897h8.247C9.639,18.721,10.042,18.32,10.042,17.823z"/>
		<path fill="#004D9E" d="M40.048,0H9.996C7.642,0,5.703,1.855,5.561,4.174h3.584c1.403,0,2.545,1.143,2.545,2.545V7.5
			c0,1.403-1.142,2.544-2.545,2.544H5.546V14.5h3.599c1.403,0,2.545,1.142,2.545,2.544v0.78c0,1.403-1.142,2.544-2.545,2.544H5.546
			v4.562h3.599c1.403,0,2.545,1.141,2.545,2.544v0.78c0,1.403-1.142,2.545-2.545,2.545H5.546v4.646h3.599
			c1.403,0,2.545,1.142,2.545,2.544v0.78c0,1.404-1.142,2.545-2.545,2.545H5.576c0.251,2.215,2.142,3.951,4.42,3.951h30.052
			c2.447,0,4.45-2.003,4.45-4.451V4.451C44.498,2.002,42.495,0,40.048,0z"/>
		<path fill="#004D9E" d="M10.042,7.5V6.72c0-0.495-0.403-0.897-0.897-0.897H0.897C0.402,5.822,0,6.225,0,6.72V7.5
			c0,0.496,0.402,0.897,0.897,0.897h8.247C9.639,8.397,10.042,7.996,10.042,7.5z"/>
		<path fill="#FFFFFF" d="M40.764,36.544c0,2.579-2.109,4.688-4.688,4.688H18.901c-2.578,0-4.688-2.11-4.688-4.688V8.883
			c0-2.579,2.109-4.688,4.688-4.688h17.175c2.578,0,4.688,2.11,4.688,4.688V36.544z"/>
		<g>
			<path fill="#004D9E" d="M21.107,18.35c1.022,4.391,6.293,5.312,6.374,5.326v0l0.003,0l0.002,0v-0.001
				c0.084-0.013,5.386-0.941,6.377-5.325c0.655-2.895-0.316-8.936-6.389-8.936C21.401,9.414,20.432,15.459,21.107,18.35z"/>
			<path fill="#004D9E" d="M36.454,27.128c-0.558-1.757-1.148-1.63-1.152-1.629l-0.003-0.005l-2.692-0.641l0.388,1.292
				c-0.429,0.904-1.382,1.483-1.382,1.483l-0.001,0.001l-2.998,4.077l-0.48-3.076l0.547-2.208l-1.1-0.546l-0.055-0.029
				c0.361-0.034,3.065-0.31,4.336-1.228c1.363-0.986-0.687-1.135-0.687-1.135c-0.007,0.161-0.002,0.241-0.002,0.351
				c0,0.126-0.478,0.597-1.108,0.844c-1.352,0.525-2.537,0.427-2.578,0.424v0h-0.001c-0.001,0-0.004,0-0.004,0v0
				c-0.04,0.003-1.225,0.101-2.576-0.424c-0.631-0.247-1.108-0.718-1.108-0.844c0-0.11,0.004-0.19-0.002-0.351
				c0,0-2.05,0.149-0.686,1.135c1.334,0.965,4.246,1.22,4.369,1.23c0.003,0,0.006,0.001,0.006,0.001s0.004-0.001,0.007-0.001
				l-0.01,0.002l-0.003-0.002v0.003l-1.137,0.564l0.546,2.118l-0.476,3.226l-3.055-4.131c0,0-0.953-0.58-1.383-1.484l0.388-1.292
				l-2.692,0.641c0,0-0.589-0.13-1.148,1.634c-0.559,1.766-2.091,11.924-1.891,15.029c0,0-0.201,0.76,2.859,0.827
				c0,0,5.126,1.951,7.999,2.336c2.869-0.385,7.981-2.334,7.989-2.336v0.004c3.062-0.068,2.866-0.831,2.866-0.831
				C38.547,39.052,37.014,28.894,36.454,27.128z"/>
		</g>
	</g>
</g>
<g id="Action_Bar">
</g>
<g id="Status_Bar">
</g>
<g id="Layer_7">
</g>
<g id="Layer_6" display="none">
</g>
<g id="Screenshots">
</g>
</svg>
