<?xml version="1.0" encoding="utf-8"?>
<!-- Generator: Adobe Illustrator 16.0.0, SVG Export Plug-In . SVG Version: 6.00 Build 0)  -->
<!DOCTYPE svg PUBLIC "-//W3C//DTD SVG 1.1//EN" "http://www.w3.org/Graphics/SVG/1.1/DTD/svg11.dtd">
<svg version="1.1" xmlns="http://www.w3.org/2000/svg" xmlns:xlink="http://www.w3.org/1999/xlink" x="0px" y="0px"
	 width="38.579px" height="31.445px" viewBox="0 0 38.579 31.445" enable-background="new 0 0 38.579 31.445" xml:space="preserve">
<g id="fondo">
</g>
<g id="Contenido">
</g>
<g id="Action_Bar">
</g>
<g id="Status_Bar">
	<g>
		<rect x="3.476" y="3.571" fill="#004D9E" width="18.042" height="1.01"/>
		<path fill="#004D9E" d="M3.476,13.979v1.01h9.616c0.042-0.342,0.101-0.68,0.176-1.01H3.476z"/>
		<path fill="#004D9E" d="M3.476,19.183v1.01h10.38c-0.145-0.328-0.273-0.665-0.382-1.01H3.476z"/>
		<path fill="#004D9E" d="M3.476,25.396h15.67c-0.65-0.272-1.264-0.612-1.835-1.01H3.476V25.396z"/>
		<path fill="#004D9E" d="M16.333,8.776H3.476v1.009h11.881C15.658,9.426,15.985,9.088,16.333,8.776z"/>
		<path fill="#004D9E" d="M24.197,30.462H0.758V0.758h23.439v5.54c0.268,0.032,0.534,0.073,0.795,0.127V0H0v31.227h24.993v-5.265
			c-0.263,0.054-0.528,0.101-0.795,0.132V30.462z"/>
		<path fill="#004D9E" d="M38.49,29.978c0.072-0.237,0.099-0.483,0.084-0.728c0-0.006,0-0.013,0-0.019
			c-0.003-0.043-0.008-0.085-0.013-0.129c-0.002-0.017-0.002-0.034-0.005-0.05c-0.002-0.017-0.006-0.032-0.009-0.047
			c-0.003-0.017-0.006-0.033-0.009-0.048c-0.011-0.052-0.023-0.103-0.037-0.153c-0.002-0.009-0.004-0.018-0.007-0.027
			c-0.014-0.046-0.03-0.092-0.048-0.137c-0.066-0.176-0.158-0.344-0.274-0.5c-0.008-0.011-0.016-0.021-0.024-0.032
			c-0.013-0.016-0.024-0.033-0.038-0.049c-0.139-0.178-0.256-0.277-0.256-0.277s0.008,0.01,0.019,0.025l-5.085-5.086
			c-0.227-0.226-0.492-0.387-0.775-0.487l-1.541-1.556c0.789-1.311,1.243-2.844,1.243-4.481c0-4.811-3.914-8.725-8.724-8.725
			c-4.811,0-8.724,3.914-8.724,8.725c0,4.81,3.914,8.724,8.724,8.724c1.811,0,3.495-0.555,4.89-1.504l1.458,1.472
			c0.014,0.014,0.03,0.026,0.048,0.036c0.101,0.265,0.256,0.513,0.47,0.727l5.188,5.188c0.015,0.014,0.03,0.027,0.043,0.04
			c0.021,0.021,0.055,0.053,0.103,0.093c0.011,0.009,0.023,0.018,0.035,0.027c0.036,0.029,0.076,0.059,0.124,0.091
			c0.023,0.016,0.046,0.03,0.07,0.044c0.02,0.013,0.042,0.025,0.064,0.038c0.066,0.038,0.133,0.072,0.203,0.102
			c0.002,0.001,0.005,0.002,0.007,0.003c0.038,0.016,0.075,0.03,0.113,0.044c0.017,0.006,0.034,0.013,0.051,0.018
			c0.039,0.013,0.077,0.024,0.116,0.036c0.017,0.004,0.034,0.007,0.051,0.013c0.042,0.01,0.086,0.02,0.129,0.027
			c0.008,0.001,0.017,0.003,0.026,0.003c0.109,0.018,0.22,0.029,0.331,0.029c0.143,0,0.286-0.016,0.426-0.045
			c0.008-0.001,0.015-0.002,0.021-0.003c0.045-0.009,0.087-0.021,0.13-0.033c0.005-0.001,0.01-0.002,0.014-0.004
			C37.837,31.155,38.307,30.605,38.49,29.978z M22.989,9.728c3.565,0,6.466,2.901,6.466,6.467c0,3.565-2.901,6.466-6.466,6.466
			s-6.467-2.9-6.467-6.466C16.522,12.629,19.423,9.728,22.989,9.728z"/>
	</g>
</g>
<g id="Layer_7">
</g>
<g id="Layer_6" display="none">
</g>
<g id="Screenshots">
</g>
</svg>
