<?xml version="1.0" encoding="utf-8"?>
<!-- Generator: Adobe Illustrator 16.0.0, SVG Export Plug-In . SVG Version: 6.00 Build 0)  -->
<!DOCTYPE svg PUBLIC "-//W3C//DTD SVG 1.1//EN" "http://www.w3.org/Graphics/SVG/1.1/DTD/svg11.dtd">
<svg version="1.1" xmlns="http://www.w3.org/2000/svg" xmlns:xlink="http://www.w3.org/1999/xlink" x="0px" y="0px"
	 width="38.019px" height="40.646px" viewBox="0 0 38.019 40.646" enable-background="new 0 0 38.019 40.646" xml:space="preserve">
<g id="fondo">
</g>
<g id="Contenido">
</g>
<g id="Action_Bar">
</g>
<g id="Status_Bar">
	<g>
		<g>
			<path fill="#004D9E" d="M23.429,18.494c0.834-0.52,1.677-1.069,2.527-1.658C34.3,11.056,38.019,6.812,38.019,6.812L23.342,0
				c0,0-5.272,6.021-9.918,7.963C5.045,11.471,0,11.117,0,11.117l9.578,13.927c0,0,0.559-0.271,4.146-1.897
				c0,0,0.229-0.086,0.624-0.242l0.058-2.192c-0.153,0.066-0.307,0.133-0.465,0.201c0,0-0.023-0.021-0.068-0.057
				c-0.226-0.18-0.994-0.742-2.031-0.993c-1.243-0.299-2.596,0.138-2.596,0.138l-4.556-6.194c0,0,0.665-0.156,1.279-0.668
				c0.612-0.512,0.325-1.115,0.325-1.115s5.783-1.36,9.349-3.298c2.755-1.498,6.263-4.229,6.263-4.229s0.29,0.208,1.55,0.027
				c1.264-0.184,1.702-0.979,1.702-0.979l6.658,3.271c0,0-0.861,1.062-0.925,1.849c-0.06,0.79,0.774,1.313,0.774,1.313
				s-1.7,1.687-6.839,5.187c-1.175,0.803-1.981,1.307-3.146,1.967c0,0-0.128,0.082-0.399,0.238c0.455,0.629,0.705,1.346,0.809,1.92
				c0.227-0.127,0.451-0.255,0.671-0.385C23.013,18.757,23.234,18.621,23.429,18.494z"/>
			<path fill="#004D9E" d="M31.578,14.542L28.1,16.886c0,0,0.94,2.707-0.213,4.885c-1.151,2.175-6.157,2.446-6.157,2.446
				l-0.759-4.51c0,0-0.276-2.676-2.692-2.676c-0.076,0-0.154,0.002-0.235,0.008c-1.747,0.114-2.443,1.229-2.443,2.668l-0.141,5.33
				c0,0-1.819,2.808-2.285,4.49c-0.768,2.74,1.331,5.432,1.691,5.866c-1.321,0.065-1.872,0.134-1.872,0.134v4.875
				c0,0,1.686,0.244,7.316,0.244c6.547,0,9.733-0.244,9.733-0.244v-4.875c0,0-0.408-0.05-1.556-0.104
				c0.273-0.331,2.689-3.327,5.002-8.234C36.744,20.276,31.578,14.542,31.578,14.542z M29.342,39.745
				c-1.167,0.068-4.24,0.201-9.032,0.201c-3.731,0-5.681-0.109-6.615-0.179v-3.602c0.934-0.07,2.964-0.182,6.573-0.182
				c5.391,0,8.139,0.12,9.073,0.189V39.745z"/>
			<g>
				<path fill="#004D9E" d="M19.417,14.525c-0.624,0.359-1.288,0.683-1.99,0.962c-1.389-1.316-2.451-2.801-3.171-4.333
					c0.628-0.137,1.225-0.32,1.788-0.542c0.881-0.339,1.684-0.515,2.273,0.194c0.419,0.493,0.385,0.944-0.034,1.338
					c0.003,0.003,0.007,0.007,0.01,0.011c0.617-0.243,1.316-0.275,1.893,0.186C21.01,12.971,20.639,13.81,19.417,14.525z
					 M16.389,11.435c-0.149,0.061-0.302,0.12-0.455,0.175c0.2,0.317,0.417,0.629,0.65,0.936c0.148-0.059,0.293-0.12,0.438-0.185
					c0.515-0.232,0.6-0.489,0.36-0.794C17.151,11.27,16.843,11.248,16.389,11.435z M17.724,12.974
					c-0.189,0.092-0.382,0.18-0.578,0.265c0.28,0.323,0.58,0.639,0.897,0.945c0.185-0.088,0.367-0.18,0.545-0.274
					c0.543-0.292,0.692-0.592,0.36-0.894C18.625,12.714,18.258,12.711,17.724,12.974z"/>
				<path fill="#004D9E" d="M22.436,12.232c-0.551,0.552-1.12,0.755-1.451,0.824c-0.12-0.245-0.235-0.491-0.346-0.738
					c0.209-0.041,0.689-0.176,1.004-0.477c0.285-0.272,0.348-0.471,0.195-0.568c-0.184-0.119-0.552,0.202-1.186,0.397
					c-0.59,0.188-1.055,0.163-1.438-0.214c-0.509-0.513-0.272-1.153,0.345-1.676c0.459-0.395,0.822-0.543,1.011-0.602
					c0.096,0.243,0.196,0.484,0.3,0.725c-0.162,0.057-0.459,0.174-0.707,0.396c-0.249,0.221-0.284,0.375-0.164,0.484
					c0.157,0.142,0.469-0.058,0.896-0.254c0.59-0.263,1.042-0.411,1.564-0.105C23.143,10.81,23.182,11.47,22.436,12.232z"/>
			</g>
		</g>
	</g>
</g>
<g id="Layer_7">
</g>
<g id="Layer_6" display="none">
</g>
<g id="Screenshots">
</g>
</svg>
