<?xml version="1.0" encoding="utf-8"?>
<!-- Generator: Adobe Illustrator 16.0.0, SVG Export Plug-In . SVG Version: 6.00 Build 0)  -->
<!DOCTYPE svg PUBLIC "-//W3C//DTD SVG 1.1//EN" "http://www.w3.org/Graphics/SVG/1.1/DTD/svg11.dtd">
<svg version="1.1" xmlns="http://www.w3.org/2000/svg" xmlns:xlink="http://www.w3.org/1999/xlink" x="0px" y="0px"
	 width="19.819px" height="20.461px" viewBox="0 0 19.819 20.461" enable-background="new 0 0 19.819 20.461" xml:space="preserve">
<g id="fondo">
</g>
<g id="Contenido">
	<path fill="#004E9B" d="M19.338,17.601l-5.104-5.213c2.038-3.091,1.724-7.329-0.952-10.059C11.813,0.827,9.861,0,7.782,0
		c-2.08,0-4.035,0.827-5.505,2.329c-3.036,3.099-3.036,8.142,0,11.242c1.47,1.501,3.425,2.328,5.505,2.328
		c1.465,0,2.87-0.421,4.086-1.19l5.148,5.261c0.322,0.328,0.742,0.491,1.162,0.491s0.84-0.163,1.16-0.491
		C19.979,19.315,19.979,18.253,19.338,17.601z M4.599,11.2c-1.756-1.793-1.756-4.708,0-6.502c0.85-0.867,1.979-1.347,3.184-1.347
		c1.199,0,2.33,0.479,3.182,1.347c1.752,1.794,1.752,4.709,0,6.502c-0.852,0.867-1.982,1.347-3.182,1.347
		C6.577,12.547,5.448,12.067,4.599,11.2z"/>
</g>
<g id="Action_Bar">
</g>
<g id="Status_Bar">
</g>
<g id="Layer_7">
</g>
<g id="Layer_6" display="none">
</g>
<g id="Screenshots">
</g>
</svg>
