<?xml version="1.0" encoding="utf-8"?>
<!-- Generator: Adobe Illustrator 16.0.0, SVG Export Plug-In . SVG Version: 6.00 Build 0)  -->
<!DOCTYPE svg PUBLIC "-//W3C//DTD SVG 1.1//EN" "http://www.w3.org/Graphics/SVG/1.1/DTD/svg11.dtd">
<svg version="1.1" xmlns="http://www.w3.org/2000/svg" xmlns:xlink="http://www.w3.org/1999/xlink" x="0px" y="0px"
	 width="35.188px" height="39.939px" viewBox="0 0 35.188 39.939" enable-background="new 0 0 35.188 39.939" xml:space="preserve">
<g id="fondo">
</g>
<g id="Contenido">
</g>
<g id="Action_Bar">
</g>
<g id="Status_Bar">
	<g>
		<path fill="#004D9E" d="M25.953,39.06c-0.039,0.012-0.08,0.018-0.119,0.018c-0.048,0-0.096-0.008-0.141-0.025l-16.037-6.27
			L8.48,33.165l0.062,0.023C8.569,33.193,8.595,33.2,8.62,33.21l17.216,6.729l9.223-2.989c0.001-0.002,0.003-0.002,0.004-0.002
			l0.115-0.037L34,36.451L25.953,39.06z"/>
		<path fill="#004D9E" d="M22.9,36c-0.001,0-0.003,0-0.004,0c-0.001,0-0.002,0.141-0.004,0.14l-13.206-5.09l-1.198,0.424
			l0.063,0.042c0.026,0.005,0.052,0.021,0.077,0.03l17.216,6.588L35.069,35c0.002,0,0.003,0,0.004,0l0.115,0.109l-1.215-0.402
			l-4.55,1.513c-0.004,0.001-0.017,0.022-0.02,0.022l-0.478,0.166c-0.055,0.016-1.212,0.371-2.708,0.371
			c-2.108,0-2.975-0.504-3.011-0.519L22.9,36z"/>
		<path fill="#004D9E" d="M27.928,35.855c-0.697-0.337-1.465-0.813-1.867-1.072c-0.302,0.287-0.852,0.797-1.312,1.157
			c0.388,0.042,0.873,0.074,1.467,0.074C26.885,36.014,27.485,35.936,27.928,35.855z"/>
		<path fill="#004D9E" d="M22.128,31.107c0.294-0.095,0.212-0.209-0.199-0.349l-0.406-0.137l-0.873,0.281l0.379,0.129
			C21.481,31.182,21.822,31.205,22.128,31.107z"/>
		<path fill="#004D9E" d="M8.484,29.832l0.063,0.024c0.026,0.005,0.052,0.011,0.077,0.021l14.54,5.684
			c0.295,0.108,0.669,0.032,0.821-0.015c0.486-0.318,1.43-1.205,1.761-1.529c0.13-0.126,0.332-0.146,0.482-0.044
			c0.546,0.363,2.101,1.331,2.782,1.483c0.05-0.001,0.362-0.009,1.292-0.298c0.007-0.002,0.015,0.189,0.021,0.188L35.063,34
			c0.001,0,0.003,0,0.004,0l0.114-0.229l-17.344-6.875L8.484,29.832z M25.247,32.047c0.565,0.19,0.768,0.354,0.846,0.434
			l-0.933,0.082c-0.069-0.066-0.221-0.188-0.52-0.288c-0.299-0.101-0.502-0.116-0.631-0.075c-0.171,0.055,0.106,0.173,0.348,0.34
			c0.322,0.229,0.456,0.416-0.028,0.573c-0.631,0.201-1.454,0.132-2.284-0.149c-0.61-0.206-0.836-0.384-0.917-0.49l0.944-0.088
			c0.057,0.07,0.217,0.23,0.568,0.348c0.319,0.109,0.562,0.144,0.705,0.098c0.17-0.054-0.193-0.202-0.446-0.422
			c-0.242-0.208-0.256-0.36,0.167-0.497C23.632,31.729,24.49,31.79,25.247,32.047z M22.767,30.567
			c0.816,0.277,1.323,0.602,0.574,0.842c-0.523,0.168-1.106,0.153-1.691,0.025l-0.011,0.004c0.448,0.199,0.586,0.449,0.02,0.63
			c-0.795,0.256-1.829,0.097-2.839-0.246l-1.559-0.529l3.926-1.263L22.767,30.567z"/>
		<path fill="#004D9E" d="M20.676,31.669c0.33-0.107,0.263-0.229-0.2-0.387l-0.492-0.167l-0.948,0.306l0.451,0.153
			C19.946,31.73,20.34,31.778,20.676,31.669z"/>
		<path fill="#004D9E" d="M23,5H2v5h21V5z M23,10H4V6h19V10z"/>
		<path fill="#004D9E" d="M2,24h21V12H2V24z M4,13h19v10H4V13z"/>
		<path fill="#004D9E" d="M15.803,19.019c0-0.434-0.731-1.744-1.263-2.425c-0.531-0.682-1.117-2.228-1.368-2.228
			c-0.254,0-0.838,1.546-1.37,2.228c-0.291,0.371-0.64,0.929-0.897,1.43c-0.123,0.198-0.219,0.412-0.286,0.64
			c-0.051,0.146-0.082,0.268-0.082,0.355c0,0.009,0.002,0.016,0.002,0.025c-0.017,0.12-0.028,0.24-0.028,0.364
			c0,1.462,1.185,2.648,2.647,2.648s2.647-1.186,2.647-2.648c0-0.082-0.004-0.163-0.012-0.244
			C15.801,19.118,15.803,19.07,15.803,19.019z"/>
		<path fill="#004D9E" d="M7.003,14.093c-1.456,0-2.638,1.181-2.638,2.637c0,0.774,0.334,1.471,0.866,1.953
			c0.109,0.177,0.2,0.367,0.248,0.566c0.045,0.181,0.073,0.416,0.088,0.672c0.216,0.199,1.032,0.374,1.436,0.374
			c0.404,0,1.219-0.175,1.436-0.374c0.017-0.257,0.043-0.492,0.087-0.672c0.048-0.199,0.141-0.389,0.248-0.566
			c0.533-0.481,0.866-1.179,0.866-1.953C9.64,15.273,8.459,14.093,7.003,14.093z"/>
		<path fill="#004D9E" d="M7.003,20.692c-0.146,0-0.958-0.076-1.42-0.324c0.003,0.101,0.005,0.201,0.006,0.3
			C5.712,20.752,6.35,21,7.263,21.058C6.521,21.092,6,20.899,6,20.795c0,0.095,0,0.188,0,0.275c0,0.094,0.375,0.321,1.245,0.376
			c-0.726,0.034-1.302-0.148-1.553-0.255c0,0.101-0.053,0.194-0.056,0.278c0.159,0.098,0.776,0.313,1.619,0.366
			C6.542,21.867,6,21.693,6,21.587c0,0.061,0,0.115,0,0.159c0,0.402,0.903,0.599,1.211,0.599c0.309,0,1.315-0.197,1.315-0.599
			c0-0.242-0.07-0.82-0.05-1.378C8.013,20.616,7.15,20.692,7.003,20.692z"/>
		<path fill="#004D9E" d="M21.052,19.392C21.023,19.363,21,19.374,21,19.422v-0.001c0,0.001-0.204,0.003-0.207,0.003
			c-0.007,0.003-0.113,0.005-0.119,0.007c-0.669,0.25-1.218,0.191-1.218,0.191c-0.139-0.103-0.291-0.284-0.406-0.542
			c-0.115-0.258-0.228-0.565-0.311-0.92c-0.066-0.31-0.118-0.615-0.146-0.918c-0.028-0.303-0.033-0.546-0.009-0.73
			c0.008-0.056,0.014-0.094,0.022-0.116c0.031,0.021,0.078,0.039,0.142,0.054c0.062,0.013,0.096,0.021,0.102,0.021
			c0.09,0.012,0.179,0.015,0.27,0.011c0.087-0.005,0.14-0.012,0.153-0.021l0.893-0.12c0.092-0.021,0.139-0.076,0.139-0.16
			l-0.01-1.774c-0.006-0.045-0.032-0.083-0.08-0.112l-0.942-0.258c-0.013-0.003-0.025-0.019-0.036-0.022
			c-0.001,0-0.002-0.016-0.003-0.016s-0.003,0-0.005,0c-0.004,0-0.009,0-0.014,0c-0.002,0-0.005,0-0.007,0s-0.004,0.015-0.006,0.016
			c-0.069,0.005-0.217,0.042-0.445,0.095c-0.099,0.016-0.285,0.114-0.559,0.286c-0.276,0.172-0.423,0.305-0.447,0.393
			c-0.023,0.087-0.067,0.288-0.131,0.601c-0.064,0.315-0.107,0.553-0.128,0.713c-0.067,0.506-0.091,0.978-0.069,1.415
			c0.021,0.438,0.079,0.85,0.175,1.235c0.155,0.626,0.369,1.157,0.645,1.597c0.331,0.528,0.788,0.988,1.369,1.377
			c0.13,0.079,0.315,0.135,0.553,0.167c0.184,0.023,0.343,0.033,0.48,0.026c0.039-0.002,0.08-0.007,0.123-0.012
			c0.631-0.07,0.875-0.264,0.875-0.264c0.13-0.072,0.227-0.153,0.292-0.245c0.031-0.023,0.127-0.061,0.088-0.111L21.052,19.392z"/>
		<polygon fill="#004D9E" points="1,1 26,1 26,27.995 26.724,28.563 26.341,0 0,0 0,4.169 0,32 7.137,32 7.137,32 1,32 		"/>
	</g>
</g>
<g id="Layer_7">
</g>
<g id="Layer_6" display="none">
</g>
<g id="Screenshots">
</g>
</svg>
