<?xml version="1.0" encoding="utf-8"?>
<!-- Generator: Adobe Illustrator 16.0.0, SVG Export Plug-In . SVG Version: 6.00 Build 0)  -->
<!DOCTYPE svg PUBLIC "-//W3C//DTD SVG 1.1//EN" "http://www.w3.org/Graphics/SVG/1.1/DTD/svg11.dtd">
<svg version="1.1" id="Layer_1" xmlns="http://www.w3.org/2000/svg" xmlns:xlink="http://www.w3.org/1999/xlink" x="0px" y="0px"
	 width="54.974px" height="56.707px" viewBox="0 0 54.974 56.707" enable-background="new 0 0 54.974 56.707" xml:space="preserve">
<g>
	<g>
		<defs>
			<circle id="SVGID_18_" cx="27.487" cy="27.487" r="27.487"/>
		</defs>
		<use xlink:href="#SVGID_18_"  overflow="visible" fill="#142E54"/>
		<clipPath id="SVGID_2_">
			<use xlink:href="#SVGID_18_"  overflow="visible"/>
		</clipPath>
		<path clip-path="url(#SVGID_2_)" fill="#FFFFFF" d="M32.855,14.244c-11.723,0-21.229,9.504-21.229,21.23
			c0,11.729,9.507,21.232,21.229,21.232c11.731,0,21.238-9.503,21.238-21.232C54.094,23.748,44.587,14.244,32.855,14.244z
			 M45.17,37.353c0,0-9.991,2.318-14.005,2.495c-4.017,0.178-2.857-4.105-2.857-4.105l2.5-12.486
			c0.163-0.947,0.747-1.185,1.104-1.185c0.702,0,0.944,1.185,0.944,1.185l1.898,10.26l9.972,1.707
			C47.133,36.023,45.17,37.353,45.17,37.353z"/>
	</g>
</g>
</svg>
