<?xml version="1.0" encoding="utf-8"?>
<!-- Generator: Adobe Illustrator 16.0.0, SVG Export Plug-In . SVG Version: 6.00 Build 0)  -->
<!DOCTYPE svg PUBLIC "-//W3C//DTD SVG 1.1//EN" "http://www.w3.org/Graphics/SVG/1.1/DTD/svg11.dtd">
<svg version="1.1" xmlns="http://www.w3.org/2000/svg" xmlns:xlink="http://www.w3.org/1999/xlink" x="0px" y="0px"
	 width="36.906px" height="36.906px" viewBox="0 0 36.906 36.906" enable-background="new 0 0 36.906 36.906" xml:space="preserve">
<g id="fondo">
</g>
<g id="Contenido">
</g>
<g id="Action_Bar">
</g>
<g id="Status_Bar">
	<g>
		<path fill="#004D9E" d="M18.454,0C8.262,0,0,8.262,0,18.453c0,10.191,8.262,18.453,18.454,18.453
			c10.19,0,18.452-8.262,18.452-18.453C36.906,8.262,28.644,0,18.454,0z M17.08,6.334c0-0.649,0.531-1.179,1.18-1.179h0.294
			c0.648,0,1.179,0.53,1.179,1.179V17.33c0,0.649-0.531,1.179-1.179,1.179H18.26c-0.649,0-1.18-0.53-1.18-1.179V6.334z
			 M26.38,26.394c-2.13,2.129-4.961,3.303-7.973,3.303c-3.012,0-5.843-1.173-7.973-3.303c-2.13-2.129-3.303-4.961-3.303-7.973
			c0-3.012,1.173-5.844,3.303-7.974c1.266-1.266,2.792-2.201,4.464-2.747v2.36c-3.332,1.391-5.556,4.649-5.556,8.36
			c0,4.998,4.066,9.064,9.064,9.064c4.999,0,9.065-4.066,9.065-9.064c0-3.711-2.224-6.969-5.556-8.36v-2.36
			c1.673,0.546,3.199,1.481,4.464,2.747c2.13,2.13,3.303,4.961,3.303,7.974C29.683,21.433,28.51,24.264,26.38,26.394z"/>
	</g>
</g>
<g id="Layer_7">
</g>
<g id="Layer_6" display="none">
</g>
<g id="Screenshots">
</g>
</svg>
