<?xml version="1.0" encoding="utf-8"?>
<!-- Generator: Adobe Illustrator 16.0.0, SVG Export Plug-In . SVG Version: 6.00 Build 0)  -->
<!DOCTYPE svg PUBLIC "-//W3C//DTD SVG 1.1//EN" "http://www.w3.org/Graphics/SVG/1.1/DTD/svg11.dtd">
<svg version="1.1" xmlns="http://www.w3.org/2000/svg" xmlns:xlink="http://www.w3.org/1999/xlink" x="0px" y="0px"
	 width="35.176px" height="35.574px" viewBox="0 0 35.176 35.574" enable-background="new 0 0 35.176 35.574" xml:space="preserve">
<g id="fondo">
</g>
<g id="Contenido">
</g>
<g id="Action_Bar">
</g>
<g id="Status_Bar">
	<g>
		<g>
			<g>
				<path fill="#004E9B" d="M32.6,0H17.708c-1.424,0-2.576,1.16-2.576,2.576v30.239c0,1.423,1.152,2.575,2.576,2.575H32.6
					c1.423,0,2.576-1.152,2.576-2.575V2.576C35.176,1.16,34.023,0,32.6,0L32.6,0z M21.481,1.569h7.347
					c0.189,0,0.34,0.277,0.34,0.616c0,0.348-0.151,0.625-0.34,0.625h-7.347c-0.19,0-0.335-0.277-0.335-0.625
					C21.146,1.846,21.291,1.569,21.481,1.569L21.481,1.569z M25.158,32.845c-0.908,0-1.651-0.736-1.651-1.642
					c0-0.908,0.743-1.646,1.651-1.646c0.899,0,1.637,0.738,1.637,1.646C26.795,32.108,26.057,32.845,25.158,32.845L25.158,32.845z
					 M33.243,27.209H17.065V4.353h16.177V27.209z M33.243,27.209"/>
			</g>
		</g>
		<g>
			<g>
				<path fill="#004E9B" d="M27.68,14.913L20.75,9.201c-0.129-0.106-0.309-0.128-0.46-0.059c-0.151,0.071-0.247,0.226-0.247,0.393
					v3.011c-3.364,0.123-5.677,1.309-6.88,3.532c-1.035,1.916-1.025,4.187-1.016,5.689v0.347c0,0.196,0.132,0.37,0.325,0.421
					c0.035,0.009,0.074,0.013,0.11,0.013c0.154,0,0.298-0.081,0.375-0.219c2.348-4.14,4.281-4.339,7.083-4.349v3.001
					c0,0.167,0.096,0.321,0.25,0.392c0.155,0.071,0.332,0.048,0.463-0.058l6.928-5.732c0.1-0.083,0.157-0.206,0.157-0.334
					S27.78,14.997,27.68,14.913L27.68,14.913z M20.911,20.059"/>
			</g>
		</g>
		<g>
			<path fill="#004E9B" d="M7.198,21.177C3.222,21.177,0,24.399,0,28.375c0,3.976,3.222,7.198,7.198,7.198
				c3.975,0,7.198-3.223,7.198-7.198C14.396,24.399,11.173,21.177,7.198,21.177z M6.417,29.745
				c-0.105,0.175-0.237,0.323-0.397,0.442c-0.179,0.137-0.391,0.231-0.634,0.282c-0.244,0.051-0.508,0.076-0.793,0.076h-2.53v-5.614
				h2.713c0.685,0.01,1.17,0.209,1.455,0.598c0.172,0.238,0.258,0.524,0.258,0.857c0,0.343-0.086,0.619-0.26,0.827
				c-0.097,0.117-0.24,0.224-0.428,0.319c0.286,0.104,0.502,0.27,0.648,0.496s0.219,0.5,0.219,0.823
				C6.668,29.183,6.585,29.481,6.417,29.745z M10.667,30.295c-0.306,0.26-0.78,0.39-1.421,0.39c-0.654,0-1.136-0.137-1.448-0.413
				c-0.312-0.276-0.468-0.626-0.468-1.054h1.101c0.022,0.193,0.073,0.33,0.149,0.411c0.135,0.145,0.386,0.217,0.75,0.217
				c0.215,0,0.384-0.031,0.51-0.095c0.127-0.063,0.19-0.159,0.19-0.286c0-0.122-0.052-0.214-0.153-0.278
				c-0.102-0.063-0.48-0.172-1.136-0.327c-0.471-0.117-0.803-0.263-0.997-0.438c-0.192-0.173-0.29-0.421-0.29-0.746
				c0-0.384,0.151-0.713,0.453-0.988c0.302-0.275,0.727-0.414,1.272-0.414c0.519,0,0.942,0.104,1.27,0.312
				c0.327,0.207,0.514,0.564,0.563,1.072H9.928c-0.015-0.14-0.055-0.25-0.119-0.332c-0.12-0.147-0.323-0.22-0.611-0.22
				c-0.237,0-0.405,0.037-0.506,0.11c-0.1,0.073-0.151,0.16-0.151,0.259c0,0.124,0.054,0.214,0.161,0.271
				c0.107,0.058,0.485,0.158,1.133,0.3c0.432,0.102,0.756,0.255,0.972,0.46c0.213,0.209,0.321,0.469,0.321,0.782
				C11.128,29.699,10.975,30.035,10.667,30.295z M11.908,30.545v-1.139h1.154v1.139H11.908z"/>
			<path fill="#004E9B" d="M5.126,28.169c-0.133-0.062-0.319-0.094-0.561-0.095H3.184v1.497h1.363c0.243,0,0.433-0.033,0.568-0.099
				c0.246-0.123,0.369-0.355,0.369-0.701C5.484,28.479,5.365,28.277,5.126,28.169z"/>
			<path fill="#004E9B" d="M5.142,27.005c0.151-0.092,0.228-0.257,0.228-0.493c0-0.261-0.101-0.435-0.301-0.518
				c-0.173-0.059-0.395-0.088-0.664-0.088H3.184v1.238h1.364C4.792,27.145,4.989,27.098,5.142,27.005z"/>
		</g>
	</g>
</g>
<g id="Layer_7">
</g>
<g id="Layer_6" display="none">
</g>
<g id="Screenshots">
</g>
</svg>
