<?xml version="1.0" encoding="utf-8"?>
<!-- Generator: Adobe Illustrator 16.0.0, SVG Export Plug-In . SVG Version: 6.00 Build 0)  -->
<!DOCTYPE svg PUBLIC "-//W3C//DTD SVG 1.1//EN" "http://www.w3.org/Graphics/SVG/1.1/DTD/svg11.dtd">
<svg version="1.1" xmlns="http://www.w3.org/2000/svg" xmlns:xlink="http://www.w3.org/1999/xlink" x="0px" y="0px"
	 width="36.262px" height="43.722px" viewBox="0 0 36.262 43.722" enable-background="new 0 0 36.262 43.722" xml:space="preserve">
<g id="fondo">
</g>
<g id="Contenido">
</g>
<g id="Action_Bar">
</g>
<g id="Status_Bar">
	<g>
		<path fill="#004D9E" d="M28.518,0c0,0,6.828,9.069,0.229,14.247l-1.97-0.962L29.2,20.57l7.062-2.245l-1.741-0.917
			C34.521,17.408,39.333,3.986,28.518,0z"/>
		<path fill="#004D9E" d="M29.2,22.678c-0.184,0-0.363-0.024-0.535-0.069v14.735H7.597v-4.897c-2.582,3.978,1.784,9.945,1.832,10.01
			c0.28,0.371,0.419,0.818,0.419,1.266h18.67c1.57,0,2.844-1.273,2.844-2.845V22.094l-1.523,0.485
			C29.63,22.645,29.416,22.678,29.2,22.678z M18.144,42.319c-1.236,0-2.236-1.002-2.236-2.238c0-1.234,1-2.236,2.236-2.236
			c1.235,0,2.237,1.002,2.237,2.236C20.38,41.317,19.379,42.319,18.144,42.319z"/>
		<path fill="#004D9E" d="M17.964,39.129c0-0.093,0.075-0.168,0.166-0.168s0.167,0.075,0.167,0.168v1.107
			c0,0.092-0.075,0.166-0.167,0.166s-0.166-0.074-0.166-0.166V39.129z M18.13,41.287c-0.619,0-1.122-0.503-1.122-1.122
			c0-0.246,0.078-0.479,0.225-0.675c0.055-0.074,0.16-0.088,0.233-0.032c0.073,0.056,0.088,0.159,0.032,0.233
			c-0.103,0.137-0.157,0.301-0.157,0.474c0,0.437,0.354,0.79,0.789,0.79c0.436,0,0.79-0.354,0.79-0.79
			c0-0.173-0.055-0.338-0.159-0.475c-0.055-0.074-0.041-0.179,0.032-0.234c0.074-0.055,0.178-0.04,0.233,0.033
			c0.147,0.195,0.227,0.43,0.227,0.676C19.253,40.784,18.75,41.287,18.13,41.287z"/>
		<path fill="#004D9E" d="M18.794,39.456c-0.073,0.056-0.087,0.16-0.032,0.234c0.104,0.137,0.159,0.302,0.159,0.475
			c0,0.437-0.354,0.79-0.79,0.79c-0.435,0-0.789-0.354-0.789-0.79c0-0.173,0.054-0.337,0.157-0.474
			c0.056-0.074,0.041-0.178-0.032-0.233c-0.073-0.056-0.178-0.042-0.233,0.032c-0.147,0.196-0.225,0.429-0.225,0.675
			c0,0.619,0.503,1.122,1.122,1.122c0.619,0,1.123-0.503,1.123-1.122c0-0.246-0.079-0.48-0.227-0.676
			C18.972,39.416,18.868,39.401,18.794,39.456z"/>
		<path fill="#004D9E" d="M18.13,40.402c0.091,0,0.167-0.074,0.167-0.166v-1.107c0-0.093-0.075-0.168-0.167-0.168
			s-0.166,0.075-0.166,0.168v1.107C17.964,40.328,18.039,40.402,18.13,40.402z"/>
		<g>
			<path fill="#004D9E" d="M26.833,1.265c-0.28-0.37-0.419-0.817-0.419-1.265H7.744C6.172,0,4.9,1.273,4.9,2.845v18.783l1.524-0.484
				c0.208-0.066,0.422-0.1,0.639-0.1c0.184,0,0.362,0.024,0.534,0.07V4.337h20.948C27.792,2.576,26.855,1.295,26.833,1.265z
				 M20.558,3.031h-4.709c-0.305,0-0.551-0.248-0.551-0.552c0-0.306,0.247-0.553,0.551-0.553h4.709c0.305,0,0.552,0.247,0.552,0.553
				C21.11,2.783,20.863,3.031,20.558,3.031z"/>
		</g>
		<path fill="#004D9E" d="M7.744,43.722c0,0-6.827-9.068-0.229-14.246l1.97,0.962l-2.422-7.285L0,25.397l1.742,0.916
			C1.742,26.313-3.07,39.735,7.744,43.722z"/>
		<g>
			<path fill="#004D9E" d="M14.899,25.713h-3.83V14.861h3.878c2.004,0,3.812,0.635,3.812,2.704c0,1.45-0.75,2.217-1.922,2.509v0.033
				c1.271,0.196,2.362,1.043,2.362,2.606C19.2,24.914,17.375,25.713,14.899,25.713z M14.655,16.85H13.66v2.411h0.929
				c1.108,0,1.597-0.391,1.597-1.238C16.187,17.208,15.665,16.85,14.655,16.85z M14.867,21.102H13.66v2.623h1.108
				c1.124,0,1.775-0.358,1.775-1.287C16.544,21.525,16.007,21.102,14.867,21.102z"/>
			<path fill="#004D9E" d="M21.917,25.738c-1.499,0-2.428-0.424-2.916-0.75l0.799-1.71c0.325,0.212,1.107,0.651,1.97,0.651
				c0.782,0,1.206-0.195,1.206-0.586c0-0.474-0.978-0.57-2.102-1.141c-1.06-0.521-1.646-1.141-1.646-2.313
				c0-1.564,1.255-2.525,3.113-2.525c1.384,0,2.231,0.391,2.623,0.619l-0.815,1.662c-0.325-0.18-0.961-0.473-1.694-0.473
				c-0.733,0-1.026,0.229-1.026,0.586c0,0.474,0.766,0.57,1.678,0.929c1.238,0.506,2.085,1.092,2.085,2.428
				C25.192,24.858,23.954,25.738,21.917,25.738z"/>
		</g>
	</g>
</g>
<g id="Layer_7">
</g>
<g id="Layer_6" display="none">
</g>
<g id="Screenshots">
</g>
</svg>
