<?xml version="1.0" encoding="utf-8"?>
<!-- Generator: Adobe Illustrator 16.0.0, SVG Export Plug-In . SVG Version: 6.00 Build 0)  -->
<!DOCTYPE svg PUBLIC "-//W3C//DTD SVG 1.1//EN" "http://www.w3.org/Graphics/SVG/1.1/DTD/svg11.dtd">
<svg version="1.1" xmlns="http://www.w3.org/2000/svg" xmlns:xlink="http://www.w3.org/1999/xlink" x="0px" y="0px"
	 width="36.769px" height="36.77px" viewBox="0 0 36.769 36.77" enable-background="new 0 0 36.769 36.77" xml:space="preserve">
<g id="fondo">
</g>
<g id="Contenido">
</g>
<g id="Action_Bar">
</g>
<g id="Status_Bar">
	<g>
		<path fill="#004D9E" d="M18.385,0C8.23,0,0,8.231,0,18.385C0,28.539,8.23,36.77,18.385,36.77c10.152,0,18.384-8.231,18.384-18.385
			C36.769,8.231,28.537,0,18.385,0z M18.463,34.698c-9.077,0-16.436-7.359-16.436-16.436c0-9.078,7.358-16.438,16.436-16.438
			c9.078,0,16.437,7.359,16.437,16.438C34.899,27.338,27.541,34.698,18.463,34.698z"/>
		<path fill="#004D9E" d="M17.996,5.155c-1.771,0-2.927,1.192-2.892,2.782c-0.035,1.519,1.121,2.747,2.855,2.747
			c1.806,0,2.963-1.228,2.963-2.747C20.887,6.347,19.766,5.155,17.996,5.155z"/>
		<rect x="15.25" y="12.852" fill="#004D9E" width="5.492" height="17.67"/>
	</g>
</g>
<g id="Layer_7">
</g>
<g id="Layer_6" display="none">
</g>
<g id="Screenshots">
</g>
</svg>
