<?xml version="1.0" encoding="utf-8"?>
<!-- Generator: Adobe Illustrator 16.0.0, SVG Export Plug-In . SVG Version: 6.00 Build 0)  -->
<!DOCTYPE svg PUBLIC "-//W3C//DTD SVG 1.1//EN" "http://www.w3.org/Graphics/SVG/1.1/DTD/svg11.dtd">
<svg version="1.1" id="Layer_1" xmlns="http://www.w3.org/2000/svg" xmlns:xlink="http://www.w3.org/1999/xlink" x="0px" y="0px"
	 width="74.633px" height="96.01px" viewBox="0 0 74.633 96.01" enable-background="new 0 0 74.633 96.01" xml:space="preserve">
<g>
	<path fill="#FFFFFF" d="M53.625,36.376c-3.667,0.659-5.945,2.595-7.274,4.271c-3.071,3.869-3.584,9.305-2.728,12.978
		c0.541,2.308,1.733,4.375,3.493,6.08c-0.404,0.347-0.707,0.764-0.895,1.245l-1.076,0.115c-0.603,0.064-1.142,0.328-1.553,0.723
		l-0.032,0.008c-1.288,0.119-2.928,1.034-4.001,4.43c-0.896,2.823-2.866,15.638-3.134,22.376h17.199V36.376z"/>
	<path fill="#FFFFFF" d="M53.625,36.371c-3.686,0.654-5.972,2.597-7.306,4.276c-3.072,3.869-3.584,9.305-2.728,12.978
		c0.54,2.308,1.733,4.375,3.493,6.08c-0.404,0.347-0.707,0.764-0.895,1.245l-1.076,0.115c-0.603,0.064-1.142,0.328-1.553,0.723
		l-0.032,0.008c-1.288,0.119-2.928,1.034-4.001,4.43c-0.896,2.823-2.866,15.638-3.134,22.376h17.23V36.371z"/>
	<linearGradient id="SVGID_1_" gradientUnits="userSpaceOnUse" x1="0" y1="44.3013" x2="53.625" y2="44.3013">
		<stop  offset="0" style="stop-color:#A1B0B7"/>
		<stop  offset="0.0398" style="stop-color:#B2BDC2"/>
		<stop  offset="0.1097" style="stop-color:#CBD1D5"/>
		<stop  offset="0.1797" style="stop-color:#DEE1E3"/>
		<stop  offset="0.2491" style="stop-color:#EBEBEC"/>
		<stop  offset="0.3173" style="stop-color:#EFEFF0"/>
		<stop  offset="0.4199" style="stop-color:#E5E6E8"/>
		<stop  offset="0.5923" style="stop-color:#CBD0D5"/>
		<stop  offset="0.8119" style="stop-color:#A5B1B9"/>
		<stop  offset="1" style="stop-color:#8396A1"/>
	</linearGradient>
	<path fill="url(#SVGID_1_)" d="M6.546,86.927c-3.064,0-5.548-2.484-5.548-5.547V7.169c0-3.064,2.483-5.548,5.548-5.548H47.08
		c3.062,0,5.547,2.484,5.547,5.548v29.409c0.321-0.082,0.653-0.153,0.998-0.213V5.764C53.625,2.581,51.046,0,47.863,0h-42.1
		C2.579,0,0,2.581,0,5.764v77.074c0,3.183,2.579,5.765,5.764,5.765h30.595c0.021-0.524,0.052-1.084,0.092-1.675H6.546z"/>
	<linearGradient id="SVGID_2_" gradientUnits="userSpaceOnUse" x1="4.882812e-04" y1="44.2744" x2="53.6254" y2="44.2744">
		<stop  offset="0" style="stop-color:#A1B0B7"/>
		<stop  offset="0.0398" style="stop-color:#B2BDC2"/>
		<stop  offset="0.1097" style="stop-color:#CBD1D5"/>
		<stop  offset="0.1797" style="stop-color:#DEE1E3"/>
		<stop  offset="0.2491" style="stop-color:#EBEBEC"/>
		<stop  offset="0.3173" style="stop-color:#EFEFF0"/>
		<stop  offset="0.4199" style="stop-color:#E5E6E8"/>
		<stop  offset="0.5923" style="stop-color:#CBD0D5"/>
		<stop  offset="0.8119" style="stop-color:#A5B1B9"/>
		<stop  offset="1" style="stop-color:#8396A1"/>
	</linearGradient>
	<path fill="url(#SVGID_2_)" d="M47.08,1.622H6.546c-3.064,0-5.548,2.484-5.548,5.548V81.38c0,3.063,2.483,5.547,5.548,5.547H36.45
		c0.224-3.277,0.729-7.462,1.284-11.251H5.466V8.789h42.693v29.981c1.136-0.905,2.601-1.718,4.468-2.192V7.169
		C52.627,4.105,50.143,1.622,47.08,1.622z"/>
	<linearGradient id="SVGID_3_" gradientUnits="userSpaceOnUse" x1="26.8125" y1="86.9272" x2="26.8125" y2="1.6216">
		<stop  offset="0" style="stop-color:#0B1E42"/>
		<stop  offset="0.0034" style="stop-color:#0C1F44"/>
		<stop  offset="0.0567" style="stop-color:#192F5F"/>
		<stop  offset="0.1034" style="stop-color:#1F3974"/>
		<stop  offset="0.1411" style="stop-color:#213E81"/>
		<stop  offset="0.1652" style="stop-color:#224086"/>
		<stop  offset="0.4089" style="stop-color:#2D55A6"/>
		<stop  offset="0.546" style="stop-color:#274A93"/>
		<stop  offset="0.6875" style="stop-color:#234389"/>
		<stop  offset="0.8087" style="stop-color:#224086"/>
	</linearGradient>
	<path fill="url(#SVGID_3_)" d="M47.08,1.622H6.546c-3.064,0-5.548,2.484-5.548,5.548V81.38c0,3.063,2.483,5.547,5.548,5.547H36.45
		c0.224-3.277,0.729-7.462,1.284-11.251H5.466V8.789h42.693v29.981c1.136-0.905,2.601-1.718,4.468-2.192V7.169
		C52.627,4.105,50.143,1.622,47.08,1.622z"/>
	<linearGradient id="SVGID_4_" gradientUnits="userSpaceOnUse" x1="22.5293" y1="81.2261" x2="29.6191" y2="81.2261">
		<stop  offset="0" style="stop-color:#EEEEEF;stop-opacity:0.1"/>
		<stop  offset="0.0051" style="stop-color:#E8E8EA;stop-opacity:0.1053"/>
		<stop  offset="0.1027" style="stop-color:#A3A3B3;stop-opacity:0.2077"/>
		<stop  offset="0.2036" style="stop-color:#75758C;stop-opacity:0.3134"/>
		<stop  offset="0.3057" style="stop-color:#545671;stop-opacity:0.4204"/>
		<stop  offset="0.4092" style="stop-color:#3A415E;stop-opacity:0.5289"/>
		<stop  offset="0.5146" style="stop-color:#273151;stop-opacity:0.6394"/>
		<stop  offset="0.6226" style="stop-color:#182748;stop-opacity:0.7526"/>
		<stop  offset="0.735" style="stop-color:#0E2044;stop-opacity:0.8704"/>
		<stop  offset="0.8586" style="stop-color:#0B1E42"/>
	</linearGradient>
	<circle fill-rule="evenodd" clip-rule="evenodd" fill="url(#SVGID_4_)" cx="26.838" cy="81.225" r="3.545"/>
	<g>
		
			<image overflow="visible" opacity="0.6" width="66" height="67" xlink:href="47B01F2A4FFF8B26.png"  transform="matrix(0.24 0 0 0.24 18.9663 73.3818)">
		</image>
		<g>
			<g>
				<path fill="#109FDA" d="M28.628,80.024c-0.111-0.148-0.321-0.177-0.472-0.065c-0.147,0.112-0.177,0.323-0.065,0.473
					c0.211,0.278,0.322,0.612,0.322,0.963c0,0.882-0.719,1.602-1.602,1.602c-0.882,0-1.6-0.719-1.6-1.602
					c0-0.351,0.11-0.685,0.319-0.962c0.113-0.149,0.083-0.36-0.064-0.473c-0.149-0.111-0.362-0.083-0.473,0.065
					c-0.299,0.399-0.456,0.871-0.456,1.37c0,1.253,1.02,2.274,2.273,2.274c1.256,0,2.275-1.021,2.275-2.274
					C29.087,80.896,28.929,80.421,28.628,80.024z"/>
				<path fill="#109FDA" d="M26.812,81.875c0.185,0,0.338-0.15,0.338-0.336v-2.247c0-0.188-0.153-0.339-0.338-0.339
					c-0.186,0-0.337,0.151-0.337,0.339v2.247C26.475,81.725,26.626,81.875,26.812,81.875z"/>
			</g>
		</g>
	</g>
	<linearGradient id="SVGID_5_" gradientUnits="userSpaceOnUse" x1="13.9175" y1="86.9272" x2="13.9175" y2="1.6216">
		<stop  offset="0.0419" style="stop-color:#263C88"/>
		<stop  offset="0.445" style="stop-color:#082342;stop-opacity:0"/>
		<stop  offset="1" style="stop-color:#263C88"/>
	</linearGradient>
	<path fill-rule="evenodd" clip-rule="evenodd" fill="url(#SVGID_5_)" d="M26.837,1.622H6.547c-3.065,0-5.549,2.484-5.549,5.548
		V81.38c0,3.063,2.483,5.547,5.549,5.547h20.29V1.622z"/>
	<linearGradient id="SVGID_6_" gradientUnits="userSpaceOnUse" x1="26.96" y1="6.144" x2="26.96" y2="3.9048">
		<stop  offset="0" style="stop-color:#FFFFFF;stop-opacity:0.1"/>
		<stop  offset="0.027" style="stop-color:#E1E0E5;stop-opacity:0.1283"/>
		<stop  offset="0.1221" style="stop-color:#A09FB0;stop-opacity:0.228"/>
		<stop  offset="0.2204" style="stop-color:#73738A;stop-opacity:0.331"/>
		<stop  offset="0.3198" style="stop-color:#535570;stop-opacity:0.4352"/>
		<stop  offset="0.4207" style="stop-color:#3A405E;stop-opacity:0.541"/>
		<stop  offset="0.5234" style="stop-color:#273151;stop-opacity:0.6486"/>
		<stop  offset="0.6287" style="stop-color:#182648;stop-opacity:0.7589"/>
		<stop  offset="0.7382" style="stop-color:#0E2044;stop-opacity:0.8737"/>
		<stop  offset="0.8586" style="stop-color:#0B1E42"/>
	</linearGradient>
	<path fill="url(#SVGID_6_)" d="M32.85,5.023c0,0.617-0.501,1.121-1.119,1.121h-9.541c-0.618,0-1.119-0.504-1.119-1.121l0,0
		c0-0.619,0.501-1.119,1.119-1.119h9.541C32.349,3.905,32.85,4.405,32.85,5.023L32.85,5.023z"/>
	<path fill="#FFFFFF" d="M43.493,61.796l0.032-0.008c0.411-0.396,0.95-0.659,1.553-0.723l1.076-0.115
		c0.188-0.481,0.49-0.898,0.895-1.245c-1.76-1.705-2.953-3.772-3.493-6.081c-0.855-3.673-0.344-9.109,2.728-12.978
		c0.488-0.616,1.108-1.267,1.876-1.877V8.789H5.466v66.887h32.269c0.633-4.313,1.332-8.109,1.757-9.45
		C40.565,62.83,42.205,61.915,43.493,61.796z"/>
	<g>
		<defs>
			<rect id="SVGID_7_" x="36.793" y="37.925" width="37.84" height="52.674"/>
		</defs>
		<clipPath id="SVGID_8_">
			<use xlink:href="#SVGID_7_"  overflow="visible"/>
		</clipPath>
		<g clip-path="url(#SVGID_8_)">
			<g>
				<linearGradient id="SVGID_9_" gradientUnits="userSpaceOnUse" x1="49.7539" y1="70.7529" x2="62.9141" y2="70.7529">
					<stop  offset="0" style="stop-color:#89CEEB"/>
					<stop  offset="0.0298" style="stop-color:#92D1EC"/>
					<stop  offset="0.1556" style="stop-color:#B3DDF1"/>
					<stop  offset="0.279" style="stop-color:#C9E5F5"/>
					<stop  offset="0.3979" style="stop-color:#D6EBF7"/>
					<stop  offset="0.5073" style="stop-color:#DBECF8"/>
					<stop  offset="0.5947" style="stop-color:#CEE5F5"/>
					<stop  offset="0.7539" style="stop-color:#ACD2EF"/>
					<stop  offset="0.9512" style="stop-color:#79BAE6"/>
				</linearGradient>
				<path fill="url(#SVGID_9_)" d="M56.354,76.728l6.56-8.912c0,0-1.802,1.265-4.258,1.364l-0.561-4.4l-1.701,0.187l-1.691-0.19
					l-0.697,4.362c-2.445-0.205-4.252-1.322-4.252-1.322L56.354,76.728v0.001V76.728v0.001V76.728z"/>
				<linearGradient id="SVGID_10_" gradientUnits="userSpaceOnUse" x1="68.7832" y1="78.3599" x2="73.666" y2="78.3599">
					<stop  offset="0" style="stop-color:#0B1E42"/>
					<stop  offset="0.2947" style="stop-color:#192F5F"/>
					<stop  offset="0.6847" style="stop-color:#224086"/>
				</linearGradient>
				<path fill="url(#SVGID_10_)" d="M68.783,64.428c0,0,0.95-0.217,1.843,2.598c0.888,2.812,3.331,18.999,3.012,23.948
					c0,0,0.31,1.213-4.569,1.322c0,0-0.386-11.094,1.01-21.71L68.783,64.428z"/>
				
					<linearGradient id="SVGID_11_" gradientUnits="userSpaceOnUse" x1="314.5459" y1="78.3604" x2="309.665" y2="78.3604" gradientTransform="matrix(-1 0 0 1 353.5391 0)">
					<stop  offset="0" style="stop-color:#2D55A6"/>
					<stop  offset="0.2048" style="stop-color:#2C529F"/>
					<stop  offset="0.4826" style="stop-color:#264891"/>
					<stop  offset="0.6772" style="stop-color:#224086"/>
					<stop  offset="0.717" style="stop-color:#213D7E"/>
					<stop  offset="0.8349" style="stop-color:#1E3469"/>
					<stop  offset="0.9335" style="stop-color:#1B2E5D"/>
					<stop  offset="1" style="stop-color:#1A2C58"/>
				</linearGradient>
				<path fill="url(#SVGID_11_)" d="M43.873,64.428c0,0-0.949-0.217-1.839,2.598c-0.891,2.812-3.334,18.999-3.014,23.948
					c0,0-0.309,1.213,4.569,1.322c0,0,0.384-11.089-1.012-21.706L43.873,64.428z"/>
				<linearGradient id="SVGID_12_" gradientUnits="userSpaceOnUse" x1="54.7031" y1="65.5576" x2="47.5518" y2="65.5576">
					<stop  offset="0" style="stop-color:#E7F4FB"/>
					<stop  offset="0.5854" style="stop-color:#FFFFFF"/>
					<stop  offset="0.8244" style="stop-color:#D9EDF9"/>
					<stop  offset="0.878" style="stop-color:#D6EBF8"/>
					<stop  offset="0.9115" style="stop-color:#CDE5F6"/>
					<stop  offset="0.9394" style="stop-color:#BEDDF3"/>
					<stop  offset="0.9644" style="stop-color:#A9D1EF"/>
					<stop  offset="0.987" style="stop-color:#8DC3EA"/>
					<stop  offset="1" style="stop-color:#79BAE6"/>
				</linearGradient>
				<path fill="url(#SVGID_12_)" d="M48.623,61.976l-1.071,3.479c0,0,1.292,3.228,6.454,3.685l0.697-4.362
					c0,0-2.052-0.291-3.855-0.986C49.622,63.319,48.545,62.643,48.623,61.976z"/>
				<linearGradient id="SVGID_13_" gradientUnits="userSpaceOnUse" x1="42.5781" y1="79.7021" x2="56.3564" y2="79.7021">
					<stop  offset="0" style="stop-color:#2D55A6"/>
					<stop  offset="0.8511" style="stop-color:#224086"/>
				</linearGradient>
				<path fill="url(#SVGID_13_)" d="M48.17,63.396l-4.297,1.032l-1.295,6.163c0,0,0.628,4.489,0.861,9.898
					c0.189,4.398,0.226,9.162,0.152,11.8c0,0,8.168,3.109,12.745,3.72l0.02-19.28l-6.603-8.912c0,0-1.518-0.922-2.202-2.362
					L48.17,63.396z"/>
				
					<radialGradient id="SVGID_14_" cx="-46015.9766" cy="-24550.5352" r="681.1364" gradientTransform="matrix(0.0192 0 0 0.0192 936.88 516.2253)" gradientUnits="userSpaceOnUse">
					<stop  offset="0" style="stop-color:#F1F1F2"/>
					<stop  offset="0.1915" style="stop-color:#EAECEE"/>
					<stop  offset="0.4719" style="stop-color:#D6DFE3"/>
					<stop  offset="0.8052" style="stop-color:#B8CCD2"/>
					<stop  offset="1" style="stop-color:#A4C0C7"/>
				</radialGradient>
				<path fill="url(#SVGID_14_)" d="M56.325,38.792c-9.679,0-11.221,9.635-10.147,14.242c1.631,6.995,10.144,8.476,10.144,8.476
					s8.605-1.491,10.188-8.476C67.553,48.418,66.006,38.792,56.325,38.792z"/>
				<linearGradient id="SVGID_15_" gradientUnits="userSpaceOnUse" x1="50.4512" y1="61.4292" x2="62.2109" y2="61.4292">
					<stop  offset="0" style="stop-color:#A1B0B7"/>
					<stop  offset="0.0087" style="stop-color:#9FAEB5"/>
					<stop  offset="0.3117" style="stop-color:#778993"/>
					<stop  offset="0.5882" style="stop-color:#5D737F"/>
					<stop  offset="0.8267" style="stop-color:#4E6775"/>
					<stop  offset="1" style="stop-color:#486371"/>
				</linearGradient>
				<path fill="url(#SVGID_15_)" d="M56.321,61.51c-3.919-0.887-5.87-2.452-5.87-2.452v2.757c0.934,1.344,3.053,1.807,4.472,1.946
					c0.824,0.079,1.385,0.03,1.408,0.03c0.064,0.002,4.404,0.149,5.88-1.976v-2.761c0,0-0.27,0.198-0.804,0.512
					C60.489,60.103,58.753,60.938,56.321,61.51z"/>
				<path fill="#79BAE6" d="M62.211,61.211c-0.009,0.258-0.001,0.385-0.001,0.56c0,0.2-0.763,0.952-1.768,1.342
					c-2.153,0.837-4.043,0.682-4.106,0.677l0,0h-0.005h-0.002l0,0c-0.066,0.005-1.955,0.16-4.108-0.677
					c-1.22-0.475-1.77-1.264-1.77-1.301c0-0.177,0.003-0.338-0.002-0.601c0,0-3.271,0.25-1.099,1.821
					c0.918,0.665,2.395,1.129,3.766,1.438c0.556,0.124,1.122,0.251,1.587,0.307c1.072,0.127,1.691,0.19,1.691,0.19
					c1.237-0.129,1.723-0.173,2.366-0.295c1.546-0.294,3.382-0.801,4.559-1.604c0.605-0.414,0.753-0.801,0.719-1.05
					C63.942,61.337,62.211,61.211,62.211,61.211z"/>
				<linearGradient id="SVGID_16_" gradientUnits="userSpaceOnUse" x1="58.0957" y1="65.5986" x2="65.0879" y2="65.5986">
					<stop  offset="0.0293" style="stop-color:#FFFFFF"/>
					<stop  offset="0.4049" style="stop-color:#DBECF8"/>
					<stop  offset="0.5193" style="stop-color:#D6E9F7"/>
					<stop  offset="0.6466" style="stop-color:#C8E1F4"/>
					<stop  offset="0.7801" style="stop-color:#B1D5F0"/>
					<stop  offset="0.9171" style="stop-color:#91C5EA"/>
					<stop  offset="1" style="stop-color:#79BAE6"/>
				</linearGradient>
				<path fill="url(#SVGID_16_)" d="M65.088,65.485l-1.05-3.468c0.08,0.667-0.997,1.342-2.225,1.814
					c-1.805,0.694-3.718,0.949-3.718,0.949l0.561,4.4c0,0,0.738,0.026,2.062-0.346c1.319-0.372,2.189-1.017,2.189-1.017
					s1.404-0.84,2.132-2.239L65.088,65.485z"/>
				<linearGradient id="SVGID_17_" gradientUnits="userSpaceOnUse" x1="54.689" y1="79.7026" x2="71.192" y2="79.7026">
					<stop  offset="0" style="stop-color:#2D55A6"/>
					<stop  offset="0.3272" style="stop-color:#264891"/>
					<stop  offset="0.6076" style="stop-color:#224086"/>
					<stop  offset="0.6915" style="stop-color:#213E80"/>
					<stop  offset="0.8283" style="stop-color:#203870"/>
					<stop  offset="1" style="stop-color:#1A2C58"/>
				</linearGradient>
				<path fill="url(#SVGID_17_)" d="M64.491,63.396l4.292,1.032l1.295,6.165c0,0-0.536,4.147-0.815,9.035
					c-0.266,4.601-0.272,9.868-0.194,12.662c0,0-8.156,3.109-12.734,3.721l0.021-19.282l6.552-8.909c0,0,1.52-0.924,2.201-2.363
					L64.491,63.396z"/>
				<linearGradient id="SVGID_18_" gradientUnits="userSpaceOnUse" x1="55.1753" y1="60.4551" x2="68.6761" y2="64.4203">
					<stop  offset="0" style="stop-color:#A1B0B7"/>
					<stop  offset="0.8195" style="stop-color:#A9BEC4;stop-opacity:0"/>
				</linearGradient>
				<path fill="url(#SVGID_18_)" d="M50.451,59.058l4.053,4.601l3.592,1.121c0,0,1.913-0.267,3.69-0.94
					c1.9-0.72,2.37-1.456,2.235-1.877c-0.207-0.657-1.814-0.745-1.814-0.745s0.003-1.231,0.003-2.162c0,0-0.321,0.226-0.81,0.511
					c-0.466,0.273-1.084,0.597-1.727,0.855c-0.452,0.184-0.858,0.35-1.227,0.47c-1.438,0.475-2.126,0.617-2.126,0.617
					S53.282,60.986,50.451,59.058z"/>
				<linearGradient id="SVGID_19_" gradientUnits="userSpaceOnUse" x1="51.1758" y1="45.6543" x2="54.0084" y2="60.5999">
					<stop  offset="0" style="stop-color:#A4C0C7;stop-opacity:0.3"/>
					<stop  offset="0.0471" style="stop-color:#9BB6BE;stop-opacity:0.3329"/>
					<stop  offset="0.3383" style="stop-color:#758D99;stop-opacity:0.5368"/>
					<stop  offset="0.6041" style="stop-color:#5C7581;stop-opacity:0.7229"/>
					<stop  offset="0.8335" style="stop-color:#4D6775;stop-opacity:0.8834"/>
					<stop  offset="1" style="stop-color:#486371"/>
				</linearGradient>
				<path opacity="0.6" fill="url(#SVGID_19_)" d="M56.321,61.51c0,0-3.069-0.517-5.881-2.453c-1.873-1.292-3.628-3.214-4.287-6.033
					c-1.074-4.607,0.469-14.241,10.147-14.241L56.321,61.51z"/>
				<linearGradient id="SVGID_20_" gradientUnits="userSpaceOnUse" x1="52.0522" y1="74.1279" x2="54.7827" y2="78.0545">
					<stop  offset="0" style="stop-color:#0B1E42"/>
					<stop  offset="0.1149" style="stop-color:#0B1F42;stop-opacity:0.8465"/>
					<stop  offset="0.7487" style="stop-color:#0A2343;stop-opacity:0"/>
				</linearGradient>
				<polygon opacity="0.8" fill="url(#SVGID_20_)" points="49.683,74.311 54.078,78.988 56.356,76.729 				"/>
				<linearGradient id="SVGID_21_" gradientUnits="userSpaceOnUse" x1="60.1074" y1="75.2441" x2="61.3511" y2="78.4234">
					<stop  offset="0" style="stop-color:#0B1E42"/>
					<stop  offset="0.1149" style="stop-color:#0B1F42;stop-opacity:0.8465"/>
					<stop  offset="0.7487" style="stop-color:#0A2343;stop-opacity:0"/>
				</linearGradient>
				<polyline opacity="0.8" fill="url(#SVGID_21_)" points="56.354,76.729 58.429,78.988 64.857,76.31 62.982,74.311 56.354,76.728 
									"/>
				<linearGradient id="SVGID_22_" gradientUnits="userSpaceOnUse" x1="47.3296" y1="68.9463" x2="47.5182" y2="72.1564">
					<stop  offset="0" style="stop-color:#0B1E42"/>
					<stop  offset="0.1149" style="stop-color:#0B1F42;stop-opacity:0.8465"/>
					<stop  offset="0.7487" style="stop-color:#0A2343;stop-opacity:0"/>
				</linearGradient>
				<polygon opacity="0.8" fill="url(#SVGID_22_)" points="47.115,71.56 49.708,71.908 49.715,70.173 45.035,69.26 				"/>
				<linearGradient id="SVGID_23_" gradientUnits="userSpaceOnUse" x1="63.1392" y1="65.9028" x2="60.1119" y2="74.2752">
					<stop  offset="0" style="stop-color:#0B1E42"/>
					<stop  offset="0.3008" style="stop-color:#1B2D61"/>
					<stop  offset="0.6847" style="stop-color:#263C88"/>
				</linearGradient>
				<polygon fill="url(#SVGID_23_)" points="62.907,67.812 62.972,74.297 56.356,76.728 				"/>
				<linearGradient id="SVGID_24_" gradientUnits="userSpaceOnUse" x1="62.9238" y1="73.2368" x2="64.9922" y2="73.2368">
					<stop  offset="0" style="stop-color:#0B1E42"/>
					<stop  offset="0.1149" style="stop-color:#0B1F42;stop-opacity:0.8465"/>
					<stop  offset="0.7487" style="stop-color:#0A2343;stop-opacity:0"/>
				</linearGradient>
				<polygon opacity="0.8" fill="url(#SVGID_24_)" points="62.924,70.164 64.992,72.409 64.857,76.31 62.982,74.311 				"/>
				<linearGradient id="SVGID_25_" gradientUnits="userSpaceOnUse" x1="53.2935" y1="67.9272" x2="56.327" y2="68.3321">
					<stop  offset="0" style="stop-color:#204181;stop-opacity:0.5"/>
					<stop  offset="0.9058" style="stop-color:#204181;stop-opacity:0"/>
				</linearGradient>
				<polygon fill="url(#SVGID_25_)" points="54.006,69.139 56.337,71.708 56.395,64.967 54.703,64.777 				"/>
				<g>
					<g>
						<linearGradient id="SVGID_26_" gradientUnits="userSpaceOnUse" x1="57.1426" y1="70.2148" x2="59.0574" y2="70.0234">
							<stop  offset="0.0942" style="stop-color:#204181;stop-opacity:0.5"/>
							<stop  offset="0.7906" style="stop-color:#204181;stop-opacity:0"/>
						</linearGradient>
						<polygon fill="url(#SVGID_26_)" points="58.632,69.162 58.238,65.887 57.369,69.378 58.131,74.334 59.086,73 						"/>
					</g>
				</g>
				<linearGradient id="SVGID_27_" gradientUnits="userSpaceOnUse" x1="60.6938" y1="68.3721" x2="61.829" y2="70.0044">
					<stop  offset="0" style="stop-color:#204181;stop-opacity:0.5"/>
					<stop  offset="1" style="stop-color:#204181;stop-opacity:0"/>
				</linearGradient>
				<path opacity="0.7" fill="url(#SVGID_27_)" d="M58.656,69.18l1.813,1.955l2.438-3.317c0,0-0.765,0.552-1.918,0.922
					C59.64,69.175,58.656,69.18,58.656,69.18z"/>
				<linearGradient id="SVGID_28_" gradientUnits="userSpaceOnUse" x1="46.0405" y1="69.8701" x2="48.1936" y2="65.6728">
					<stop  offset="0" style="stop-color:#2D55A6"/>
					<stop  offset="0.0353" style="stop-color:#2D54A4"/>
					<stop  offset="0.9511" style="stop-color:#263C88"/>
				</linearGradient>
				<path fill="url(#SVGID_28_)" d="M48.17,63.396l-2.787,0.296l-0.348,5.568l4.68,0.913l0.039-2.348c0,0-1.513-0.94-2.202-2.37
					L48.17,63.396z"/>
				<linearGradient id="SVGID_29_" gradientUnits="userSpaceOnUse" x1="66.1099" y1="69.1582" x2="66.3036" y2="72.4553">
					<stop  offset="0" style="stop-color:#0B1E42"/>
					<stop  offset="0.1149" style="stop-color:#0B1F42;stop-opacity:0.8465"/>
					<stop  offset="0.7487" style="stop-color:#0A2343;stop-opacity:0"/>
				</linearGradient>
				<polyline opacity="0.8" fill="url(#SVGID_29_)" points="62.924,70.164 67.603,69.253 69.479,71.253 64.992,72.409 
					62.924,70.164 				"/>
				<linearGradient id="SVGID_30_" gradientUnits="userSpaceOnUse" x1="66.9785" y1="63.1221" x2="64.3511" y2="71.3693">
					<stop  offset="0" style="stop-color:#0B1E42"/>
					<stop  offset="0.3008" style="stop-color:#1B2D61"/>
					<stop  offset="0.6847" style="stop-color:#263C88"/>
				</linearGradient>
				<path fill="url(#SVGID_30_)" d="M64.469,63.386l2.787,0.229l0.346,5.637l-4.678,0.912l-0.017-2.347c0,0,1.491-0.941,2.181-2.372
					L64.469,63.386z"/>
				<linearGradient id="SVGID_31_" gradientUnits="userSpaceOnUse" x1="49.6826" y1="72.2769" x2="56.3545" y2="72.2769">
					<stop  offset="0" style="stop-color:#2D55A6"/>
					<stop  offset="0.1985" style="stop-color:#2C51A0"/>
					<stop  offset="0.4678" style="stop-color:#294793"/>
					<stop  offset="0.6772" style="stop-color:#263C88"/>
					<stop  offset="0.7222" style="stop-color:#25397E"/>
					<stop  offset="0.838" style="stop-color:#203369"/>
					<stop  offset="0.9348" style="stop-color:#1B2E5D"/>
					<stop  offset="1" style="stop-color:#1A2C58"/>
				</linearGradient>
				<polygon fill="url(#SVGID_31_)" points="49.754,67.825 49.683,74.311 56.354,76.729 				"/>
				<g>
					<linearGradient id="SVGID_32_" gradientUnits="userSpaceOnUse" x1="54.5195" y1="70.8491" x2="58.2363" y2="70.8491">
						<stop  offset="0" style="stop-color:#2D55A6"/>
						<stop  offset="0.2048" style="stop-color:#2C529F"/>
						<stop  offset="0.4826" style="stop-color:#264891"/>
						<stop  offset="0.6772" style="stop-color:#224086"/>
						<stop  offset="0.7593" style="stop-color:#213D7D"/>
						<stop  offset="0.913" style="stop-color:#1E3366"/>
						<stop  offset="1" style="stop-color:#1A2C58"/>
					</linearGradient>
					<path fill="url(#SVGID_32_)" d="M58.131,74.336l-0.764-4.957l0.869-3.491l-1.846-0.919l-1.871,0.929l0.898,3.482l-0.791,5.018
						l1.728,2.332L58.131,74.336z"/>
					<g>
						<path fill="#FFFFFF" d="M55.26,70.408c0.661-0.396,1.455-0.633,2.166-0.651l-0.038-0.259
							c-0.687,0.023-1.429,0.235-2.081,0.591L55.26,70.408z"/>
						<path fill="#FFFFFF" d="M54.893,72.726c0.845-0.618,1.862-1.098,2.82-1.101l-0.041-0.261
							c-0.926,0.013-1.896,0.439-2.726,1.008L54.893,72.726z"/>
						<path fill="#F15A22" d="M54.709,73.926c0.907-0.803,2.06-1.521,3.116-1.554l-0.018-0.13c-1.044,0.04-2.164,0.711-3.07,1.484
							L54.709,73.926z"/>
						<path fill="#0B1E42" d="M55.121,71.23l-0.055,0.355c0.787-0.551,1.732-1.01,2.509-0.863l-0.041-0.272
							C56.764,70.349,55.882,70.735,55.121,71.23z"/>
						<path fill="#FFFFFF" d="M55.024,74.929c0.917-0.703,2.108-1.317,2.961-1.51l-0.05-0.332c-0.908,0.202-2.147,0.84-3.109,1.578
							L55.024,74.929z"/>
						<path fill="#FFFFFF" d="M56.196,76.511c0.189-0.162,0.533-0.419,0.73-0.55l0.485-0.668c-0.436,0.208-1.013,0.609-1.413,0.954
							L56.196,76.511z"/>
						<path fill="#0B1E42" d="M55.662,75.793c0.703-0.6,1.542-1.076,2.23-1.168l0.222-0.305l-0.004-0.091
							c-0.832,0.018-1.82,0.6-2.649,1.293L55.662,75.793z"/>
						<path fill="#FFFFFF" d="M54.683,66.519l0.138,0.534c0.776,0.74,1.745,1.367,2.748,1.55l0.066-0.271
							C56.528,68.127,55.472,67.361,54.683,66.519z"/>
						<path fill="#FFFFFF" d="M55.861,65.242l-0.257,0.127c0.198,0.209,0.407,0.412,0.623,0.607c0.472,0.43,1.066,0.934,1.706,1.148
							l0.069-0.276c-0.591-0.206-1.131-0.68-1.579-1.069C56.229,65.609,56.044,65.428,55.861,65.242z"/>
						<path fill="#F15A22" d="M57.104,65.329l-0.404-0.201c0.407,0.427,0.912,0.9,1.463,1.091l0.033-0.136
							C57.791,65.94,57.428,65.645,57.104,65.329z"/>
						<path fill="#0B1E42" d="M55.135,65.603l-0.259,0.129c0.365,0.365,0.76,0.703,1.168,1.018c0.499,0.387,1.1,0.81,1.742,0.974
							l0.066-0.268c-0.66-0.162-1.28-0.648-1.79-1.042C55.741,66.167,55.428,65.894,55.135,65.603z"/>
					</g>
				</g>
			</g>
			<linearGradient id="SVGID_33_" gradientUnits="userSpaceOnUse" x1="67.4502" y1="67.6152" x2="69.5637" y2="67.7094">
				<stop  offset="0" style="stop-color:#0B1E42"/>
				<stop  offset="0.1149" style="stop-color:#0B1F42;stop-opacity:0.8465"/>
				<stop  offset="0.7487" style="stop-color:#0A2343;stop-opacity:0"/>
			</linearGradient>
			<polygon opacity="0.8" fill="url(#SVGID_33_)" points="67.283,64.061 68.783,64.428 70.078,70.586 69.477,71.251 67.602,69.252 
							"/>
		</g>
	</g>
	<g>
		<g>
			<path fill="#FFE632" d="M37.772,28.388c0.462,4.325-3.438,8.629-9.83,11.731c-0.953,6.123-4.743,11.304-9.98,14.152
				c13.584-0.501,24.381-8.491,24.381-18.267c0-5.86-3.876-11.075-9.904-14.425C35.535,23.356,37.482,25.689,37.772,28.388z"/>
			<linearGradient id="SVGID_34_" gradientUnits="userSpaceOnUse" x1="28.3369" y1="34.6821" x2="30.5103" y2="46.4777">
				<stop  offset="0" style="stop-color:#FBC5AD"/>
				<stop  offset="1" style="stop-color:#F15A22"/>
			</linearGradient>
			<path fill="url(#SVGID_34_)" d="M37.772,28.388c0.462,4.325-3.438,8.629-9.83,11.731c-0.953,6.123-4.743,11.304-9.98,14.152
				c13.584-0.501,24.381-8.491,24.381-18.267c0-5.86-3.876-11.075-9.904-14.425C35.535,23.356,37.482,25.689,37.772,28.388z"/>
		</g>
		<g>
			<path fill="#109FDA" d="M37.772,28.388c-0.29-2.699-2.237-5.032-5.334-6.809c-0.591-0.325-1.201-0.639-1.832-0.928
				c-4.033-1.86-8.848-2.946-14.016-2.946c-1.123,0-2.229,0.05-3.312,0.15c-0.011,0-0.017,0-0.024,0h-0.003h-0.004
				c-0.062,0.006-0.114,0.057-0.114,0.121c0,0.058,0.044,0.102,0.099,0.109l0,0c8.576,2.078,14.946,9.792,14.946,19.004
				c0,1.031-0.08,2.041-0.236,3.028C34.334,37.017,38.234,32.712,37.772,28.388z"/>
			<linearGradient id="SVGID_35_" gradientUnits="userSpaceOnUse" x1="31.1836" y1="42.4897" x2="24.3572" y2="19.2801">
				<stop  offset="0" style="stop-color:#F2F4F8"/>
				<stop  offset="1" style="stop-color:#263C88"/>
			</linearGradient>
			<path fill="url(#SVGID_35_)" d="M37.772,28.388c-0.29-2.699-2.237-5.032-5.334-6.809c-0.591-0.325-1.201-0.639-1.832-0.928
				c-4.033-1.86-8.848-2.946-14.016-2.946c-1.123,0-2.229,0.05-3.312,0.15c-0.011,0-0.017,0-0.024,0h-0.003h-0.004
				c-0.062,0.006-0.114,0.057-0.114,0.121c0,0.058,0.044,0.102,0.099,0.109l0,0c8.576,2.078,14.946,9.792,14.946,19.004
				c0,1.031-0.08,2.041-0.236,3.028C34.334,37.017,38.234,32.712,37.772,28.388z"/>
		</g>
		<g>
			<path fill="#FFE632" d="M12.099,44.431c-1.36,0.144-3.799,0.269-4.024,0.284c-0.277,0.018-0.312,0.293-0.015,0.33
				c2.767,0.357,8.387,2.88,9.896,9.227h0.007c5.237-2.849,9.027-8.03,9.98-14.152C23.614,42.226,18.139,43.782,12.099,44.431z"/>
			<linearGradient id="SVGID_36_" gradientUnits="userSpaceOnUse" x1="27.1382" y1="49.5732" x2="9.213" y2="39.3995">
				<stop  offset="0" style="stop-color:#FDD5C5"/>
				<stop  offset="1" style="stop-color:#F15A22"/>
			</linearGradient>
			<path fill="url(#SVGID_36_)" d="M12.099,44.431c-1.36,0.144-3.799,0.269-4.024,0.284c-0.277,0.018-0.312,0.293-0.015,0.33
				c2.767,0.357,8.387,2.88,9.896,9.227h0.007c5.237-2.849,9.027-8.03,9.98-14.152C23.614,42.226,18.139,43.782,12.099,44.431z"/>
		</g>
	</g>
</g>
</svg>
