<?xml version="1.0" encoding="utf-8"?>
<!-- Generator: Adobe Illustrator 16.0.0, SVG Export Plug-In . SVG Version: 6.00 Build 0)  -->
<!DOCTYPE svg PUBLIC "-//W3C//DTD SVG 1.1//EN" "http://www.w3.org/Graphics/SVG/1.1/DTD/svg11.dtd">
<svg version="1.1" xmlns="http://www.w3.org/2000/svg" xmlns:xlink="http://www.w3.org/1999/xlink" x="0px" y="0px"
	 width="43.801px" height="38.919px" viewBox="0 0 43.801 38.919" enable-background="new 0 0 43.801 38.919" xml:space="preserve">
<g id="fondo">
</g>
<g id="Contenido">
	<g>
		<g>
			<path fill="#004E9B" d="M12.728,22.572c1.23,0,2.42-0.081,3.545-0.229v-12.34c-1.125-0.146-2.314-0.228-3.545-0.228
				c-7.029,0-12.729,2.584-12.729,5.772v1.251C-0.001,19.986,5.698,22.572,12.728,22.572z"/>
			<path fill="#004E9B" d="M12.728,29.016c1.23,0,2.42-0.08,3.545-0.228v-3.617c-1.125,0.148-2.314,0.229-3.545,0.229
				c-6.135,0-11.258-1.969-12.459-4.59c-0.176,0.381-0.27,0.776-0.27,1.182v1.251C-0.001,26.431,5.698,29.016,12.728,29.016z"/>
			<path fill="#004E9B" d="M16.272,31.896v-0.281c-1.125,0.148-2.314,0.229-3.545,0.229c-6.135,0-11.258-1.969-12.459-4.59
				c-0.176,0.381-0.27,0.776-0.27,1.182v1.251c0,3.188,5.699,5.771,12.729,5.771c1.402,0,2.756-0.101,4.02-0.294
				c-0.312-0.64-0.475-1.317-0.475-2.017V31.896z"/>
			<path fill="#004E9B" d="M31.075,0c-7.027,0-12.725,2.584-12.725,5.772v1.251c0,3.189,5.697,5.773,12.725,5.773
				s12.727-2.584,12.727-5.773V5.772C43.802,2.584,38.103,0,31.075,0z"/>
			<path fill="#004E9B" d="M31.075,15.624c-6.133,0-11.254-1.969-12.459-4.589c-0.176,0.381-0.266,0.776-0.266,1.182v1.251
				c0,3.188,5.697,5.772,12.725,5.772s12.727-2.584,12.727-5.772v-1.251c0-0.406-0.094-0.801-0.266-1.182
				C42.331,13.655,37.21,15.624,31.075,15.624z"/>
			<path fill="#004E9B" d="M31.075,22.068c-6.133,0-11.254-1.969-12.459-4.591c-0.176,0.383-0.266,0.778-0.266,1.184v1.251
				c0,3.188,5.697,5.772,12.725,5.772s12.727-2.584,12.727-5.772v-1.251c0-0.406-0.094-0.801-0.266-1.184
				C42.331,20.099,37.21,22.068,31.075,22.068z"/>
			<path fill="#004E9B" d="M31.075,28.859c-6.133,0-11.254-1.968-12.459-4.59c-0.176,0.383-0.266,0.777-0.266,1.183v1.251
				c0,3.189,5.697,5.772,12.725,5.772s12.727-2.583,12.727-5.772v-1.251c0-0.406-0.094-0.801-0.266-1.183
				C42.331,26.892,37.21,28.859,31.075,28.859z"/>
			<path fill="#004E9B" d="M31.075,35.302c-6.133,0-11.254-1.967-12.459-4.587c-0.176,0.382-0.266,0.776-0.266,1.182v1.251
				c0,3.188,5.697,5.772,12.725,5.772s12.727-2.584,12.727-5.772v-1.251c0-0.405-0.094-0.8-0.266-1.182
				C42.331,33.335,37.21,35.302,31.075,35.302z"/>
		</g>
	</g>
</g>
<g id="Action_Bar">
</g>
<g id="Status_Bar">
</g>
<g id="Layer_7">
</g>
<g id="Layer_6" display="none">
</g>
<g id="Screenshots">
</g>
</svg>
