<?xml version="1.0" encoding="utf-8"?>
<!-- Generator: Adobe Illustrator 16.0.0, SVG Export Plug-In . SVG Version: 6.00 Build 0)  -->
<!DOCTYPE svg PUBLIC "-//W3C//DTD SVG 1.1//EN" "http://www.w3.org/Graphics/SVG/1.1/DTD/svg11.dtd">
<svg version="1.1" xmlns="http://www.w3.org/2000/svg" xmlns:xlink="http://www.w3.org/1999/xlink" x="0px" y="0px"
	 width="27.008px" height="27.008px" viewBox="0 0 27.008 27.008" enable-background="new 0 0 27.008 27.008" xml:space="preserve">
<g id="fondo">
</g>
<g id="Contenido">
</g>
<g id="Action_Bar">
</g>
<g id="Status_Bar">
	<g>
		<g>
			<path fill="#004E9B" d="M24.701,22.393H2.307C1.034,22.393,0,23.427,0,24.701c0,1.273,1.034,2.307,2.307,2.307h22.394
				c1.273,0,2.307-1.034,2.307-2.307C27.008,23.427,25.974,22.393,24.701,22.393z"/>
			<path fill="#004E9B" d="M24.701,11.197H2.307C1.034,11.197,0,12.231,0,13.504c0,1.273,1.034,2.307,2.307,2.307h22.394
				c1.273,0,2.307-1.034,2.307-2.307C27.008,12.231,25.974,11.197,24.701,11.197z"/>
			<path fill="#004E9B" d="M24.701,0H2.307C1.034,0,0,1.035,0,2.307s1.034,2.308,2.307,2.308h22.394
				c1.273,0,2.307-1.035,2.307-2.308S25.974,0,24.701,0z"/>
		</g>
	</g>
</g>
<g id="Layer_7">
</g>
<g id="Layer_6" display="none">
</g>
<g id="Screenshots">
</g>
</svg>
