<?xml version="1.0" encoding="utf-8"?>
<!-- Generator: Adobe Illustrator 16.0.0, SVG Export Plug-In . SVG Version: 6.00 Build 0)  -->
<!DOCTYPE svg PUBLIC "-//W3C//DTD SVG 1.1//EN" "http://www.w3.org/Graphics/SVG/1.1/DTD/svg11.dtd">
<svg version="1.1" id="Layer_1" xmlns="http://www.w3.org/2000/svg" xmlns:xlink="http://www.w3.org/1999/xlink" x="0px" y="0px"
	 width="90.505px" height="90.504px" viewBox="0 0 90.505 90.504" enable-background="new 0 0 90.505 90.504" xml:space="preserve">
<g>
	<g>
		<path fill="#02509D" d="M57.804,43.22c-3.972,2.867-7.298,4.157-7.298,8.221v3.23H38.503v-4.708c0-5.821,2.307-8.401,6.28-10.991
			c3.693-2.494,5.539-4.523,5.539-8.219c0-3.876-2.398-5.818-7.11-5.818c-3.971,0-6.465,1.384-8.126,2.218L30.282,16.9
			c2.863-1.57,7.572-3.413,15.699-3.413c13.392,0,19.58,7.015,19.58,15.977C65.562,36.388,61.865,40.267,57.804,43.22z"/>
		<path fill="#02509D" d="M53.101,69.836c0.05-0.372,0.084-0.747,0.084-1.131c0-4.526-3.509-8.219-8.586-8.219
			c-5.081,0-8.59,3.693-8.59,8.219c0,0.385,0.034,0.76,0.083,1.131H53.101z"/>
		<path fill="#02509D" d="M36.085,69.785c0.51,4.032,3.843,7.232,8.514,7.232c4.666,0,8-3.2,8.51-7.232l0.011-0.096l-17.046-0.005
			L36.085,69.785z"/>
	</g>
	<path fill="#02509D" d="M45.251,0C20.302,0,0,20.299,0,45.253c0,24.951,20.302,45.251,45.251,45.251
		c24.953,0,45.254-20.3,45.254-45.251C90.505,20.299,70.204,0,45.251,0z M45.253,86.985c-23.049,0-41.732-18.684-41.732-41.733
		c0-23.048,18.684-41.732,41.732-41.732s41.733,18.684,41.733,41.732C86.986,68.301,68.302,86.985,45.253,86.985z"/>
</g>
</svg>
