<?xml version="1.0" encoding="utf-8"?>
<!-- Generator: Adobe Illustrator 16.0.0, SVG Export Plug-In . SVG Version: 6.00 Build 0)  -->
<!DOCTYPE svg PUBLIC "-//W3C//DTD SVG 1.1//EN" "http://www.w3.org/Graphics/SVG/1.1/DTD/svg11.dtd">
<svg version="1.1" xmlns="http://www.w3.org/2000/svg" xmlns:xlink="http://www.w3.org/1999/xlink" x="0px" y="0px" width="39.45px"
	 height="40.599px" viewBox="0 0 39.45 40.599" enable-background="new 0 0 39.45 40.599" xml:space="preserve">
<g id="fondo">
</g>
<g id="Contenido">
</g>
<g id="Action_Bar">
</g>
<g id="Status_Bar">
	<g>
		<path fill="#004D9E" d="M25.809,40.073c-0.058,0.018-0.117,0.027-0.176,0.027c-0.07,0-0.141-0.013-0.208-0.038L1.736,30.802
			L0,31.364l0.093,0.037c0.038,0.007,0.077,0.016,0.115,0.032l25.429,9.167l13.624-5.189c0.001,0,0.004,0,0.006,0l0.168,0.717
			l-1.74-0.293L25.809,40.073z"/>
		<path fill="#004D9E" d="M21.299,35.975c-0.001-0.001-0.004-0.001-0.005-0.001c-0.002-0.001-0.003-0.003-0.005-0.003L1.783,28.346
			l-1.77,0.574l0.093,0.036c0.039,0.007,0.077,0.017,0.115,0.031l25.43,9.39l13.624-4.967c0.002,0,0.004,0,0.006,0l0.169,0.494
			l-1.794-0.426l-6.72,2.316c-0.007,0.002-0.025,0.075-0.031,0.077L30.2,36.136c-0.081,0.024-1.79,0.559-4,0.559
			c-3.115,0-4.395-0.529-4.448-0.552L21.299,35.975z"/>
		<path fill="#004D9E" d="M28.727,35.34c-1.03-0.499-2.165-1.203-2.757-1.583c-0.446,0.424-1.259,1.177-1.938,1.709
			c0.572,0.062,1.289,0.107,2.167,0.107C27.187,35.573,28.072,35.458,28.727,35.34z"/>
		<path fill="#004D9E" d="M20.16,28.325c0.436-0.141,0.313-0.309-0.294-0.515l-0.599-0.204l-1.289,0.415l0.56,0.189
			C19.204,28.438,19.708,28.47,20.16,28.325z"/>
		<path fill="#004D9E" d="M0.214,26.51l21.476,8.395c0.436,0.161,0.989,0.048,1.212-0.022c0.718-0.469,2.112-1.779,2.601-2.257
			c0.192-0.187,0.49-0.215,0.714-0.066c0.805,0.537,3.102,1.966,4.107,2.191c0.075-0.002,0.535-0.014,1.909-0.44
			c0.01-0.003,0.021-0.315,0.031-0.318l7.002-2.582c0.002,0,0.004,0,0.006,0l0.169,0.255l-25.618-9.858L0.006,26.365L0.1,26.439
			C0.138,26.445,0.176,26.495,0.214,26.51z M24.766,29.713c0.834,0.283,1.134,0.524,1.249,0.642l-1.378,0.12
			c-0.101-0.097-0.326-0.277-0.768-0.427c-0.442-0.149-0.741-0.17-0.932-0.109c-0.253,0.082,0.157,0.254,0.514,0.503
			c0.476,0.339,0.673,0.613-0.041,0.843c-0.932,0.299-2.148,0.197-3.374-0.218c-0.902-0.306-1.236-0.568-1.355-0.725l1.395-0.13
			c0.083,0.103,0.32,0.337,0.839,0.514c0.471,0.16,0.83,0.213,1.04,0.145c0.252-0.081-0.284-0.297-0.657-0.625
			c-0.359-0.306-0.38-0.533,0.247-0.734C22.38,29.245,23.648,29.335,24.766,29.713z M18.77,26.738l2.333,0.792
			c1.206,0.408,1.955,0.886,0.849,1.242c-0.773,0.25-1.635,0.229-2.499,0.039l-0.018,0.006c0.662,0.292,0.867,0.662,0.031,0.929
			c-1.175,0.379-2.701,0.145-4.193-0.361l-2.304-0.782L18.77,26.738z"/>
		<path fill="#004D9E" d="M18.015,29.157c0.487-0.157,0.39-0.339-0.296-0.572l-0.727-0.247l-1.4,0.451l0.667,0.226
			C16.937,29.245,17.519,29.317,18.015,29.157z"/>
		<path fill="#004D9E" d="M21.112,6.419c-0.83,0.056-1.894,0.262-1.894,0.551v7.439h-2.489l6.412,7.344l6.417-7.344h-3.34v-4.019
			C26.219,10.062,25.654,6.122,21.112,6.419z"/>
		<path fill="#004D9E" d="M24.083,5.701c0.079,0.021,1.389,0.361,2.484,1.636C25.7,3.743,23.209-1.505,16.085,0.408
			c0,0-4.235,0.857-6.581,5.036l5.575,4.388C15.112,9.768,17.943,4.242,24.083,5.701z"/>
	</g>
</g>
<g id="Layer_7">
</g>
<g id="Layer_6" display="none">
</g>
<g id="Screenshots">
</g>
</svg>
