<?xml version="1.0" encoding="utf-8"?>
<!-- Generator: Adobe Illustrator 16.0.0, SVG Export Plug-In . SVG Version: 6.00 Build 0)  -->
<!DOCTYPE svg PUBLIC "-//W3C//DTD SVG 1.1//EN" "http://www.w3.org/Graphics/SVG/1.1/DTD/svg11.dtd">
<svg version="1.1" xmlns="http://www.w3.org/2000/svg" xmlns:xlink="http://www.w3.org/1999/xlink" x="0px" y="0px"
	 width="52.686px" height="52.688px" viewBox="0 0 52.686 52.688" enable-background="new 0 0 52.686 52.688" xml:space="preserve">
<g id="fondo">
</g>
<g id="Contenido">
</g>
<g id="Action_Bar">
</g>
<g id="Status_Bar">
	<g>
		<path fill="#044E99" d="M52.686,44.453c0,4.549-3.686,8.235-8.233,8.235H8.231C3.683,52.688,0,49.001,0,44.453V8.231
			C0,3.682,3.683,0,8.231,0h36.222C49,0,52.686,3.682,52.686,8.231V44.453z"/>
		<g>
			<g>
				<path fill="#F8E64A" d="M38.218,19.216c0.433,4.056-3.222,8.088-9.207,10.999c-0.895,5.732-4.447,10.588-9.358,13.26
					c12.734-0.472,22.846-7.957,22.846-17.119c0-5.492-3.63-10.375-9.275-13.516C36.123,14.508,37.947,16.688,38.218,19.216z"/>
				<linearGradient id="SVGID_1_" gradientUnits="userSpaceOnUse" x1="29.3755" y1="25.1196" x2="31.4119" y2="36.1718">
					<stop  offset="0" style="stop-color:#F4C5AD"/>
					<stop  offset="1" style="stop-color:#DF5814"/>
				</linearGradient>
				<path fill="url(#SVGID_1_)" d="M38.218,19.216c0.433,4.056-3.222,8.088-9.207,10.999c-0.895,5.732-4.447,10.588-9.358,13.26
					c12.734-0.472,22.846-7.957,22.846-17.119c0-5.492-3.63-10.375-9.275-13.516C36.123,14.508,37.947,16.688,38.218,19.216z"/>
			</g>
			<g>
				<path fill="#5A9FDA" d="M38.218,19.216c-0.271-2.528-2.095-4.708-4.994-6.375c-0.558-0.306-1.129-0.598-1.72-0.87
					c-3.781-1.743-8.288-2.76-13.133-2.76c-1.053,0-2.087,0.05-3.098,0.141c0,0-0.018,0.003-0.024,0.003h-0.003h-0.004
					c-0.058,0.003-0.104,0.05-0.104,0.11c0,0.057,0.041,0.095,0.09,0.105v0.003c8.032,1.944,14.003,9.172,14.003,17.801
					c0,0.965-0.079,1.916-0.22,2.841C34.996,27.304,38.65,23.271,38.218,19.216z"/>
				<linearGradient id="SVGID_2_" gradientUnits="userSpaceOnUse" x1="32.0483" y1="32.436" x2="25.6517" y2="10.6873">
					<stop  offset="0" style="stop-color:#F3F5F9"/>
					<stop  offset="1" style="stop-color:#1D338D"/>
				</linearGradient>
				<path fill="url(#SVGID_2_)" d="M38.218,19.216c-0.271-2.528-2.095-4.708-4.994-6.375c-0.558-0.306-1.129-0.598-1.72-0.87
					c-3.781-1.743-8.288-2.76-13.133-2.76c-1.053,0-2.087,0.05-3.098,0.141c0,0-0.018,0.003-0.024,0.003h-0.003h-0.004
					c-0.058,0.003-0.104,0.05-0.104,0.11c0,0.057,0.041,0.095,0.09,0.105v0.003c8.032,1.944,14.003,9.172,14.003,17.801
					c0,0.965-0.079,1.916-0.22,2.841C34.996,27.304,38.65,23.271,38.218,19.216z"/>
			</g>
			<g>
				<path fill="#F8E64A" d="M14.16,34.25c-1.272,0.137-3.554,0.253-3.767,0.271c-0.26,0.014-0.292,0.267-0.014,0.31
					c2.592,0.331,7.859,2.694,9.274,8.644l0,0c4.912-2.672,8.464-7.527,9.358-13.26C24.952,32.184,19.821,33.648,14.16,34.25z"/>
				<linearGradient id="SVGID_3_" gradientUnits="userSpaceOnUse" x1="28.2568" y1="39.0723" x2="11.4601" y2="29.5389">
					<stop  offset="0" style="stop-color:#F7D5C4"/>
					<stop  offset="1" style="stop-color:#DF5814"/>
				</linearGradient>
				<path fill="url(#SVGID_3_)" d="M14.16,34.25c-1.272,0.137-3.554,0.253-3.767,0.271c-0.26,0.014-0.292,0.267-0.014,0.31
					c2.592,0.331,7.859,2.694,9.274,8.644l0,0c4.912-2.672,8.464-7.527,9.358-13.26C24.952,32.184,19.821,33.648,14.16,34.25z"/>
			</g>
		</g>
	</g>
</g>
<g id="Layer_7">
</g>
<g id="Layer_6" display="none">
</g>
<g id="Screenshots">
</g>
</svg>
