<?xml version="1.0" encoding="utf-8"?>
<!-- Generator: Adobe Illustrator 16.0.0, SVG Export Plug-In . SVG Version: 6.00 Build 0)  -->
<!DOCTYPE svg PUBLIC "-//W3C//DTD SVG 1.1//EN" "http://www.w3.org/Graphics/SVG/1.1/DTD/svg11.dtd">
<svg version="1.1" xmlns="http://www.w3.org/2000/svg" xmlns:xlink="http://www.w3.org/1999/xlink" x="0px" y="0px"
	 width="34.262px" height="41.31px" viewBox="0 0 34.262 41.31" enable-background="new 0 0 34.262 41.31" xml:space="preserve">
<g id="fondo">
</g>
<g id="Contenido">
</g>
<g id="Action_Bar">
</g>
<g id="Status_Bar">
	<g>
		<g>
			<path fill="#004D9E" d="M26.945,0c0,0,6.451,8.569,0.217,13.461L25.3,12.552l2.289,6.883l6.673-2.121l-1.645-0.867
				C32.617,16.448,37.163,3.766,26.945,0z"/>
			<path fill="#004D9E" d="M27.589,21.427c-0.174,0-0.343-0.023-0.506-0.065v13.922H7.178v-4.627
				c-2.439,3.758,1.686,9.396,1.731,9.458c0.264,0.351,0.396,0.773,0.396,1.196h17.64c1.483,0,2.687-1.203,2.687-2.688V20.875
				l-1.439,0.458C27.996,21.396,27.793,21.427,27.589,21.427z M17.143,39.985c-1.168,0-2.113-0.946-2.113-2.115
				c0-1.166,0.945-2.113,2.113-2.113c1.167,0,2.113,0.947,2.113,2.113C19.256,39.039,18.31,39.985,17.143,39.985z"/>
			<path fill="#004D9E" d="M16.974,36.971c0-0.088,0.07-0.159,0.157-0.159s0.157,0.071,0.157,0.159v1.046
				c0,0.086-0.071,0.157-0.157,0.157s-0.157-0.07-0.157-0.157V36.971z M17.13,39.01c-0.584,0-1.06-0.475-1.06-1.06
				c0-0.233,0.073-0.452,0.212-0.638c0.052-0.07,0.151-0.083,0.22-0.03c0.069,0.052,0.083,0.15,0.03,0.22
				c-0.097,0.129-0.148,0.284-0.148,0.448c0,0.412,0.334,0.747,0.746,0.747c0.412,0,0.747-0.334,0.747-0.747
				c0-0.164-0.052-0.319-0.15-0.449c-0.052-0.07-0.039-0.169,0.03-0.221c0.07-0.052,0.168-0.038,0.22,0.031
				c0.139,0.185,0.214,0.406,0.214,0.639C18.191,38.535,17.715,39.01,17.13,39.01z"/>
			<path fill="#004D9E" d="M17.757,37.28c-0.069,0.052-0.083,0.151-0.03,0.221c0.098,0.129,0.15,0.285,0.15,0.449
				c0,0.412-0.335,0.747-0.747,0.747c-0.411,0-0.746-0.334-0.746-0.747c0-0.164,0.051-0.318,0.148-0.448
				c0.053-0.07,0.039-0.168-0.03-0.22c-0.069-0.053-0.168-0.04-0.22,0.03c-0.139,0.186-0.212,0.405-0.212,0.638
				c0,0.585,0.476,1.06,1.06,1.06c0.585,0,1.061-0.475,1.061-1.06c0-0.233-0.075-0.454-0.214-0.639
				C17.925,37.242,17.827,37.228,17.757,37.28z"/>
			<path fill="#004D9E" d="M17.13,38.174c0.086,0,0.157-0.07,0.157-0.157v-1.046c0-0.088-0.071-0.159-0.157-0.159
				s-0.157,0.071-0.157,0.159v1.046C16.974,38.104,17.044,38.174,17.13,38.174z"/>
			<g>
				<path fill="#004D9E" d="M25.353,1.195C25.089,0.845,24.957,0.422,24.957,0H7.316C5.832,0,4.63,1.203,4.63,2.688v17.748
					l1.44-0.458c0.196-0.062,0.399-0.094,0.604-0.094c0.173,0,0.342,0.023,0.505,0.067V4.098h19.793
					C26.259,2.434,25.374,1.223,25.353,1.195z M19.424,2.864h-4.449c-0.288,0-0.521-0.234-0.521-0.521
					c0-0.289,0.233-0.522,0.521-0.522h4.449c0.288,0,0.521,0.233,0.521,0.522C19.946,2.629,19.712,2.864,19.424,2.864z"/>
			</g>
			<path fill="#004D9E" d="M7.316,41.31c0,0-6.451-8.568-0.216-13.46l1.862,0.909l-2.289-6.884L0,23.997l1.646,0.865
				C1.646,24.862-2.9,37.543,7.316,41.31z"/>
			<g>
				<path fill="#004D9E" d="M14.078,24.294h-3.618V14.042h3.664c1.893,0,3.602,0.6,3.602,2.555c0,1.37-0.708,2.094-1.816,2.37v0.031
					c1.201,0.186,2.232,0.985,2.232,2.463C18.141,23.54,16.417,24.294,14.078,24.294z M13.847,15.92h-0.94v2.278h0.878
					c1.047,0,1.509-0.369,1.509-1.17C15.294,16.259,14.801,15.92,13.847,15.92z M14.047,19.938h-1.14v2.479h1.047
					c1.062,0,1.677-0.339,1.677-1.216C15.631,20.338,15.125,19.938,14.047,19.938z"/>
				<path fill="#004D9E" d="M20.708,24.318c-1.416,0-2.293-0.4-2.755-0.708l0.755-1.616c0.307,0.2,1.045,0.616,1.861,0.616
					c0.739,0,1.14-0.185,1.14-0.554c0-0.448-0.924-0.539-1.986-1.078c-1.001-0.493-1.555-1.078-1.555-2.186
					c0-1.478,1.186-2.386,2.941-2.386c1.308,0,2.108,0.369,2.478,0.585l-0.77,1.57c-0.307-0.169-0.908-0.446-1.601-0.446
					s-0.97,0.216-0.97,0.554c0,0.447,0.723,0.539,1.585,0.877c1.17,0.478,1.97,1.032,1.97,2.294
					C23.802,23.487,22.632,24.318,20.708,24.318z"/>
			</g>
		</g>
	</g>
</g>
<g id="Layer_7">
</g>
<g id="Layer_6" display="none">
</g>
<g id="Screenshots">
</g>
</svg>
