<?xml version="1.0" encoding="utf-8"?>
<!-- Generator: Adobe Illustrator 16.0.0, SVG Export Plug-In . SVG Version: 6.00 Build 0)  -->
<!DOCTYPE svg PUBLIC "-//W3C//DTD SVG 1.1//EN" "http://www.w3.org/Graphics/SVG/1.1/DTD/svg11.dtd">
<svg version="1.1" xmlns="http://www.w3.org/2000/svg" xmlns:xlink="http://www.w3.org/1999/xlink" x="0px" y="0px" width="42.45px"
	 height="43.84px" viewBox="0 0 42.45 43.84" enable-background="new 0 0 42.45 43.84" xml:space="preserve">
<g id="fondo">
</g>
<g id="Contenido">
</g>
<g id="Action_Bar">
</g>
<g id="Status_Bar">
	<g>
		<path fill="#004D9E" d="M27.771,43.12c-0.062,0.02-0.125,0.029-0.189,0.029c-0.076,0-0.152-0.014-0.223-0.041L1.868,33.144
			L0,33.749l0.1,0.039c0.041,0.008,0.083,0.018,0.124,0.034L27.586,43.84l14.66-5.431c0.002,0,0.005,0,0.007,0l0.182,0.618
			l-1.872-0.393L27.771,43.12z"/>
		<path fill="#004D9E" d="M22.919,38.71c-0.001-0.002-0.004-0.002-0.006-0.002c-0.002-0.001-0.003-0.003-0.005-0.003L1.919,30.501
			l-1.904,0.617l0.1,0.039c0.042,0.007,0.083,0.018,0.123,0.033l27.364,10.334l14.66-5.115c0.002,0,0.004,0,0.006,0l0.182,0.302
			l-1.931-0.573l-7.231,2.435c-0.007,0.002-0.027,0.052-0.033,0.054l-0.759,0.27c-0.087,0.026-1.926,0.594-4.304,0.594
			c-3.352,0-4.729-0.573-4.786-0.598L22.919,38.71z"/>
		<path fill="#004D9E" d="M30.911,38.027c-1.108-0.537-2.329-1.294-2.967-1.704c-0.479,0.456-1.354,1.267-2.084,1.839
			c0.616,0.066,1.387,0.115,2.332,0.115C29.254,38.277,30.207,38.154,30.911,38.027z"/>
		<path fill="#004D9E" d="M21.693,30.479c0.469-0.151,0.337-0.332-0.317-0.554l-0.645-0.219l-1.387,0.446l0.602,0.204
			C20.665,30.601,21.206,30.635,21.693,30.479z"/>
		<path fill="#004D9E" d="M0.23,28.525l23.109,9.033c0.469,0.173,1.064,0.052,1.305-0.024c0.772-0.504,2.273-1.914,2.798-2.429
			c0.207-0.201,0.527-0.231,0.769-0.071c0.866,0.577,3.338,2.115,4.42,2.357c0.08-0.002,0.576-0.015,2.054-0.474
			c0.011-0.003,0.022-0.533,0.034-0.536l7.534-2.973c0.002,0,0.004,0,0.006,0l0.183,0.469l-27.566-10.51L0.007,28.321l0.1,0.104
			C0.148,28.432,0.189,28.509,0.23,28.525z M26.649,31.973c0.897,0.305,1.221,0.563,1.344,0.69l-1.483,0.129
			c-0.108-0.104-0.351-0.298-0.827-0.459s-0.797-0.184-1.002-0.117c-0.272,0.088,0.169,0.273,0.553,0.541
			c0.512,0.365,0.724,0.66-0.044,0.907c-1.002,0.322-2.312,0.212-3.63-0.234c-0.971-0.329-1.33-0.611-1.459-0.779l1.501-0.141
			c0.089,0.11,0.344,0.363,0.902,0.553c0.507,0.172,0.894,0.229,1.119,0.156c0.271-0.087-0.306-0.319-0.707-0.672
			c-0.386-0.329-0.409-0.573,0.266-0.79C24.082,31.468,25.446,31.565,26.649,31.973z M20.197,28.771l2.511,0.852
			c1.297,0.439,2.103,0.954,0.913,1.337c-0.833,0.269-1.759,0.246-2.688,0.042l-0.019,0.007c0.712,0.314,0.933,0.712,0.033,1
			c-1.265,0.408-2.906,0.155-4.512-0.389l-2.479-0.841L20.197,28.771z"/>
		<path fill="#004D9E" d="M19.385,31.374c0.524-0.169,0.419-0.365-0.318-0.615l-0.783-0.266l-1.507,0.485l0.718,0.243
			C18.225,31.469,18.851,31.546,19.385,31.374z"/>
		<path fill="#004D9E" d="M22.562,6.907c-0.893,0.06-1.271,0.281-2.271,0.593v7.909h-2.289l6.899,7.902l6.906-7.902h-3.516v-4.229
			C28.291,10.827,27.45,6.587,22.562,6.907z"/>
		<path fill="#004D9E" d="M25.915,6.134C26,6.156,27.41,6.522,28.588,7.895c-0.934-3.867-3.614-9.515-11.28-7.456
			c0,0-4.557,0.922-7.081,5.419l5.999,4.722C16.261,10.51,19.308,4.563,25.915,6.134z"/>
	</g>
</g>
<g id="Layer_7">
</g>
<g id="Layer_6" display="none">
</g>
<g id="Screenshots">
</g>
</svg>
