<?xml version="1.0" encoding="utf-8"?>
<!-- Generator: Adobe Illustrator 16.0.0, SVG Export Plug-In . SVG Version: 6.00 Build 0)  -->
<!DOCTYPE svg PUBLIC "-//W3C//DTD SVG 1.1//EN" "http://www.w3.org/Graphics/SVG/1.1/DTD/svg11.dtd">
<svg version="1.1" xmlns="http://www.w3.org/2000/svg" xmlns:xlink="http://www.w3.org/1999/xlink" x="0px" y="0px" width="38.87px"
	 height="43.469px" viewBox="0 0 38.87 43.469" enable-background="new 0 0 38.87 43.469" xml:space="preserve">
<g id="fondo">
</g>
<g id="Contenido">
</g>
<g id="Action_Bar">
</g>
<g id="Status_Bar">
	<g>
		<path fill="#004D9E" d="M28.809,42.724c-0.042,0.014-0.086,0.02-0.129,0.02c-0.053,0-0.105-0.009-0.154-0.028l-17.47-6.829
			l-1.28,0.416l0.068,0.024c0.028,0.006,0.056,0.013,0.084,0.024l18.752,7.117L38.729,40c0.001,0,0.003,0,0.004,0l0.125,0.171
			l-1.283-0.395L28.809,42.724z"/>
		<path fill="#004D9E" d="M25.484,39c-0.001,0-0.003,0-0.004,0c-0.002,0-0.003,0.349-0.004,0.348l-14.385-5.446l-1.304,0.51
			l0.069,0.07c0.028,0.005,0.056,0.035,0.084,0.045l18.752,6.532L38.74,37c0.002,0,0.003,0,0.004,0l0.125,0.769l-1.324-0.112
			l-4.956,1.811c-0.004,0.001-0.018,0.106-0.022,0.107l-0.52,0.221c-0.061,0.018-1.32,0.424-2.95,0.424
			c-2.297,0-3.241-0.734-3.28-0.751L25.484,39z"/>
		<path fill="#004D9E" d="M30.96,39.233c-0.759-0.367-1.596-0.886-2.032-1.167c-0.33,0.312-0.929,0.868-1.429,1.26
			c0.421,0.045,0.95,0.08,1.598,0.08C29.825,39.406,30.479,39.32,30.96,39.233z"/>
		<path fill="#004D9E" d="M24.644,34.061c0.321-0.105,0.231-0.229-0.217-0.38l-0.442-0.149l-0.95,0.306l0.413,0.141
			C23.938,34.143,24.31,34.167,24.644,34.061z"/>
		<path fill="#004D9E" d="M9.782,32.672l0.068,0.026c0.028,0.006,0.057,0.012,0.084,0.023l15.837,6.19
			c0.322,0.118,0.729,0.035,0.895-0.016c0.529-0.347,1.558-1.313,1.917-1.665c0.142-0.138,0.361-0.159,0.526-0.049
			c0.595,0.395,2.289,1.45,3.03,1.615c0.055-0.001,0.395-0.01,1.408-0.324c0.007-0.002,0.016-0.4,0.023-0.403L38.733,36
			c0.002,0,0.003,0,0.005,0l0.125,0.355L19.97,29.17L9.782,32.672z M28.041,35.085c0.615,0.207,0.836,0.386,0.92,0.472l-1.016,0.088
			c-0.075-0.072-0.24-0.205-0.566-0.314c-0.326-0.11-0.546-0.126-0.687-0.082c-0.187,0.061,0.115,0.188,0.378,0.371
			c0.351,0.25,0.498,0.453-0.03,0.624c-0.688,0.219-1.583,0.145-2.488-0.162c-0.665-0.225-0.911-0.419-1-0.534l1.029-0.096
			c0.062,0.076,0.236,0.25,0.618,0.378c0.348,0.118,0.612,0.157,0.767,0.106c0.186-0.059-0.21-0.219-0.485-0.459
			c-0.264-0.226-0.28-0.392,0.183-0.542C26.281,34.738,27.216,34.804,28.041,35.085z M25.339,33.473
			c0.89,0.301,1.441,0.655,0.625,0.917c-0.57,0.184-1.205,0.168-1.842,0.028l-0.012,0.005c0.487,0.217,0.638,0.489,0.022,0.687
			c-0.867,0.28-1.992,0.105-3.092-0.267l-1.699-0.576l4.277-1.376L25.339,33.473z"/>
		<path fill="#004D9E" d="M23.062,34.673c0.359-0.116,0.287-0.25-0.217-0.421l-0.537-0.182l-1.032,0.333l0.491,0.167
			C22.267,34.74,22.695,34.792,23.062,34.673z"/>
		<path fill="#004D9E" d="M25,5H4v7h21V5z M25,11H4V6h21V11z"/>
		<path fill="#004D9E" d="M4,25h21V12H4V25z M4,13h21v12H4V13z"/>
		<path fill="#004D9E" d="M17.753,20.894c0-0.473-0.796-1.901-1.376-2.642c-0.579-0.743-1.216-2.428-1.49-2.428
			c-0.276,0-0.913,1.685-1.492,2.428c-0.316,0.404-0.697,1.012-0.977,1.558c-0.133,0.216-0.239,0.449-0.312,0.697
			c-0.055,0.159-0.089,0.292-0.089,0.387c0,0.009,0.002,0.017,0.002,0.026c-0.019,0.129-0.03,0.262-0.03,0.397
			c0,1.593,1.291,2.885,2.884,2.885c1.593,0,2.884-1.292,2.884-2.885c0-0.089-0.005-0.179-0.014-0.265
			C17.751,21.002,17.753,20.949,17.753,20.894z"/>
		<path fill="#004D9E" d="M8.168,15.527c-1.586,0-2.873,1.286-2.873,2.873c0,0.844,0.363,1.602,0.943,2.128
			c0.119,0.193,0.218,0.399,0.27,0.616c0.049,0.197,0.079,0.453,0.096,0.732c0.236,0.217,1.124,0.408,1.563,0.408
			c0.44,0,1.328-0.191,1.564-0.408c0.018-0.279,0.047-0.536,0.096-0.732c0.051-0.217,0.152-0.423,0.27-0.616
			c0.579-0.526,0.943-1.285,0.943-2.128C11.04,16.813,9.754,15.527,8.168,15.527z"/>
		<path fill="#004D9E" d="M8.167,22.716c-0.159,0-1.043-0.083-1.546-0.353c0.003,0.11,0.006,0.219,0.007,0.327
			c0.132,0.091,0.292,0.361,1.287,0.424C7.105,23.151,7,22.942,6,22.828c0,0.104,0,0.204,0,0.3c1,0.102,0.946,0.35,1.895,0.41
			c-0.79,0.036-1.151-0.163-1.423-0.279c0,0.111,0.077,0.212,0.075,0.304c0.173,0.107,0.374,0.342,1.292,0.399
			C7.061,23.996,7,23.807,6,23.691c0,0.066,0,0.125,0,0.173c0,0.438,1.522,0.652,1.857,0.652c0.337,0,1.702-0.214,1.702-0.652
			c0-0.264,0.058-0.893,0.078-1.5C9.134,22.633,8.328,22.716,8.167,22.716z"/>
		<path fill="#004D9E" d="M23.265,21.299C23.232,21.269,23,21.281,23,21.333v-0.002c0,0.002-0.016,0.003-0.019,0.004
			c-0.007,0.003-0.02,0.005-0.025,0.008c-0.729,0.271-1.274,0.208-1.274,0.208c-0.151-0.112-0.291-0.31-0.417-0.591
			c-0.125-0.28-0.234-0.616-0.325-1.003c-0.072-0.336-0.124-0.669-0.155-0.999c-0.03-0.331-0.031-0.596-0.005-0.795
			c0.008-0.062,0.017-0.102,0.027-0.126c0.033,0.023,0.084,0.042,0.153,0.059c0.069,0.014,0.106,0.023,0.112,0.023
			c0.098,0.012,0.195,0.017,0.295,0.012c0.095-0.005,0.15-0.013,0.167-0.023l0.972-0.13c0.1-0.023,0.151-0.082,0.151-0.174
			l-0.011-1.932c-0.006-0.05-0.034-0.091-0.086-0.122l-1.027-0.281c-0.015-0.003-0.027-0.235-0.04-0.237c0,0-0.001-0.23-0.002-0.23
			c-0.001,0-0.004,0-0.007,0c-0.004,0-0.009,0-0.014,0c-0.003,0-0.006,0-0.009,0s-0.004,0.229-0.007,0.23
			c-0.075,0.005-0.236,0.152-0.484,0.21c-0.107,0.018-0.31,0.177-0.608,0.364c-0.3,0.189-0.46,0.359-0.487,0.455
			c-0.024,0.095-0.072,0.328-0.142,0.67c-0.07,0.342-0.117,0.607-0.14,0.783c-0.073,0.551-0.099,1.068-0.075,1.544
			c0.023,0.478,0.086,0.928,0.191,1.348c0.167,0.682,0.401,1.262,0.701,1.74c0.36,0.576,0.857,1.075,1.491,1.5
			c0.142,0.085,0.343,0.148,0.603,0.182c0.2,0.025,0.374,0.036,0.523,0.028c0.043-0.002,0.087-0.007,0.133-0.013
			c0.688-0.077,0.953-0.287,0.953-0.287c0.142-0.079,0.248-0.167,0.319-0.267c0.034-0.026,0.034-0.066-0.007-0.122L23.265,21.299z"
			/>
		<polygon fill="#004D9E" points="1,1 28,1 28,30.671 29.219,31.202 29.233,0 0,0 0,4.718 0,35 8,35 8,34 1,34 		"/>
	</g>
</g>
<g id="Layer_7">
</g>
<g id="Layer_6" display="none">
</g>
<g id="Screenshots">
</g>
</svg>
