<?xml version="1.0" encoding="utf-8"?>
<!-- Generator: Adobe Illustrator 16.0.0, SVG Export Plug-In . SVG Version: 6.00 Build 0)  -->
<!DOCTYPE svg PUBLIC "-//W3C//DTD SVG 1.1//EN" "http://www.w3.org/Graphics/SVG/1.1/DTD/svg11.dtd">
<svg version="1.1" id="Layer_1" xmlns="http://www.w3.org/2000/svg" xmlns:xlink="http://www.w3.org/1999/xlink" x="0px" y="0px"
	 width="74.932px" height="69.396px" viewBox="0 0 74.932 69.396" enable-background="new 0 0 74.932 69.396" xml:space="preserve">
<path fill="#02509D" d="M74.441,51.47c-0.259-0.232-0.667-0.537-1.259-0.804c-0.212-0.109-15.621-7.581-15.621-7.581
	s-2.15-0.757-3.588,1.865l0,0c-1.757,2.248-5.697,8.239-7.823,7.686c-2.507-0.646-17.085-5.979-26.927-23.433
	c0,0-0.555-0.759,0.93-2.338c1.485-1.579,6.779-5.673,4.922-9.851c0,0-5.386-12.912-7.429-16.347c0,0-3.797-1.314-7.596-0.255
	c0,0-14.965,6.01-8.373,25.506C8.27,45.417,31.48,66.028,54.319,69.276c0,0,20.242,2.689,20.612-17.36
	C74.932,51.916,74.808,51.752,74.441,51.47z"/>
</svg>
