<?xml version="1.0" encoding="utf-8"?>
<!-- Generator: Adobe Illustrator 16.0.0, SVG Export Plug-In . SVG Version: 6.00 Build 0)  -->
<!DOCTYPE svg PUBLIC "-//W3C//DTD SVG 1.1//EN" "http://www.w3.org/Graphics/SVG/1.1/DTD/svg11.dtd">
<svg version="1.1" id="Layer_1" xmlns="http://www.w3.org/2000/svg" xmlns:xlink="http://www.w3.org/1999/xlink" x="0px" y="0px"
	 width="56.813px" height="87.972px" viewBox="0 0 56.813 87.972" enable-background="new 0 0 56.813 87.972" xml:space="preserve">
<path fill="#02509D" d="M56.813,28.408C56.813,12.719,44.094,0,28.406,0C12.718,0,0,12.719,0,28.408
	c0,5.838,1.764,11.264,4.784,15.777H4.78c0.018,0.025,0.037,0.053,0.054,0.078c0.019,0.025,0.036,0.053,0.054,0.078
	c3.929,5.829,10.361,12.701,14.174,18.404c1.911,2.859,3.507,5.496,4.814,7.802c0.158,0.306,2.981,5.862,2.916,11.728
	c-0.067,6.032,1.396,5.693,1.613,5.693s1.612,0.339,1.612-5.693c0-8.543,10.15-22.782,10.15-22.782l-0.982,1.212
	c3.847-5.252,9.268-11.214,12.739-16.363c0.018-0.025,0.036-0.053,0.053-0.078c0.018-0.025,0.037-0.053,0.055-0.078h-0.003
	C55.048,39.672,56.813,34.246,56.813,28.408z M28.406,44.33c-8.995,0-16.285-7.291-16.285-16.285s7.29-16.285,16.285-16.285
	c8.994,0,16.284,7.291,16.284,16.285S37.4,44.33,28.406,44.33z"/>
</svg>
