<?xml version="1.0" encoding="utf-8"?>
<!-- Generator: Adobe Illustrator 21.1.0, SVG Export Plug-In . SVG Version: 6.00 Build 0)  -->
<svg version="1.1" id="Capa_1" xmlns="http://www.w3.org/2000/svg" xmlns:xlink="http://www.w3.org/1999/xlink" x="0px" y="0px"
	 viewBox="0 0 139.7 27" style="enable-background:new 0 0 139.7 27;" xml:space="preserve">
<style type="text/css">
	.st0{opacity:0.3;}
	.st1{clip-path:url(#SVGID_2_);}
	.st2{fill:#E1E5E8;}
	.st3{fill:#FF8300;}
	.st4{fill:#002856;}
	.st5{fill:#00B3E3;}
	.st6{fill:none;stroke:#002856;stroke-width:5;stroke-miterlimit:10;}
	.st7{clip-path:url(#SVGID_4_);fill:#FFFFFF;}
	.st8{clip-path:url(#SVGID_4_);}
	.st9{opacity:0.4;}
	.st10{fill:none;}
	.st11{fill:#01A8D8;}
	.st12{fill:#A7A9AC;}
	.st13{fill:#FFFFFF;}
	.st14{clip-path:url(#SVGID_6_);fill:url(#SVGID_7_);}
	.st15{clip-path:url(#SVGID_6_);fill:url(#SVGID_8_);}
	.st16{clip-path:url(#SVGID_6_);}
	.st17{fill:#F69320;}
	.st18{fill:#07BCE4;}
	.st19{fill:#F89828;}
	.st20{fill-rule:evenodd;clip-rule:evenodd;fill:#002856;}
	.st21{fill:#676767;}
	.st22{fill:#F47621;}
	.st23{fill-rule:evenodd;clip-rule:evenodd;fill:#FFFFFF;stroke:#002856;stroke-miterlimit:10;}
	.st24{clip-path:url(#SVGID_12_);fill:#FFFFFF;}
	.st25{clip-path:url(#SVGID_18_);fill:#FFFFFF;}
	.st26{clip-path:url(#SVGID_22_);fill:#FFFFFF;}
	.st27{clip-path:url(#SVGID_24_);fill:#FFFFFF;}
	.st28{clip-path:url(#SVGID_26_);fill-rule:evenodd;clip-rule:evenodd;fill:#FFFFFF;}
	.st29{clip-path:url(#SVGID_28_);}
	.st30{opacity:0.9;}
	.st31{fill:#17415E;}
</style>
<g>
	<path class="st13" d="M136.2,11.5L136.2,11.5c2.2-0.3,3.5-2.3,3.5-4.4c0-3.6-2.3-4.4-6.1-4.4h-7.9l-4,18.8h10
		c3.8,0,7.2-2.1,7.2-6.2C139,13.5,138,12,136.2,11.5z M131.6,18.3h-5.2v0h-0.2l1.1-5.2h4.1c0,0,0,0,0.1,0h0.1c1.5,0,3.3,0.2,3.3,2.1
		C134.8,17.3,133.5,18.3,131.6,18.3z M132.8,10.3h-4.7v0h-0.2l0.9-4.4h4.4c0,0,0,0,0,0h0.2c1.3,0,2.2,0.5,2.2,1.9
		C135.6,9.5,134.3,10.3,132.8,10.3z"/>
	<g>
		<path class="st13" d="M5,14.2c-0.9,0-1.8,0.4-2.3,1.1l0,0l0.8-3.8H2.2L0,22h1.1l0.3-1.4h0c0.2,0.8,1.2,1.6,2.6,1.6
			c2.6,0,4-2.3,4-4.7C8,15.6,7,14.2,5,14.2z M4,21.1c-1.2,0-2.1-0.7-2.1-1.9c0-1.6,0.9-3.9,3.1-3.9c1.2,0,1.7,1,1.7,2.2
			C6.8,19,5.8,21.1,4,21.1z"/>
		<path class="st13" d="M10.4,20.6L10.4,20.6l-0.9-6H8.1l1.3,7.6l-0.8,1.3c-0.3,0.5-0.6,0.8-1.2,0.8c-0.2,0-0.5-0.1-0.7-0.2l-0.2,1
			c0.2,0.1,0.6,0.2,0.9,0.2c1.3,0,1.8-0.8,2.5-1.8l5-8.9h-1.4L10.4,20.6z"/>
	</g>
	<polygon class="st13" points="44,11.8 43.5,12.7 43.9,12 	"/>
	<g>
		<path class="st13" d="M32.8,15c0-3.8-2.3-5-5.6-5.9c-1.4-0.4-5-0.9-5-3c0-1.9,1.9-2.6,3.7-2.6c2.1,0,5.9,0.3,6.4,2.7h4
			C35.7,1.2,30.4,0,26.1,0c-4.1,0-8.3,1.9-8.3,6.5c0,3.6,2.6,4.8,5.3,5.6c2.6,0.8,5.3,1.2,5.3,3.3c0,2.1-2.1,3-4,3
			c-2.6,0-4.7-0.9-4.5-3.9h-4.4c0,5.1,2.9,7.5,8.7,7.5C28.2,22,32.8,20.1,32.8,15z"/>
		<path class="st13" d="M53.5,6.8c-2.1,0-3.7,0.8-5,2.4h-0.1l0.4-2h-1.2L43.7,15l-1.6,6.5H46l1.6-7.6c0.4-2,1.6-4,4-4
			c0.9,0,1.9,0.6,1.9,1.5c0,0.4-0.1,1.3-0.3,1.7l-1.7,8.4h3.9l1.8-8.4c0.1-0.5,0.4-1.9,0.4-2.5C57.7,8.1,56.2,6.8,53.5,6.8z"/>
		<path class="st13" d="M44,12.5l2.6-5.3h-1.5h-2.2l-5,10.3h-0.1L36.6,7.2h-4l2.6,14.2c-0.5,0.8-0.8,1.9-2.6,1.9
			c-0.5,0-1.1-0.2-1.6-0.2l-0.7,3.3c0.7,0,1.4,0.1,2.1,0.1c3,0,4.2-0.6,5.6-3l5.6-10.1L44,12.5z"/>
		<g>
			<path class="st13" d="M71.8,15.4c0.1-0.7,0.2-1.5,0.2-2.2c0-4.2-2.7-6.3-6.7-6.3c-4.9,0-7.9,4.3-7.9,8.9c0,4.1,2.6,6.3,6.4,6.3
				c4.1,0,6.2-1.7,7.4-4.9h-3.9c-0.6,0.9-1.4,2-2.9,2c-2.1,0-3.2-1.1-3.2-2.8c0-0.2,0-0.5,0-0.8H71.8z M65.6,9.8
				c2.3,0,2.7,1.6,2.7,3.1h-6.6C62.2,11.3,63.3,9.8,65.6,9.8z"/>
		</g>
		<path class="st13" d="M82.2,6.9C82.1,6.9,82.1,6.9,82.2,6.9C82.1,6.9,82.1,6.9,82.2,6.9C82.2,6.9,82.2,6.9,82.2,6.9z"/>
		<path class="st13" d="M82.6,10.8l0-0.2l-0.2-0.2c-0.1,0.1-0.1,0.2-0.2,0.3C82.3,10.7,82.5,10.7,82.6,10.8z"/>
		<path class="st13" d="M104,11.7l-3.3,5.7h-0.1L99.4,7.2h-1.7l-1,5.5l1.2,8.7c-0.5,0.8-0.8,1.9-2.6,1.9c-0.5,0-1.1-0.2-1.6-0.2
			L93,26.5c0.7,0,1.4,0.1,2.1,0.1c3,0,4.1,0.5,5.5-1.9l3.8-6.7C103.8,15.5,103.5,14,104,11.7z"/>
		<path class="st13" d="M81.3,10.5c0.1-0.2,0.2-0.4,0.4-0.6c0.3-0.5,0.7-1,1.1-1.3c0.6-0.6,1-1.1,1.6-1.4c-1.5-0.3-1.7-0.4-2.2-0.3
			c0,0-0.1,0-0.1,0c-0.1,0-0.3,0-0.4,0c-0.2,0-0.3,0-0.4,0.1c-1.7,0.3-3.3,1.3-4,2.9l-0.1-0.1l0.6-2.6H74l-3,14.3h3.9l1.3-6.4
			c0.5-2.4,1.6-4.7,4.6-4.7C81.1,10.5,81.1,10.5,81.3,10.5z"/>
		<path class="st13" d="M95.3,15.1L95.3,15.1L96,11l0.7-3.8v0h-3.5l-0.4,2.2h-0.1c-0.8-1.9-2.4-2.6-4.4-2.6c-0.6,0-1.1,0.1-1.6,0.2
			c-0.2,0.1-0.7,0.2-1.3,0.5c-0.8,0.5-1.7,1.1-2.6,2.3c-0.1,0.2-0.3,0.5-0.4,0.6l0.2,0.2l0,0.2c-0.1,0-0.2,0-0.3-0.1
			c-0.1,0.1-0.1,0.2-0.2,0.4c-0.6,1.4-1,2.9-1,4.4c0,3.5,2.1,5.9,5.5,5.9c1.6,0,2.9-0.7,3.9-2l0.1,0.1c-0.8,2.8-1.5,5-4,5
			c-1.3,0-2.6-0.6-2.6-2.1H80c0,3.4,3.2,4.7,6.1,4.7c4.7,0,6.9-1.8,7.9-6.2L95.3,15.1z M87.6,18.3c-1.8,0-2.7-1.5-2.7-3.2
			c0-2.3,1.4-5.4,4-5.4c1.9,0,2.8,1.3,2.8,3.1C91.8,15.3,90.5,18.3,87.6,18.3z"/>
		<path class="st13" d="M85.4,7.5c0,0,0.1,0,0.1,0.1c0.6-0.3,1-0.5,1.2-0.5C86.2,7.1,85.8,7.3,85.4,7.5z"/>
		<path class="st13" d="M82.2,10.7c-0.1,0.1-0.1,0.2-0.2,0.4C82.1,10.9,82.2,10.8,82.2,10.7C82.2,10.7,82.2,10.7,82.2,10.7z"/>
		<path class="st13" d="M82.4,10.4L82.4,10.4c-0.1,0.1-0.1,0.2-0.2,0.3c0,0,0,0,0,0C82.3,10.6,82.3,10.5,82.4,10.4z"/>
		<path class="st13" d="M82.8,9.9l0-0.1c-0.1,0.2-0.3,0.4-0.4,0.6l0,0C82.5,10.2,82.6,10.1,82.8,9.9z"/>
	</g>
	<path class="st13" d="M108.8,11.8C108.8,11.8,108.8,11.7,108.8,11.8c0.1-0.4,0.1-0.6,0.3-1.1c0,0,0-0.1,0-0.1
		c0.1-0.2,0.1-0.4,0.2-0.6c0.7-2.1,2.2-3.9,4.5-4.4c0,0,0,0,0,0c0,0,0,0,0.1,0c0.3-0.1,0.6-0.1,1-0.1c1.3,0,2.3,0.3,2.9,0.9
		c0.1,0.1,0.2,0.2,0.2,0.2c0,0,0,0,0,0c0.4,0.5,0.6,1.1,0.6,2h4.1c0-0.5-0.1-0.9-0.1-1.3c-0.2-0.9-0.7-2.2-1.7-3.3
		c-0.1-0.1-0.2-0.2-0.3-0.3c-0.1-0.1-0.2-0.2-0.4-0.3c-0.7-0.5-1.5-0.8-2.3-1.1c0,0,0,0,0,0c-0.4-0.1-0.8-0.2-1.3-0.2
		c-0.1,0-0.2,0-0.4-0.1c-0.4,0-0.8-0.1-1.3-0.1c-1.3,0-3.4,0.2-5.4,1.5c-0.1,0.1-0.2,0.2-0.4,0.2c-0.2,0.1-0.4,0.2-0.5,0.4
		c-0.3,0.2-0.5,0.4-0.7,0.7c-0.1,0.1-0.1,0.1-0.2,0.2c-0.1,0.1-0.2,0.2-0.3,0.4c-1,1.2-1.9,2.7-2.4,4.9c-0.1,0.3-0.1,0.6-0.2,1
		c0,0,0,0,0,0c0,0.3-0.1,0.6-0.1,1c0,0.1,0,0.2,0,0.4c0,0.3,0,0.6,0,0.9c0,0.1,0,0.2,0,0.3c0,0.8,0,1.3,0.2,2.1
		c0.1,0.4,0.3,0.9,0.4,1.4l3.4-5.2C108.8,11.9,108.8,11.8,108.8,11.8z"/>
	<path class="st13" d="M114,14.4h4.3c-0.7,2.4-2.1,4.1-5.2,4.1c-3,0-4.2-2.2-4.3-4.8l-3,4.8c1.3,2.3,3.8,3.5,7.2,3.5
		c1.7,0,3.5-0.7,4.7-2.4h0.1v1.9h2.6l2.2-10.2h-8L114,14.4z"/>
</g>
</svg>
