<?xml version="1.0" encoding="utf-8"?>
<!-- Generator: Adobe Illustrator 21.1.0, SVG Export Plug-In . SVG Version: 6.00 Build 0)  -->
<svg version="1.1" id="Capa_1" xmlns="http://www.w3.org/2000/svg" xmlns:xlink="http://www.w3.org/1999/xlink" x="0px" y="0px"
	 viewBox="0 0 296.1 124.8" style="enable-background:new 0 0 296.1 124.8;" xml:space="preserve">
<style type="text/css">
	.st0{opacity:0.3;}
	.st1{clip-path:url(#SVGID_2_);}
	.st2{fill:#E1E5E8;}
	.st3{fill:#FF8300;}
	.st4{fill:#002856;}
	.st5{fill:#00B3E3;}
	.st6{fill:none;stroke:#002856;stroke-width:5;stroke-miterlimit:10;}
	.st7{clip-path:url(#SVGID_4_);fill:#FFFFFF;}
	.st8{clip-path:url(#SVGID_4_);}
	.st9{opacity:0.4;}
	.st10{fill:none;}
	.st11{fill:#01A8D8;}
	.st12{fill:#A7A9AC;}
	.st13{fill:#FFFFFF;}
	.st14{clip-path:url(#SVGID_6_);fill:url(#SVGID_7_);}
	.st15{clip-path:url(#SVGID_6_);fill:url(#SVGID_8_);}
	.st16{clip-path:url(#SVGID_6_);}
	.st17{fill:#F69320;}
	.st18{fill:#07BCE4;}
	.st19{fill:#F89828;}
	.st20{fill-rule:evenodd;clip-rule:evenodd;fill:#002856;}
	.st21{fill:#676767;}
	.st22{fill:#F47621;}
	.st23{fill-rule:evenodd;clip-rule:evenodd;fill:#FFFFFF;stroke:#002856;stroke-miterlimit:10;}
	.st24{clip-path:url(#SVGID_12_);fill:#FFFFFF;}
	.st25{clip-path:url(#SVGID_18_);fill:#FFFFFF;}
	.st26{clip-path:url(#SVGID_22_);fill:#FFFFFF;}
	.st27{clip-path:url(#SVGID_24_);fill:#FFFFFF;}
	.st28{clip-path:url(#SVGID_26_);fill-rule:evenodd;clip-rule:evenodd;fill:#FFFFFF;}
	.st29{clip-path:url(#SVGID_28_);}
	.st30{opacity:0.9;}
	.st31{fill:#17415E;}
</style>
<g>
	<polygon class="st3" points="2.2,120.5 83.9,120.5 83.4,123.8 0.2,123.8 	"/>
	<g>
		<path class="st4" d="M19.2,95.7H0l25.2-49.9h20l9.9,49.9H36l-0.7-6.2H21.6L19.2,95.7z M34,77.7l-0.7-8.8c-0.2-2.1-0.2-4.3-0.2-6.4
			h-0.7l-5.7,15.2H34z"/>
		<path class="st4" d="M95.8,66.1c-2.5-2.7-5.8-5-9.9-5c-5.4,0-10.5,4.3-11.4,9.7c-0.9,5.5,3.2,9.7,8.6,9.7c4.2,0,7.8-1.8,11.1-4.6
			l-3.5,18.6c-3.1,1.4-10,2-13.2,2c-14.2,0-23.6-11-21.3-25.3c2.3-14.6,15.6-26.2,30.2-26.2c4.1,0,8.2,0.7,11.8,2L95.8,66.1z"/>
		<path class="st4" d="M103.2,45.9h38.1l-2.6,16.2l-9.9-0.5l-5.4,34.1h-18.1l5.4-34.1l-10.1,0.5L103.2,45.9z"/>
		<path class="st4" d="M144.2,45.9h18.1l-7.9,49.9h-18.1L144.2,45.9z"/>
		<path class="st4" d="M219,45.9l-27.2,49.9h-15.3L165,45.9h18.9l3,22.7c0.3,2.4,0.5,4.9,0.1,7.4h0.4c0.4-2.5,1.3-5,2.4-7.4
			l10.2-22.7H219z"/>
		<path class="st4" d="M265.9,70.9c-2.5,16-16.4,25.6-31.6,25.6c-15.2,0-26.1-9.6-23.5-25.6c2.5-15.7,16.5-25.9,31.7-25.9
			C257.6,45.1,268.4,55.3,265.9,70.9z M229,71.2c-0.9,5.7,2.3,9.6,7.8,9.6c5.5,0,9.9-3.9,10.8-9.6c0.8-5.3-2-9.7-7.8-9.7
			C234.1,61.5,229.8,65.9,229,71.2z"/>
	</g>
	<path class="st5" d="M254.8,0c0,0,5.1,0.1,10.9,5.7c3.8,3.7,5.1,10,5.1,10s-4-0.8-8,0.5c-4.7,1.5-7.7,4.2-7.7,4.2s2.9-6,2.4-11.3
		C257,3.7,254.8,0,254.8,0z"/>
	<path class="st3" d="M251.9,24.3c4.2-1.6,12.4-3.6,21.3-3.2c13,0.6,22.9,6.1,22.9,6.1s-12.5-0.1-20.7,0.8c-8.5,1-15.4,2.6-15.4,2.6
		s6.3,6.1,8.4,12.7c2.7,8.5,0.8,15.1,0.8,15.1s-2.5-7.5-8.7-15.1c-5.2-6.5-10-10.1-10-10.1s-3.4,0.9-11,4
		c-7.4,3.1-15.7,8.5-15.7,8.5s4.8-7.2,12.4-13c4.3-3.2,7.4-4.8,7.4-4.8c-1.9-1.5-6.8-4.3-9.2-5.6c-6.5-3.6-17-7.5-17-7.5
		s9.5-0.4,20,3C248.8,21.6,251.9,24.3,251.9,24.3z"/>
	<g>
		<path class="st5" d="M89.1,124.4h-2.3l2.9-18.3H92L89.1,124.4z"/>
		<path class="st5" d="M95.5,114.6L95.5,114.6c0.9-1.2,2.4-1.9,3.8-1.9c3.2,0,3.7,2.2,3.3,4.9l-1.1,6.8h-2.2l1-6.5
			c0.3-1.9,0.2-3.3-2-3.3c-2.8,0-3.2,2.5-3.5,4.5l-0.8,5.2h-2.2l1.8-11.4h2.2L95.5,114.6z"/>
		<path class="st5" d="M106.4,124.4h-2.2l1.5-9.3h-1.2l0.3-2h1.2l0.7-4.3h2.2l-0.7,4.3h2.1l-0.3,2h-2.1L106.4,124.4z"/>
		<path class="st5" d="M111.4,119.1c-0.3,1.9,0.7,3.8,2.8,3.8c1.7,0,2.7-0.8,3.8-2.2l1.7,1c-1.4,2-3.6,3.1-5.8,3.1
			c-3.5,0-5.2-2.6-4.6-6c0.6-3.5,2.8-6.1,6.5-6.1c3.6,0,4.9,2.7,4.4,6l-0.1,0.3H111.4z M118.1,117.4c0-1.7-0.9-2.8-2.7-2.8
			c-1.7,0-3.2,1.2-3.7,2.8H118.1z"/>
		<path class="st5" d="M124.4,114.9L124.4,114.9c0.8-1.3,2.1-2.2,3.5-2.2c0.6,0,1.2,0.2,1.7,0.6l-1.3,2c-0.3-0.3-0.8-0.5-1.3-0.5
			c-2.4,0-3,2.2-3.3,4l-0.9,5.6h-2.2l1.8-11.4h2.2L124.4,114.9z"/>
		<path class="st5" d="M132.5,114.6L132.5,114.6c0.9-1.2,2.4-1.9,3.8-1.9c3.2,0,3.7,2.2,3.3,4.9l-1.1,6.8h-2.2l1-6.5
			c0.3-1.9,0.2-3.3-2-3.3c-2.8,0-3.2,2.5-3.5,4.5l-0.8,5.2h-2.2l1.8-11.4h2.2L132.5,114.6z"/>
		<path class="st5" d="M151.6,124.4h-2.2l0.3-1.8h0c-1.1,1.3-2.6,2.2-4.2,2.2c-3.5,0-5-2.9-4.5-6.1c0.5-3.1,3-6,6.3-6
			c1.7,0,2.9,0.9,3.6,2.2h0l0.3-1.9h2.2L151.6,124.4z M150.4,118.7c0.4-2.2-0.7-4.1-3-4.1c-2.3,0-3.9,2-4.2,4.1
			c-0.3,2.1,0.6,4.1,2.9,4.1C148.4,122.8,150,121,150.4,118.7z"/>
		<path class="st5" d="M156.4,124.4h-2.2l1.5-9.3h-1.2l0.3-2h1.2l0.7-4.3h2.2l-0.7,4.3h2.1l-0.3,2h-2.1L156.4,124.4z"/>
		<path class="st5" d="M161.8,124.4h-2.2l1.8-11.4h2.2L161.8,124.4z M164.9,107.8c-0.1,0.8-0.9,1.5-1.7,1.5c-0.8,0-1.4-0.7-1.3-1.5
			c0.1-0.9,0.9-1.5,1.7-1.5C164.4,106.3,165,107,164.9,107.8z"/>
		<path class="st5" d="M176.8,118.7c-0.5,3.4-3.6,6-7,6c-3.4,0-5.7-2.6-5.1-6c0.5-3.4,3.6-6,7-6
			C175.1,112.7,177.4,115.3,176.8,118.7z M166.9,118.7c-0.3,2.1,1.1,4,3.3,4c2.2,0,4.2-1.8,4.5-4c0.3-2.2-1.1-4-3.3-4
			C169.2,114.8,167.2,116.6,166.9,118.7z"/>
		<path class="st5" d="M181.1,114.6L181.1,114.6c0.9-1.2,2.4-1.9,3.8-1.9c3.2,0,3.7,2.2,3.3,4.9l-1.1,6.8h-2.2l1-6.5
			c0.3-1.9,0.2-3.3-2-3.3c-2.8,0-3.2,2.5-3.5,4.5l-0.8,5.2h-2.2l1.8-11.4h2.2L181.1,114.6z"/>
		<path class="st5" d="M200.2,124.4H198l0.3-1.8h0c-1.1,1.3-2.6,2.2-4.2,2.2c-3.5,0-5-2.9-4.5-6.1c0.5-3.1,3-6,6.3-6
			c1.7,0,2.9,0.9,3.6,2.2h0l0.3-1.9h2.2L200.2,124.4z M199.1,118.7c0.4-2.2-0.7-4.1-3-4.1c-2.3,0-3.9,2-4.2,4.1
			c-0.3,2.1,0.6,4.1,2.9,4.1C197.1,122.8,198.7,121,199.1,118.7z"/>
		<path class="st5" d="M204.8,124.4h-2.2l3.3-21.1h2.2L204.8,124.4z"/>
		<path class="st5" d="M216.8,106.1h2.2c3.5,0,6.6,0.9,5.9,5c-0.2,1.3-1.2,2.9-2.5,3.5l0,0c2.1,0.4,3.3,2.5,2.9,4.6
			c-0.6,3.7-3.9,5.1-7.2,5.1h-4.3L216.8,106.1z M216.5,122.4h1.8c2.1,0,4.4-0.6,4.8-3.2c0.4-2.6-2.1-3.1-4.2-3.1h-1.4L216.5,122.4z
			 M217.8,114.2h0.6c2.2,0,4-0.4,4.4-3.1c0.4-2.6-1.3-3-3.4-3h-0.6L217.8,114.2z"/>
		<path class="st5" d="M237,124.4h-2.2l0.3-1.8h0c-1.1,1.3-2.6,2.2-4.2,2.2c-3.5,0-5-2.9-4.5-6.1c0.5-3.1,3-6,6.3-6
			c1.7,0,2.9,0.9,3.6,2.2h0l0.3-1.9h2.2L237,124.4z M235.8,118.7c0.4-2.2-0.7-4.1-3-4.1c-2.3,0-3.9,2-4.2,4.1
			c-0.3,2.1,0.6,4.1,2.9,4.1C233.9,122.8,235.5,121,235.8,118.7z"/>
		<path class="st5" d="M243.1,114.6L243.1,114.6c0.9-1.2,2.4-1.9,3.8-1.9c3.2,0,3.7,2.2,3.3,4.9l-1.1,6.8h-2.2l1-6.5
			c0.3-1.9,0.2-3.3-2-3.3c-2.8,0-3.2,2.5-3.5,4.5l-0.8,5.2h-2.2l1.8-11.4h2.2L243.1,114.6z"/>
		<path class="st5" d="M254.9,117.3l5-4.3h2.9l-5.6,4.7l4.3,6.7h-2.8l-3.2-5.2l-0.9,0.8l-0.7,4.4h-2.2l3.3-21.1h2.2L254.9,117.3z"/>
	</g>
</g>
</svg>
