<?xml version="1.0" encoding="utf-8"?>
<!-- Generator: Adobe Illustrator 16.0.0, SVG Export Plug-In . SVG Version: 6.00 Build 0)  -->
<!DOCTYPE svg PUBLIC "-//W3C//DTD SVG 1.1//EN" "http://www.w3.org/Graphics/SVG/1.1/DTD/svg11.dtd">
<svg version="1.1" id="Layer_1" xmlns="http://www.w3.org/2000/svg" xmlns:xlink="http://www.w3.org/1999/xlink" x="0px" y="0px"
	 width="42px" height="42px" viewBox="0 0 42 42" enable-background="new 0 0 42 42" xml:space="preserve">
<g>
	<g>
		<g>
			<path fill="#172B54" d="M15.212,22.992c0.759,0,1.518-0.096,2.277-0.189v-7.686c-0.76-0.095-1.424-0.189-2.277-0.189
				c-4.46,0-8.066,1.613-8.066,3.701v0.759C7.146,21.379,10.752,22.992,15.212,22.992z"/>
			<path fill="#172B54" d="M15.212,27.074c0.759,0,1.518-0.096,2.277-0.191v-2.277c-0.76,0.096-1.424,0.189-2.277,0.189
				c-3.891,0-7.117-1.232-7.877-2.941c-0.095,0.285-0.189,0.57-0.189,0.855v0.758C7.146,25.461,10.752,27.074,15.212,27.074z"/>
			<path fill="#172B54" d="M17.394,28.971v-0.189c-0.759,0.094-1.423,0.189-2.277,0.189c-3.89,0-7.116-1.232-7.876-2.941
				c0,0.189-0.095,0.475-0.095,0.76v0.758c0,1.992,3.606,3.605,8.066,3.605c0.854,0,1.707-0.094,2.562-0.189
				c-0.189-0.379-0.284-0.854-0.284-1.232v-0.76H17.394z"/>
			<path fill="#172B54" d="M26.788,8.759c-4.46,0-8.065,1.613-8.065,3.606v0.759c0,1.993,3.605,3.606,8.065,3.606
				s8.066-1.613,8.066-3.606v-0.759C34.854,10.372,31.248,8.759,26.788,8.759z"/>
			<path fill="#172B54" d="M26.788,18.628c-3.891,0-7.116-1.234-7.876-2.941c-0.095,0.284-0.189,0.474-0.189,0.759v0.854
				c0,1.993,3.605,3.605,8.065,3.605s8.066-1.613,8.066-3.605v-0.854c0-0.285-0.096-0.475-0.19-0.759
				C33.905,17.394,30.679,18.628,26.788,18.628z"/>
			<path fill="#172B54" d="M26.788,22.709c-3.891,0-7.116-1.234-7.876-2.943c-0.095,0.285-0.189,0.475-0.189,0.759v0.759
				c0,1.993,3.605,3.606,8.065,3.606s8.066-1.613,8.066-3.606v-0.759c0-0.285-0.096-0.474-0.19-0.759
				C33.905,21.475,30.679,22.709,26.788,22.709z"/>
			<path fill="#172B54" d="M26.788,26.979c-3.891,0-7.116-1.234-7.876-2.941c-0.095,0.283-0.189,0.475-0.189,0.758v0.76
				c0,1.992,3.605,3.605,8.065,3.605s8.066-1.613,8.066-3.605v-0.664c0-0.285-0.096-0.475-0.19-0.76
				C33.905,25.744,30.679,26.979,26.788,26.979z"/>
			<path fill="#172B54" d="M26.788,31.059c-3.891,0-7.116-1.234-7.876-2.941c-0.095,0.285-0.189,0.475-0.189,0.758v0.76
				c0,1.992,3.605,3.605,8.065,3.605s8.066-1.613,8.066-3.605v-0.76c0-0.283-0.096-0.473-0.19-0.758
				C33.905,29.824,30.679,31.059,26.788,31.059z"/>
		</g>
	</g>
</g>
</svg>
