<?xml version="1.0" encoding="utf-8"?>
<!-- Generator: Adobe Illustrator 16.0.0, SVG Export Plug-In . SVG Version: 6.00 Build 0)  -->
<!DOCTYPE svg PUBLIC "-//W3C//DTD SVG 1.1//EN" "http://www.w3.org/Graphics/SVG/1.1/DTD/svg11.dtd">
<svg version="1.1" id="Layer_1" xmlns="http://www.w3.org/2000/svg" xmlns:xlink="http://www.w3.org/1999/xlink" x="0px" y="0px"
	 width="42.519px" height="42.521px" viewBox="0 0 42.519 42.521" enable-background="new 0 0 42.519 42.521" xml:space="preserve">
<g>
	<g>
		<path fill="#172B54" d="M22.015,24.904c-1.156,0.889-3.201,2.756-5.512,2.756c-3.556,0-6.489-3.111-6.489-6.578
			c0-3.556,2.934-6.134,6.489-6.134c2.134,0,4,1.156,5.156,2.934h3.823c-1.512-4.445-4.978-6.4-8.979-6.4
			c-5.422,0-9.778,4.178-9.778,9.512c0,5.423,4.356,10.046,9.778,10.046c4.178,0,7.822-3.468,9.156-6.135H22.015z"/>
		<polygon fill="#172B54" points="27.259,26.326 27.259,23.125 18.37,23.125 18.37,19.57 27.259,19.57 27.259,16.459 35.793,21.437 
					"/>
	</g>
</g>
</svg>
