<?xml version="1.0" encoding="utf-8"?>
<!-- Generator: Adobe Illustrator 21.1.0, SVG Export Plug-In . SVG Version: 6.00 Build 0)  -->
<svg version="1.1" id="Capa_1" xmlns="http://www.w3.org/2000/svg" xmlns:xlink="http://www.w3.org/1999/xlink" x="0px" y="0px"
	 viewBox="0 0 27 27" style="enable-background:new 0 0 27 27;" xml:space="preserve">
<style type="text/css">
	.st0{opacity:0.3;}
	.st1{clip-path:url(#SVGID_2_);}
	.st2{fill:#E1E5E8;}
	.st3{fill:#FF8300;}
	.st4{fill:#002856;}
	.st5{fill:#00B3E3;}
	.st6{fill:none;stroke:#002856;stroke-width:5;stroke-miterlimit:10;}
	.st7{clip-path:url(#SVGID_4_);fill:#FFFFFF;}
	.st8{clip-path:url(#SVGID_4_);}
	.st9{opacity:0.4;}
	.st10{fill:none;}
	.st11{fill:#01A8D8;}
	.st12{fill:#A7A9AC;}
	.st13{fill:#FFFFFF;}
	.st14{clip-path:url(#SVGID_6_);fill:url(#SVGID_7_);}
	.st15{clip-path:url(#SVGID_6_);fill:url(#SVGID_8_);}
	.st16{clip-path:url(#SVGID_6_);}
	.st17{fill:#F69320;}
	.st18{fill:#07BCE4;}
	.st19{fill:#F89828;}
	.st20{fill-rule:evenodd;clip-rule:evenodd;fill:#002856;}
	.st21{fill:#676767;}
	.st22{fill:#F47621;}
	.st23{fill-rule:evenodd;clip-rule:evenodd;fill:#FFFFFF;stroke:#002856;stroke-miterlimit:10;}
	.st24{clip-path:url(#SVGID_12_);fill:#FFFFFF;}
	.st25{clip-path:url(#SVGID_18_);fill:#FFFFFF;}
	.st26{clip-path:url(#SVGID_22_);fill:#FFFFFF;}
	.st27{clip-path:url(#SVGID_24_);fill:#FFFFFF;}
	.st28{clip-path:url(#SVGID_26_);fill-rule:evenodd;clip-rule:evenodd;fill:#FFFFFF;}
	.st29{clip-path:url(#SVGID_28_);}
	.st30{opacity:0.9;}
	.st31{fill:#17415E;}
</style>
<g>
	<g>
		<g>
			<defs>
				<circle id="SVGID_9_" cx="13.5" cy="13.5" r="13.5"/>
			</defs>
			<clipPath id="SVGID_2_">
				<use xlink:href="#SVGID_9_"  style="overflow:visible;"/>
			</clipPath>
		</g>
	</g>
	<g>
		<g>
			<defs>
				<circle id="SVGID_11_" cx="13.5" cy="13.5" r="13.5"/>
			</defs>
			<use xlink:href="#SVGID_11_"  style="overflow:visible;fill:#002856;"/>
			<clipPath id="SVGID_4_">
				<use xlink:href="#SVGID_11_"  style="overflow:visible;"/>
			</clipPath>
			<path class="st7" d="M12.9,10.3c0,0,2.7-0.7,3-1.4c0.3-0.7,1.4-5.6-0.5-6.3c-1.9-0.7-4.7,0.4-5.3,1.9C9.4,6,7.7,11.9,11.3,18.5
				c3.6,6.6,8.3,8.2,9.3,8.1c1-0.1,4.3-1.5,4.3-3.5c0-2.1-3.8-4-4.8-4c-1.1-0.1-2.7,1.8-2.7,1.8s-2.5-2.6-3.5-5.6
				C12.8,12.3,12.9,10.3,12.9,10.3z"/>
		</g>
	</g>
	<g>
		<g>
			<defs>
				<circle id="SVGID_13_" cx="13.5" cy="13.5" r="13.5"/>
			</defs>
			<clipPath id="SVGID_6_">
				<use xlink:href="#SVGID_13_"  style="overflow:visible;"/>
			</clipPath>
		</g>
	</g>
</g>
</svg>
