<?xml version="1.0" encoding="utf-8"?>
<!-- Generator: Adobe Illustrator 16.0.0, SVG Export Plug-In . SVG Version: 6.00 Build 0)  -->
<!DOCTYPE svg PUBLIC "-//W3C//DTD SVG 1.1//EN" "http://www.w3.org/Graphics/SVG/1.1/DTD/svg11.dtd">
<svg version="1.1" id="Layer_1" xmlns="http://www.w3.org/2000/svg" xmlns:xlink="http://www.w3.org/1999/xlink" x="0px" y="0px"
	 width="42px" height="42px" viewBox="0 0 42 42" enable-background="new 0 0 42 42" xml:space="preserve">
<g>
	<g>
		<g>
			<path fill="#172B54" d="M9.641,23.151v-2.415c0-1.435,0.755-2.189,2.264-2.189l6.793,0.076l0.076-8.831h2.415
				c1.435,0,2.189,0.755,2.189,2.188l-0.151,11.321L9.641,23.151L9.641,23.151z"/>
		</g>
		<path fill="#172B54" d="M23.227,24.207l-0.075,8.001h-2.416c-1.434,0-2.189-0.754-2.189-2.188l0.076-5.812h0.83H23.227
			L23.227,24.207z M32.359,18.85v2.339c0,1.435-0.755,2.189-2.264,2.189l-6.039-0.076l0.076-3.622v-0.906L32.359,18.85L32.359,18.85
			z"/>
		<g>
			<path fill="#172B54" d="M23.227,24.207l-0.075,8.001h-2.416c-1.434,0-2.189-0.754-2.189-2.188l0.076-5.812h0.83H23.227
				L23.227,24.207z"/>
		</g>
		<g>
			<path fill="#172B54" d="M32.359,18.85v2.339c0,1.435-0.755,2.189-2.264,2.189l-6.039-0.076l0.076-3.622v-0.906L32.359,18.85
				L32.359,18.85z"/>
		</g>
	</g>
</g>
</svg>
