<?xml version="1.0" encoding="utf-8"?>
<!-- Generator: Adobe Illustrator 21.1.0, SVG Export Plug-In . SVG Version: 6.00 Build 0)  -->
<svg version="1.1" id="Capa_1" xmlns="http://www.w3.org/2000/svg" xmlns:xlink="http://www.w3.org/1999/xlink" x="0px" y="0px"
	 viewBox="0 0 156.8 158.4" style="enable-background:new 0 0 156.8 158.4;" xml:space="preserve">
<style type="text/css">
	.st0{opacity:0.3;}
	.st1{clip-path:url(#SVGID_2_);}
	.st2{fill:#E1E5E8;}
	.st3{fill:#FF8300;}
	.st4{fill:#002856;}
	.st5{fill:#00B3E3;}
	.st6{fill:none;stroke:#002856;stroke-width:5;stroke-miterlimit:10;}
	.st7{clip-path:url(#SVGID_4_);fill:#FFFFFF;}
	.st8{clip-path:url(#SVGID_4_);}
	.st9{opacity:0.4;}
	.st10{fill:none;}
	.st11{fill:#01A8D8;}
	.st12{fill:#A7A9AC;}
	.st13{fill:#FFFFFF;}
	.st14{clip-path:url(#SVGID_6_);fill:url(#SVGID_7_);}
	.st15{clip-path:url(#SVGID_6_);fill:url(#SVGID_8_);}
	.st16{clip-path:url(#SVGID_6_);}
	.st17{fill:#F69320;}
	.st18{fill:#07BCE4;}
	.st19{fill:#F89828;}
	.st20{fill-rule:evenodd;clip-rule:evenodd;fill:#002856;}
	.st21{fill:#676767;}
	.st22{fill:#F47621;}
	.st23{fill-rule:evenodd;clip-rule:evenodd;fill:#FFFFFF;stroke:#002856;stroke-miterlimit:10;}
	.st24{clip-path:url(#SVGID_12_);fill:#FFFFFF;}
	.st25{clip-path:url(#SVGID_18_);fill:#FFFFFF;}
	.st26{clip-path:url(#SVGID_22_);fill:#FFFFFF;}
	.st27{clip-path:url(#SVGID_24_);fill:#FFFFFF;}
	.st28{clip-path:url(#SVGID_26_);fill-rule:evenodd;clip-rule:evenodd;fill:#FFFFFF;}
	.st29{clip-path:url(#SVGID_28_);}
	.st30{opacity:0.9;}
	.st31{fill:#17415E;}
</style>
<g>
	<g>
		<g>
			<path class="st4" d="M99.7,33.8H53.8c-3.8,0-7,3.1-7,7v89c0,3.8,3.1,7,7,7h45.9c3.8,0,6.9-3.1,6.9-7v-89
				C106.6,36.9,103.5,33.8,99.7,33.8L99.7,33.8z M69.4,38.8h14.7c0.5,0,0.8,0.4,0.8,0.9c0,0.5-0.4,0.8-0.8,0.8H69.4
				c-0.5,0-0.9-0.4-0.9-0.8C68.5,39.1,68.9,38.8,69.4,38.8L69.4,38.8z M76.7,133.2c-1.9,0-3.5-1.6-3.5-3.5c0-1.9,1.5-3.5,3.5-3.5
				c1.9,0,3.5,1.6,3.5,3.5C80.2,131.7,78.7,133.2,76.7,133.2L76.7,133.2z M101.8,123.8H51.7V44.8h50.1V123.8z M101.8,123.8"/>
		</g>
	</g>
	<path class="st6" d="M52.8,6.6c7.8-2.6,16.1-4.1,24.7-4.1c42.4,0,76.7,34.3,76.7,76.7c0,42.4-34.3,76.7-76.7,76.7
		c-37.1,0-68-26.3-75.1-61.2"/>
</g>
</svg>
