<?xml version="1.0" encoding="utf-8"?>
<!-- Generator: Adobe Illustrator 21.1.0, SVG Export Plug-In . SVG Version: 6.00 Build 0)  -->
<svg version="1.1" id="Capa_1" xmlns="http://www.w3.org/2000/svg" xmlns:xlink="http://www.w3.org/1999/xlink" x="0px" y="0px"
	 viewBox="0 0 27 27" style="enable-background:new 0 0 27 27;" xml:space="preserve">
<style type="text/css">
	.st0{opacity:0.3;}
	.st1{clip-path:url(#SVGID_2_);}
	.st2{fill:#E1E5E8;}
	.st3{fill:#FF8300;}
	.st4{fill:#002856;}
	.st5{fill:#00B3E3;}
	.st6{fill:none;stroke:#002856;stroke-width:5;stroke-miterlimit:10;}
	.st7{clip-path:url(#SVGID_4_);fill:#FFFFFF;}
	.st8{clip-path:url(#SVGID_4_);}
	.st9{opacity:0.4;}
	.st10{fill:none;}
	.st11{fill:#01A8D8;}
	.st12{fill:#A7A9AC;}
	.st13{fill:#FFFFFF;}
	.st14{clip-path:url(#SVGID_6_);fill:url(#SVGID_7_);}
	.st15{clip-path:url(#SVGID_6_);fill:url(#SVGID_8_);}
	.st16{clip-path:url(#SVGID_6_);}
	.st17{fill:#F69320;}
	.st18{fill:#07BCE4;}
	.st19{fill:#F89828;}
	.st20{fill-rule:evenodd;clip-rule:evenodd;fill:#002856;}
	.st21{fill:#676767;}
	.st22{fill:#F47621;}
	.st23{fill-rule:evenodd;clip-rule:evenodd;fill:#FFFFFF;stroke:#002856;stroke-miterlimit:10;}
	.st24{clip-path:url(#SVGID_12_);fill:#FFFFFF;}
	.st25{clip-path:url(#SVGID_18_);fill:#FFFFFF;}
	.st26{clip-path:url(#SVGID_22_);fill:#FFFFFF;}
	.st27{clip-path:url(#SVGID_24_);fill:#FFFFFF;}
	.st28{clip-path:url(#SVGID_26_);fill-rule:evenodd;clip-rule:evenodd;fill:#FFFFFF;}
	.st29{clip-path:url(#SVGID_28_);}
	.st30{opacity:0.9;}
	.st31{fill:#17415E;}
</style>
<g>
	<g>
		<defs>
			<circle id="SVGID_27_" cx="13.5" cy="13.5" r="13.5"/>
		</defs>
		<use xlink:href="#SVGID_27_"  style="overflow:visible;fill:#142D52;"/>
		<clipPath id="SVGID_2_">
			<use xlink:href="#SVGID_27_"  style="overflow:visible;"/>
		</clipPath>
		<g class="st1">
			<g>
				<path class="st13" d="M9.4,5.7h1.3L11.5,9h0.1l0.8-3.4h1.3l-1.5,4.9v3.5h-1.3v-3.3L9.4,5.7z"/>
				<path class="st13" d="M13.7,9.3c0-0.5,0.2-0.9,0.5-1.1c0.3-0.3,0.7-0.4,1.3-0.4c0.5,0,0.9,0.1,1.2,0.4C16.9,8.5,17,8.9,17,9.3
					v3.2c0,0.5-0.2,1-0.5,1.3c-0.3,0.3-0.7,0.5-1.2,0.5c-0.5,0-0.9-0.2-1.2-0.5c-0.3-0.3-0.5-0.7-0.5-1.3V9.3z M14.9,12.6
					c0,0.2,0,0.3,0.1,0.4c0.1,0.1,0.2,0.1,0.4,0.1c0.2,0,0.3,0,0.4-0.1c0.1-0.1,0.1-0.2,0.1-0.4V9.2c0-0.1,0-0.2-0.1-0.3
					c-0.1-0.1-0.2-0.1-0.4-0.1c-0.1,0-0.3,0-0.3,0.1c-0.1,0.1-0.1,0.2-0.1,0.3V12.6z"/>
				<path class="st13" d="M21.3,7.9v6.2h-1.2v-0.7c-0.2,0.3-0.4,0.4-0.7,0.6c-0.2,0.1-0.5,0.2-0.7,0.2c-0.3,0-0.5-0.1-0.6-0.3
					c-0.1-0.2-0.2-0.5-0.2-0.8V7.9h1.2v4.8c0,0.1,0,0.3,0.1,0.3c0.1,0.1,0.1,0.1,0.2,0.1c0.1,0,0.2,0,0.3-0.1
					c0.1-0.1,0.2-0.2,0.4-0.3V7.9H21.3z"/>
			</g>
			<g>
				<path class="st13" d="M17.4,19.4c-0.1,0-0.1,0-0.2,0c-0.1,0-0.1,0.1-0.2,0.2v3.1c0.1,0.1,0.1,0.1,0.2,0.2c0.1,0,0.1,0.1,0.2,0.1
					c0.1,0,0.2,0,0.3-0.1c0.1-0.1,0.1-0.2,0.1-0.3v-2.6c0-0.2,0-0.3-0.1-0.4C17.6,19.4,17.5,19.4,17.4,19.4z"/>
				<path class="st13" d="M20.8,19.4c-0.2,0-0.3,0-0.3,0.1c-0.1,0.1-0.1,0.2-0.1,0.5v0.5h0.8V20c0-0.2,0-0.4-0.1-0.5
					C21.1,19.4,21,19.4,20.8,19.4z"/>
				<path class="st13" d="M23.4,17.5c0-1.2-1-2.2-2.2-2.2c-1.8-0.1-3.5-0.1-5.4-0.1c-1.8,0-3.6,0-5.4,0.1c-1.2,0-2.2,1-2.2,2.2
					c-0.1,1-0.1,1.9-0.1,2.9c0,1,0,1.9,0.1,2.9c0,1.2,1,2.2,2.2,2.2c1.8,0.1,3.5,0.1,5.4,0.1c1.8,0,3.6,0,5.4-0.1
					c1.2,0,2.2-1,2.2-2.2c0.1-1,0.1-1.9,0.1-2.9C23.5,19.4,23.5,18.4,23.4,17.5z M11.4,23.7h-1.1v-5.8H9.2v-1h3.2v1h-1.1V23.7z
					 M15.1,23.7h-0.9v-0.6c-0.2,0.2-0.4,0.4-0.5,0.5c-0.2,0.1-0.4,0.2-0.5,0.2c-0.2,0-0.4-0.1-0.5-0.2c-0.1-0.1-0.2-0.4-0.2-0.7
					v-4.2h0.9v3.9c0,0.1,0,0.2,0.1,0.3c0,0.1,0.1,0.1,0.2,0.1c0.1,0,0.2,0,0.3-0.1c0.1-0.1,0.2-0.2,0.3-0.3v-3.8h0.9V23.7z
					 M18.7,22.6c0,0.4-0.1,0.6-0.2,0.8c-0.1,0.2-0.4,0.3-0.6,0.3c-0.2,0-0.3,0-0.5-0.1c-0.1-0.1-0.3-0.2-0.4-0.3v0.4h-0.9v-6.8H17
					V19c0.1-0.2,0.3-0.3,0.4-0.4c0.1-0.1,0.3-0.1,0.4-0.1c0.3,0,0.5,0.1,0.7,0.3c0.2,0.2,0.2,0.5,0.2,0.9V22.6z M22.2,21.3h-1.8v0.9
					c0,0.3,0,0.4,0.1,0.6c0.1,0.1,0.2,0.2,0.3,0.2c0.2,0,0.3,0,0.3-0.1c0.1-0.1,0.1-0.3,0.1-0.6v-0.4h1v0.4c0,0.5-0.1,0.9-0.4,1.2
					c-0.2,0.3-0.6,0.4-1,0.4c-0.4,0-0.7-0.1-1-0.4c-0.2-0.3-0.4-0.7-0.4-1.1V20c0-0.4,0.1-0.8,0.4-1.1c0.3-0.3,0.6-0.4,1-0.4
					c0.4,0,0.8,0.1,1,0.4c0.2,0.3,0.3,0.6,0.3,1.1V21.3z"/>
			</g>
		</g>
	</g>
</g>
</svg>
