<?xml version="1.0" encoding="utf-8"?>
<!-- Generator: Adobe Illustrator 21.1.0, SVG Export Plug-In . SVG Version: 6.00 Build 0)  -->
<svg version="1.1" id="Capa_1" xmlns="http://www.w3.org/2000/svg" xmlns:xlink="http://www.w3.org/1999/xlink" x="0px" y="0px"
	 viewBox="0 0 28.6 28.4" style="enable-background:new 0 0 28.6 28.4;" xml:space="preserve">
<style type="text/css">
	.st0{opacity:0.3;}
	.st1{clip-path:url(#SVGID_2_);}
	.st2{fill:#E1E5E8;}
	.st3{fill:#FF8300;}
	.st4{fill:#002856;}
	.st5{fill:#00B3E3;}
	.st6{fill:none;stroke:#002856;stroke-width:5;stroke-miterlimit:10;}
	.st7{clip-path:url(#SVGID_4_);fill:#FFFFFF;}
	.st8{clip-path:url(#SVGID_4_);}
	.st9{opacity:0.4;}
	.st10{fill:none;}
	.st11{fill:#01A8D8;}
	.st12{fill:#A7A9AC;}
	.st13{fill:#FFFFFF;}
	.st14{clip-path:url(#SVGID_6_);fill:url(#SVGID_7_);}
	.st15{clip-path:url(#SVGID_6_);fill:url(#SVGID_8_);}
	.st16{clip-path:url(#SVGID_6_);}
	.st17{fill:#F69320;}
	.st18{fill:#07BCE4;}
	.st19{fill:#F89828;}
	.st20{fill-rule:evenodd;clip-rule:evenodd;fill:#002856;}
	.st21{fill:#676767;}
	.st22{fill:#F47621;}
	.st23{fill-rule:evenodd;clip-rule:evenodd;fill:#FFFFFF;stroke:#002856;stroke-miterlimit:10;}
	.st24{clip-path:url(#SVGID_12_);fill:#FFFFFF;}
	.st25{clip-path:url(#SVGID_18_);fill:#FFFFFF;}
	.st26{clip-path:url(#SVGID_22_);fill:#FFFFFF;}
	.st27{clip-path:url(#SVGID_24_);fill:#FFFFFF;}
	.st28{clip-path:url(#SVGID_26_);fill-rule:evenodd;clip-rule:evenodd;fill:#FFFFFF;}
	.st29{clip-path:url(#SVGID_28_);}
	.st30{opacity:0.9;}
	.st31{fill:#17415E;}
</style>
<g>
	<g>
		<path class="st4" d="M14.3,11.9c-2.5,0-4.5,2-4.5,4.5c0,2.5,2,4.5,4.5,4.5c2.5,0,4.5-2,4.5-4.5C18.8,13.9,16.8,11.9,14.3,11.9z
			 M12.7,17.9c-0.6,0-1-0.7-1-1.5c0-0.9,0.5-1.5,1-1.5c0.6,0,1,0.7,1,1.5C13.7,17.2,13.3,17.9,12.7,17.9z M15.6,17.9
			c-0.6,0-1-0.7-1-1.5c0-0.9,0.5-1.5,1-1.5c0.6,0,1,0.7,1,1.5C16.7,17.2,16.2,17.9,15.6,17.9z"/>
		<path class="st4" d="M28.6,3.9c0-0.9-0.1-3.1-1.1-3.8C27.4,0,27.3,0,27.1,0c-1.3,0-5,2.1-6.6,3.7l-2-1c-0.3-0.1-0.6,0-0.7,0.3
			l-0.5,1c-1.9-0.4-3.9-0.5-5.9-0.1L10.9,3c-0.1-0.3-0.5-0.4-0.8-0.3l-2,1C6.6,2.1,2.9,0,1.6,0C1.4,0,1.2,0,1.1,0.1
			C0.1,0.8,0,3,0,3.9c0,2.3,0.8,5.3,2.3,6.5c-1,1.7-1.5,3.7-1.5,5.6c0,2.8,1,5.4,2.8,7.6v4.8h2.9l0.7-1.8c2.1,1.2,4.5,1.8,6.9,1.8
			c2.5,0,4.9-0.6,7-1.9l0.7,1.9h2.9v-5c1.7-2.2,2.7-4.7,2.7-7.4c0-1.9-0.5-3.7-1.3-5.4c0,0,0.1,0,0.1-0.1
			C27.8,9.5,28.6,6.4,28.6,3.9z M14.3,22.5c-3.4,0-6.1-2.8-6.1-6.1c0-3.4,2.8-6.1,6.1-6.1c3.4,0,6.1,2.8,6.1,6.1
			C20.4,19.7,17.7,22.5,14.3,22.5z"/>
	</g>
</g>
</svg>
