<?xml version="1.0" encoding="utf-8"?>
<!-- Generator: Adobe Illustrator 21.1.0, SVG Export Plug-In . SVG Version: 6.00 Build 0)  -->
<svg version="1.1" id="Capa_1" xmlns="http://www.w3.org/2000/svg" xmlns:xlink="http://www.w3.org/1999/xlink" x="0px" y="0px"
	 viewBox="0 0 27 27.6" style="enable-background:new 0 0 27 27.6;" xml:space="preserve">
<style type="text/css">
	.st0{opacity:0.3;}
	.st1{clip-path:url(#SVGID_2_);}
	.st2{fill:#E1E5E8;}
	.st3{fill:#FF8300;}
	.st4{fill:#002856;}
	.st5{fill:#00B3E3;}
	.st6{fill:none;stroke:#002856;stroke-width:5;stroke-miterlimit:10;}
	.st7{clip-path:url(#SVGID_4_);fill:#FFFFFF;}
	.st8{clip-path:url(#SVGID_4_);}
	.st9{opacity:0.4;}
	.st10{fill:none;}
	.st11{fill:#01A8D8;}
	.st12{fill:#A7A9AC;}
	.st13{fill:#FFFFFF;}
	.st14{clip-path:url(#SVGID_6_);fill:url(#SVGID_7_);}
	.st15{clip-path:url(#SVGID_6_);fill:url(#SVGID_8_);}
	.st16{clip-path:url(#SVGID_6_);}
	.st17{fill:#F69320;}
	.st18{fill:#07BCE4;}
	.st19{fill:#F89828;}
	.st20{fill-rule:evenodd;clip-rule:evenodd;fill:#002856;}
	.st21{fill:#676767;}
	.st22{fill:#F47621;}
	.st23{fill-rule:evenodd;clip-rule:evenodd;fill:#FFFFFF;stroke:#002856;stroke-miterlimit:10;}
	.st24{clip-path:url(#SVGID_12_);fill:#FFFFFF;}
	.st25{clip-path:url(#SVGID_18_);fill:#FFFFFF;}
	.st26{clip-path:url(#SVGID_22_);fill:#FFFFFF;}
	.st27{clip-path:url(#SVGID_24_);fill:#FFFFFF;}
	.st28{clip-path:url(#SVGID_26_);fill-rule:evenodd;clip-rule:evenodd;fill:#FFFFFF;}
	.st29{clip-path:url(#SVGID_28_);}
	.st30{opacity:0.9;}
	.st31{fill:#17415E;}
</style>
<g>
	<circle class="st13" cx="13.5" cy="14.1" r="13.5"/>
	<g>
		<defs>
			<circle id="SVGID_21_" cx="13.5" cy="14.1" r="13.5"/>
		</defs>
		<use xlink:href="#SVGID_21_"  style="overflow:visible;fill:#002856;"/>
		<clipPath id="SVGID_2_">
			<use xlink:href="#SVGID_21_"  style="overflow:visible;"/>
		</clipPath>
		<path style="clip-path:url(#SVGID_2_);fill:#FFFFFF;" d="M18.5,0c-4.1,0-7.5,3.3-7.5,7.5c0,1.7,0.6,3.3,1.5,4.5
			c0,0,2.8,4.7,3.3,5.7c1.7,4,1.9,6,1.9,6c0,0.4,0.3,0.8,0.7,0.8h0.1c0.4,0,0.7-0.3,0.7-0.8c0,0,0.5-2.6,1.9-5.8
			c0.5-1.1,3.4-6.1,3.4-6.1c0.9-1.2,1.4-2.7,1.4-4.4C26,3.3,22.6,0,18.5,0z M18.5,10.4c-1.6,0-3-1.3-3-3c0-1.6,1.3-3,3-3
			c1.6,0,3,1.3,3,3C21.5,9.1,20.2,10.4,18.5,10.4z"/>
	</g>
</g>
</svg>
