<?xml version="1.0" encoding="utf-8"?>
<!-- Generator: Adobe Illustrator 16.0.0, SVG Export Plug-In . SVG Version: 6.00 Build 0)  -->
<!DOCTYPE svg PUBLIC "-//W3C//DTD SVG 1.1//EN" "http://www.w3.org/Graphics/SVG/1.1/DTD/svg11.dtd">
<svg version="1.1" id="Layer_1" xmlns="http://www.w3.org/2000/svg" xmlns:xlink="http://www.w3.org/1999/xlink" x="0px" y="0px"
	 width="42px" height="42px" viewBox="0 0 42 42" enable-background="new 0 0 42 42" xml:space="preserve">
<g>
	<g>
		<g>
			<path fill="#172B54" d="M34.976,15.227v-2.228c0-0.811-0.709-1.52-1.62-1.52L8.544,11.581c-0.912,0-1.621,0.709-1.621,1.62v2.229
				L34.976,15.227z"/>
			<path fill="#172B54" d="M6.923,19.481v9.416c0,0.912,0.709,1.623,1.621,1.623l24.913-0.102c0.912,0,1.62-0.71,1.62-1.621v-9.419
				L6.923,19.481z M17.658,27.48c0,0.204-0.102,0.304-0.304,0.304h-6.988c-0.203,0-0.304-0.1-0.304-0.304v-1.619
				c0-0.203,0.101-0.306,0.304-0.306h6.988c0.202,0,0.304,0.103,0.304,0.306V27.48z"/>
		</g>
	</g>
</g>
</svg>
