<?xml version="1.0" encoding="utf-8"?>
<!-- Generator: Adobe Illustrator 21.1.0, SVG Export Plug-In . SVG Version: 6.00 Build 0)  -->
<svg version="1.1" id="Capa_1" xmlns="http://www.w3.org/2000/svg" xmlns:xlink="http://www.w3.org/1999/xlink" x="0px" y="0px"
	 viewBox="0 0 29.2 25.9" style="enable-background:new 0 0 29.2 25.9;" xml:space="preserve">
<style type="text/css">
	.st0{opacity:0.3;}
	.st1{clip-path:url(#SVGID_2_);}
	.st2{fill:#E1E5E8;}
	.st3{fill:#FF8300;}
	.st4{fill:#002856;}
	.st5{fill:#00B3E3;}
	.st6{fill:none;stroke:#002856;stroke-width:5;stroke-miterlimit:10;}
	.st7{clip-path:url(#SVGID_4_);fill:#FFFFFF;}
	.st8{clip-path:url(#SVGID_4_);}
	.st9{opacity:0.4;}
	.st10{fill:none;}
	.st11{fill:#01A8D8;}
	.st12{fill:#A7A9AC;}
	.st13{fill:#FFFFFF;}
	.st14{clip-path:url(#SVGID_6_);fill:url(#SVGID_7_);}
	.st15{clip-path:url(#SVGID_6_);fill:url(#SVGID_8_);}
	.st16{clip-path:url(#SVGID_6_);}
	.st17{fill:#F69320;}
	.st18{fill:#07BCE4;}
	.st19{fill:#F89828;}
	.st20{fill-rule:evenodd;clip-rule:evenodd;fill:#002856;}
	.st21{fill:#676767;}
	.st22{fill:#F47621;}
	.st23{fill-rule:evenodd;clip-rule:evenodd;fill:#FFFFFF;stroke:#002856;stroke-miterlimit:10;}
	.st24{clip-path:url(#SVGID_12_);fill:#FFFFFF;}
	.st25{clip-path:url(#SVGID_18_);fill:#FFFFFF;}
	.st26{clip-path:url(#SVGID_22_);fill:#FFFFFF;}
	.st27{clip-path:url(#SVGID_24_);fill:#FFFFFF;}
	.st28{clip-path:url(#SVGID_26_);fill-rule:evenodd;clip-rule:evenodd;fill:#FFFFFF;}
	.st29{clip-path:url(#SVGID_28_);}
	.st30{opacity:0.9;}
	.st31{fill:#17415E;}
</style>
<g>
	<g>
		<g>
			<path class="st4" d="M8.5,15c0.8,0,1.6-0.1,2.4-0.2V6.7c-0.8-0.1-1.5-0.2-2.4-0.2C3.8,6.5,0,8.2,0,10.4v0.8C0,13.3,3.8,15,8.5,15
				z"/>
			<path class="st4" d="M8.5,19.3c0.8,0,1.6-0.1,2.4-0.2v-2.4c-0.8,0.1-1.5,0.2-2.4,0.2c-4.1,0-7.5-1.3-8.3-3.1
				C0.1,14.1,0,14.4,0,14.7v0.8C0,17.6,3.8,19.3,8.5,19.3z"/>
			<path class="st4" d="M10.8,21.3v-0.2c-0.8,0.1-1.5,0.2-2.4,0.2c-4.1,0-7.5-1.3-8.3-3.1C0.1,18.4,0,18.7,0,19v0.8
				c0,2.1,3.8,3.8,8.5,3.8c0.9,0,1.8-0.1,2.7-0.2c-0.2-0.4-0.3-0.9-0.3-1.3V21.3z"/>
			<path class="st4" d="M20.7,0c-4.7,0-8.5,1.7-8.5,3.8v0.8c0,2.1,3.8,3.8,8.5,3.8c4.7,0,8.5-1.7,8.5-3.8V3.8
				C29.2,1.7,25.4,0,20.7,0z"/>
			<path class="st4" d="M20.7,10.4c-4.1,0-7.5-1.3-8.3-3.1c-0.1,0.3-0.2,0.5-0.2,0.8V9c0,2.1,3.8,3.8,8.5,3.8c4.7,0,8.5-1.7,8.5-3.8
				V8.1c0-0.3-0.1-0.5-0.2-0.8C28.2,9.1,24.8,10.4,20.7,10.4z"/>
			<path class="st4" d="M20.7,14.7c-4.1,0-7.5-1.3-8.3-3.1c-0.1,0.3-0.2,0.5-0.2,0.8v0.8c0,2.1,3.8,3.8,8.5,3.8
				c4.7,0,8.5-1.7,8.5-3.8v-0.8c0-0.3-0.1-0.5-0.2-0.8C28.2,13.4,24.8,14.7,20.7,14.7z"/>
			<path class="st4" d="M20.7,19.2c-4.1,0-7.5-1.3-8.3-3.1c-0.1,0.3-0.2,0.5-0.2,0.8v0.8c0,2.1,3.8,3.8,8.5,3.8
				c4.7,0,8.5-1.7,8.5-3.8V17c0-0.3-0.1-0.5-0.2-0.8C28.2,17.9,24.8,19.2,20.7,19.2z"/>
			<path class="st4" d="M20.7,23.5c-4.1,0-7.5-1.3-8.3-3.1c-0.1,0.3-0.2,0.5-0.2,0.8v0.8c0,2.1,3.8,3.8,8.5,3.8
				c4.7,0,8.5-1.7,8.5-3.8v-0.8c0-0.3-0.1-0.5-0.2-0.8C28.2,22.2,24.8,23.5,20.7,23.5z"/>
		</g>
	</g>
</g>
</svg>
