<?xml version="1.0" encoding="utf-8"?>
<!-- Generator: Adobe Illustrator 21.1.0, SVG Export Plug-In . SVG Version: 6.00 Build 0)  -->
<svg version="1.1" id="Capa_1" xmlns="http://www.w3.org/2000/svg" xmlns:xlink="http://www.w3.org/1999/xlink" x="0px" y="0px"
	 viewBox="0 0 44.4 44.4" style="enable-background:new 0 0 44.4 44.4;" xml:space="preserve">
<style type="text/css">
	.st0{opacity:0.3;}
	.st1{clip-path:url(#SVGID_2_);}
	.st2{fill:#E1E5E8;}
	.st3{fill:#FF8300;}
	.st4{fill:#002856;}
	.st5{fill:#00B3E3;}
	.st6{fill:none;stroke:#002856;stroke-width:5;stroke-miterlimit:10;}
	.st7{clip-path:url(#SVGID_4_);fill:#FFFFFF;}
	.st8{clip-path:url(#SVGID_4_);}
	.st9{opacity:0.4;}
	.st10{fill:none;}
	.st11{fill:#01A8D8;}
	.st12{fill:#A7A9AC;}
	.st13{fill:#FFFFFF;}
	.st14{clip-path:url(#SVGID_6_);fill:url(#SVGID_7_);}
	.st15{clip-path:url(#SVGID_6_);fill:url(#SVGID_8_);}
	.st16{clip-path:url(#SVGID_6_);}
	.st17{fill:#F69320;}
	.st18{fill:#07BCE4;}
	.st19{fill:#F89828;}
	.st20{fill-rule:evenodd;clip-rule:evenodd;fill:#002856;}
	.st21{fill:#676767;}
	.st22{fill:#F47621;}
	.st23{font-family:'Helvetica-Bold';}
	.st24{font-size:23px;}
	.st25{font-size:8.7943px;}
	.st26{fill-rule:evenodd;clip-rule:evenodd;fill:#FFFFFF;stroke:#002856;stroke-miterlimit:10;}
	.st27{clip-path:url(#SVGID_12_);fill:#FFFFFF;}
	.st28{clip-path:url(#SVGID_18_);fill:#FFFFFF;}
	.st29{clip-path:url(#SVGID_22_);fill:#FFFFFF;}
	.st30{clip-path:url(#SVGID_24_);fill:#FFFFFF;}
	.st31{clip-path:url(#SVGID_26_);fill-rule:evenodd;clip-rule:evenodd;fill:#FFFFFF;}
	.st32{clip-path:url(#SVGID_28_);}
	.st33{opacity:0.9;}
	.st34{fill:#17415E;}
</style>
<g>
	<g>
		<path class="st13" d="M22.2,42.9c-11.4,0-20.7-9.3-20.7-20.7c0-11.4,9.3-20.7,20.7-20.7c11.4,0,20.7,9.3,20.7,20.7
			C42.9,33.6,33.6,42.9,22.2,42.9z"/>
		<g>
			<path class="st22" d="M22.2,3c10.6,0,19.2,8.6,19.2,19.2c0,10.6-8.6,19.2-19.2,19.2C11.6,41.4,3,32.8,3,22.2
				C3,11.6,11.6,3,22.2,3 M22.2,0C9.9,0,0,9.9,0,22.2c0,12.3,9.9,22.2,22.2,22.2s22.2-9.9,22.2-22.2C44.4,9.9,34.5,0,22.2,0L22.2,0z
				"/>
		</g>
	</g>
	<g>
		<g>
			<path class="st21" d="M11,22v-2.2c1,0,1.7-0.1,2.1-0.2c0.6-0.1,1.2-0.4,1.6-0.8c0.3-0.3,0.5-0.7,0.6-1.2c0.1-0.3,0.1-0.5,0.1-0.6
				h2.7v16.2h-3.3V22H11z"/>
			<text transform="matrix(1 0 0 1 20.1474 33.214)" class="st21 st23 st24">7</text>
		</g>
	</g>
	<text transform="matrix(1 0 0 1 15.8955 13.1563)" class="st22 st23 st25">Ju</text>
</g>
</svg>
