<?xml version="1.0" encoding="utf-8"?>
<!-- Generator: Adobe Illustrator 16.0.0, SVG Export Plug-In . SVG Version: 6.00 Build 0)  -->
<!DOCTYPE svg PUBLIC "-//W3C//DTD SVG 1.1//EN" "http://www.w3.org/Graphics/SVG/1.1/DTD/svg11.dtd">
<svg version="1.1" id="Layer_1" xmlns="http://www.w3.org/2000/svg" xmlns:xlink="http://www.w3.org/1999/xlink" x="0px" y="0px"
	 width="42px" height="42px" viewBox="0 0 42 42" enable-background="new 0 0 42 42" xml:space="preserve">
<g>
	<path fill="#172B54" d="M32.217,12.054c0,0-0.175-0.789-0.351-0.964l-1.314-1.14l-1.928-1.752c-0.352-0.351-0.965-0.351-1.315,0
		l-4.031,4.294c-0.351,0.351-0.351,0.964,0,1.227l4.118,3.856l-8.938,10.429c0,0,0,0,0-0.088l-1.314-1.14l-1.929-1.752
		c-0.351-0.352-0.964-0.352-1.314,0L9.868,29.32c-0.351,0.351-0.351,0.963,0,1.314c0,0,2.717,2.016,4.557,3.242
		c1.841,1.139,8.765-3.067,12.709-7.712C31.166,21.344,33.006,15.91,32.217,12.054z"/>
</g>
</svg>
