<?xml version="1.0" encoding="utf-8"?>
<!-- Generator: Adobe Illustrator 21.1.0, SVG Export Plug-In . SVG Version: 6.00 Build 0)  -->
<svg version="1.1" id="Capa_1" xmlns="http://www.w3.org/2000/svg" xmlns:xlink="http://www.w3.org/1999/xlink" x="0px" y="0px"
	 viewBox="0 0 30.1 29.7" style="enable-background:new 0 0 30.1 29.7;" xml:space="preserve">
<style type="text/css">
	.st0{opacity:0.3;}
	.st1{clip-path:url(#SVGID_2_);}
	.st2{fill:#E1E5E8;}
	.st3{fill:#FF8300;}
	.st4{fill:#002856;}
	.st5{fill:#00B3E3;}
	.st6{fill:none;stroke:#002856;stroke-width:5;stroke-miterlimit:10;}
	.st7{clip-path:url(#SVGID_4_);fill:#FFFFFF;}
	.st8{clip-path:url(#SVGID_4_);}
	.st9{opacity:0.4;}
	.st10{fill:none;}
	.st11{fill:#01A8D8;}
	.st12{fill:#A7A9AC;}
	.st13{fill:#FFFFFF;}
	.st14{clip-path:url(#SVGID_6_);fill:url(#SVGID_7_);}
	.st15{clip-path:url(#SVGID_6_);fill:url(#SVGID_8_);}
	.st16{clip-path:url(#SVGID_6_);}
	.st17{fill:#F69320;}
	.st18{fill:#07BCE4;}
	.st19{fill:#F89828;}
	.st20{fill-rule:evenodd;clip-rule:evenodd;fill:#002856;}
	.st21{fill:#676767;}
	.st22{fill:#F47621;}
	.st23{fill-rule:evenodd;clip-rule:evenodd;fill:#FFFFFF;stroke:#002856;stroke-miterlimit:10;}
	.st24{clip-path:url(#SVGID_12_);fill:#FFFFFF;}
	.st25{clip-path:url(#SVGID_18_);fill:#FFFFFF;}
	.st26{clip-path:url(#SVGID_22_);fill:#FFFFFF;}
	.st27{clip-path:url(#SVGID_24_);fill:#FFFFFF;}
	.st28{clip-path:url(#SVGID_26_);fill-rule:evenodd;clip-rule:evenodd;fill:#FFFFFF;}
	.st29{clip-path:url(#SVGID_28_);}
	.st30{opacity:0.9;}
	.st31{fill:#17415E;}
</style>
<g>
	<g>
		<g>
			<path class="st4" d="M0,17.7l0-3.2c0-1.9,1-2.9,3-2.9l9,0.1L12.1,0l3.2,0c1.9,0,2.9,1,2.9,2.9l-0.2,15L0,17.7L0,17.7z"/>
		</g>
		<path class="st20" d="M18,19.1l-0.1,10.6l-3.2,0c-1.9,0-2.9-1-2.9-2.9l0.1-7.7l1.1,0L18,19.1L18,19.1z M30.1,12l0,3.1
			c0,1.9-1,2.9-3,2.9l-8-0.1l0.1-4.8l0-1.2L30.1,12L30.1,12z"/>
		<g>
			<path class="st4" d="M18,19.1l-0.1,10.6l-3.2,0c-1.9,0-2.9-1-2.9-2.9l0.1-7.7l1.1,0L18,19.1L18,19.1z"/>
		</g>
		<g>
			<path class="st4" d="M30.1,12l0,3.1c0,1.9-1,2.9-3,2.9l-8-0.1l0.1-4.8l0-1.2L30.1,12L30.1,12z"/>
		</g>
	</g>
</g>
</svg>
