<?xml version="1.0" encoding="utf-8"?>
<!-- Generator: Adobe Illustrator 21.1.0, SVG Export Plug-In . SVG Version: 6.00 Build 0)  -->
<svg version="1.1" id="Capa_1" xmlns="http://www.w3.org/2000/svg" xmlns:xlink="http://www.w3.org/1999/xlink" x="0px" y="0px"
	 viewBox="0 0 149.4 158.4" style="enable-background:new 0 0 149.4 158.4;" xml:space="preserve">
<style type="text/css">
	.st0{opacity:0.3;}
	.st1{clip-path:url(#SVGID_2_);}
	.st2{fill:#E1E5E8;}
	.st3{fill:#FF8300;}
	.st4{fill:#002856;}
	.st5{fill:#00B3E3;}
	.st6{fill:none;stroke:#002856;stroke-width:5;stroke-miterlimit:10;}
	.st7{clip-path:url(#SVGID_4_);fill:#FFFFFF;}
	.st8{clip-path:url(#SVGID_4_);}
	.st9{opacity:0.4;}
	.st10{fill:none;}
	.st11{fill:#01A8D8;}
	.st12{fill:#A7A9AC;}
	.st13{fill:#FFFFFF;}
	.st14{clip-path:url(#SVGID_6_);fill:url(#SVGID_7_);}
	.st15{clip-path:url(#SVGID_6_);fill:url(#SVGID_8_);}
	.st16{clip-path:url(#SVGID_6_);}
	.st17{fill:#F69320;}
	.st18{fill:#07BCE4;}
	.st19{fill:#F89828;}
	.st20{fill-rule:evenodd;clip-rule:evenodd;fill:#002856;}
	.st21{fill:#676767;}
	.st22{fill:#F47621;}
	.st23{fill-rule:evenodd;clip-rule:evenodd;fill:#FFFFFF;stroke:#002856;stroke-miterlimit:10;}
	.st24{clip-path:url(#SVGID_12_);fill:#FFFFFF;}
	.st25{clip-path:url(#SVGID_18_);fill:#FFFFFF;}
	.st26{clip-path:url(#SVGID_22_);fill:#FFFFFF;}
	.st27{clip-path:url(#SVGID_24_);fill:#FFFFFF;}
	.st28{clip-path:url(#SVGID_26_);fill-rule:evenodd;clip-rule:evenodd;fill:#FFFFFF;}
	.st29{clip-path:url(#SVGID_28_);}
	.st30{opacity:0.9;}
	.st31{fill:#17415E;}
</style>
<g>
	<g>
		<g>
			<path class="st4" d="M39.4,63.2c0-4.2,1.3-8.4,4-12.8c2.7-4.3,6.6-7.9,11.8-10.7c5.2-2.8,11.2-4.2,18.1-4.2
				c6.4,0,12.1,1.2,17,3.5c4.9,2.4,8.7,5.6,11.4,9.6c2.7,4.1,4,8.5,4,13.3c0,3.8-0.8,7-2.3,9.9c-1.5,2.8-3.3,5.3-5.4,7.3
				c-2.1,2.1-5.9,5.5-11.3,10.4c-1.5,1.4-2.7,2.6-3.6,3.6c-0.9,1-1.6,2-2,2.9c-0.4,0.9-0.8,1.7-1,2.6c-0.2,0.9-0.6,2.4-1.1,4.5
				c-0.8,4.6-3.5,6.9-7.9,6.9c-2.3,0-4.2-0.8-5.8-2.3c-1.6-1.5-2.3-3.7-2.3-6.7c0-3.7,0.6-6.9,1.7-9.6c1.1-2.7,2.7-5.1,4.6-7.2
				c1.9-2.1,4.5-4.5,7.7-7.3c2.8-2.5,4.9-4.3,6.1-5.6c1.3-1.3,2.3-2.7,3.2-4.2c0.9-1.5,1.3-3.2,1.3-5c0-3.5-1.3-6.5-3.9-8.9
				c-2.6-2.4-6-3.6-10.2-3.6c-4.9,0-8.4,1.2-10.7,3.7c-2.3,2.4-4.2,6.1-5.8,10.8c-1.5,5-4.3,7.5-8.5,7.5c-2.5,0-4.6-0.9-6.3-2.6
				C40.3,67.1,39.4,65.2,39.4,63.2z M71.7,135.8c-2.7,0-5-0.9-7.1-2.6c-2-1.7-3-4.2-3-7.3c0-2.8,1-5.1,2.9-7
				c1.9-1.9,4.3-2.8,7.2-2.8c2.8,0,5.1,0.9,7,2.8c1.9,1.9,2.8,4.2,2.8,7c0,3.1-1,5.5-3,7.3C76.6,134.9,74.3,135.8,71.7,135.8z"/>
		</g>
	</g>
	<g>
		<path class="st6" d="M30.1,13.8C41.8,6.6,55.5,2.5,70.2,2.5c42.4,0,76.7,34.3,76.7,76.7c0,42.4-34.3,76.7-76.7,76.7
			c-29.6,0-55.2-16.7-68-41.2"/>
	</g>
</g>
</svg>
