<?xml version="1.0" encoding="utf-8"?>
<!-- Generator: Adobe Illustrator 21.1.0, SVG Export Plug-In . SVG Version: 6.00 Build 0)  -->
<svg version="1.1" id="Capa_1" xmlns="http://www.w3.org/2000/svg" xmlns:xlink="http://www.w3.org/1999/xlink" x="0px" y="0px"
	 viewBox="0 0 59.8 103" style="enable-background:new 0 0 59.8 103;" xml:space="preserve">
<style type="text/css">
	.st0{fill:#FFFFFF;}
	.st1{fill:url(#SVGID_1_);}
	.st2{fill:url(#SVGID_2_);}
	.st3{fill:#F48E30;}
	.st4{fill:#5D717D;}
	.st5{fill:#57C6D2;}
	.st6{fill:#172F58;}
	.st7{fill:#183058;}
	.st8{fill-rule:evenodd;clip-rule:evenodd;fill:#F48E30;}
	.st9{fill:none;stroke:#5D717D;stroke-miterlimit:10;}
	.st10{fill:#414142;}
	.st11{fill:#F16A24;}
	.st12{opacity:0.5;}
	.st13{clip-path:url(#SVGID_4_);fill:#FFFFFF;}
	.st14{clip-path:url(#SVGID_6_);fill:#FFFFFF;}
	.st15{clip-path:url(#SVGID_8_);fill:#FFFFFF;}
	.st16{clip-path:url(#SVGID_10_);fill:#FFFFFF;}
	.st17{clip-path:url(#SVGID_12_);fill-rule:evenodd;clip-rule:evenodd;fill:#FFFFFF;}
	.st18{clip-path:url(#SVGID_14_);}
	.st19{opacity:0.9;}
	.st20{fill:url(#SVGID_15_);}
</style>
<g>
	<g>
		<path class="st3" d="M52.9,0H7C3.1,0,0,3.1,0,7v89c0,3.8,3.1,7,7,7h45.9c3.8,0,6.9-3.1,6.9-7V7C59.8,3.1,56.7,0,52.9,0L52.9,0z
			 M22.6,5h14.7c0.5,0,0.8,0.4,0.8,0.9c0,0.5-0.4,0.8-0.8,0.8H22.6c-0.5,0-0.9-0.4-0.9-0.8C21.7,5.4,22.1,5,22.6,5L22.6,5z
			 M29.9,99.5c-1.9,0-3.5-1.6-3.5-3.5c0-1.9,1.5-3.5,3.5-3.5c1.9,0,3.5,1.6,3.5,3.5C33.4,97.9,31.8,99.5,29.9,99.5L29.9,99.5z
			 M55,90.1H4.8V11H55V90.1z M55,90.1"/>
	</g>
</g>
</svg>
