<?xml version="1.0" encoding="utf-8"?>
<!-- Generator: Adobe Illustrator 21.1.0, SVG Export Plug-In . SVG Version: 6.00 Build 0)  -->
<svg version="1.1" id="Capa_1" xmlns="http://www.w3.org/2000/svg" xmlns:xlink="http://www.w3.org/1999/xlink" x="0px" y="0px"
	 viewBox="0 0 60.5 93.5" style="enable-background:new 0 0 60.5 93.5;" xml:space="preserve">
<style type="text/css">
	.st0{fill:#FFFFFF;}
	.st1{fill:url(#SVGID_1_);}
	.st2{fill:url(#SVGID_2_);}
	.st3{fill:#F48E30;}
	.st4{fill:#5D717D;}
	.st5{fill:#57C6D2;}
	.st6{fill:#172F58;}
	.st7{fill:#183058;}
	.st8{fill-rule:evenodd;clip-rule:evenodd;fill:#F48E30;}
	.st9{fill:none;stroke:#5D717D;stroke-miterlimit:10;}
	.st10{fill:#414142;}
	.st11{fill:#F16A24;}
	.st12{opacity:0.5;}
	.st13{clip-path:url(#SVGID_4_);fill:#FFFFFF;}
	.st14{clip-path:url(#SVGID_6_);fill:#FFFFFF;}
	.st15{clip-path:url(#SVGID_8_);fill:#FFFFFF;}
	.st16{clip-path:url(#SVGID_10_);fill:#FFFFFF;}
	.st17{clip-path:url(#SVGID_12_);fill-rule:evenodd;clip-rule:evenodd;fill:#FFFFFF;}
	.st18{clip-path:url(#SVGID_14_);}
	.st19{opacity:0.9;}
	.st20{fill:url(#SVGID_15_);}
</style>
<g>
	<path class="st3" d="M14.6,30.7c0,0,10.3-2.9,11.3-5.5c1-2.6,5.5-21.5-1.8-24.4C16.9-1.9,6,2.4,3.6,8.3c-2.3,6-8.9,28.8,4.9,54.1
		C22.3,87.7,40.4,93.7,44,93.5c3.7-0.2,16.7-5.7,16.5-13.6c-0.2-8-14.5-15.2-18.6-15.5c-4.2-0.3-10.3,7-10.3,7s-9.5-10.2-13.3-21.5
		C14.5,38.6,14.6,30.7,14.6,30.7z"/>
</g>
</svg>
