<?xml version="1.0" encoding="utf-8"?>
<!-- Generator: Adobe Illustrator 21.1.0, SVG Export Plug-In . SVG Version: 6.00 Build 0)  -->
<svg version="1.1" id="Capa_1" xmlns="http://www.w3.org/2000/svg" xmlns:xlink="http://www.w3.org/1999/xlink" x="0px" y="0px"
	 viewBox="0 0 55 55" style="enable-background:new 0 0 55 55;" xml:space="preserve">
<style type="text/css">
	.st0{fill:#FFFFFF;}
	.st1{fill:url(#SVGID_1_);}
	.st2{fill:url(#SVGID_2_);}
	.st3{fill:#F48E30;}
	.st4{fill:#5D717D;}
	.st5{fill:#57C6D2;}
	.st6{fill:#172F58;}
	.st7{fill:#183058;}
	.st8{fill-rule:evenodd;clip-rule:evenodd;fill:#F48E30;}
	.st9{fill:none;stroke:#5D717D;stroke-miterlimit:10;}
	.st10{fill:#414142;}
	.st11{fill:#F16A24;}
	.st12{opacity:0.5;}
	.st13{clip-path:url(#SVGID_4_);fill:#FFFFFF;}
	.st14{clip-path:url(#SVGID_6_);fill:#FFFFFF;}
	.st15{clip-path:url(#SVGID_8_);fill:#FFFFFF;}
	.st16{clip-path:url(#SVGID_10_);fill:#FFFFFF;}
	.st17{clip-path:url(#SVGID_12_);fill-rule:evenodd;clip-rule:evenodd;fill:#FFFFFF;}
	.st18{clip-path:url(#SVGID_14_);}
	.st19{opacity:0.9;}
	.st20{fill:url(#SVGID_15_);}
</style>
<g>
	<g>
		<defs>
			<circle id="SVGID_9_" cx="27.5" cy="27.5" r="27.5"/>
		</defs>
		<use xlink:href="#SVGID_9_"  style="overflow:visible;fill:#F48E30;"/>
		<clipPath id="SVGID_1_">
			<use xlink:href="#SVGID_9_"  style="overflow:visible;"/>
		</clipPath>
		<path style="clip-path:url(#SVGID_1_);fill:#FFFFFF;" d="M46.1,38.6c-2-0.9-2.3-0.8-2.3-0.8s1.9-0.4,2.5-0.7
			c0.6-0.3,4.5-2.2,4.5-6.9c0-4.6-3.4-7.1-5.4-7.8c-2-0.6-2.7-0.5-2.7-0.5h-8c0,0-0.1-3.7-1.5-5.5c-1.3-1.6-3.3-3.1-6-3.2
			c-2.7-0.1-5.3,1.1-6.9,3.2c-1.6,2.1-1.5,3.9-1.5,3.9s0,21.8,0,22.4c0,0.6,0.4,2.2,0.8,3.2c0.4,1,1,2.8,4.2,5.3
			c3.2,2.6,6.5,2.3,6.5,2.3s12.5,0.1,13.8,0c1.2-0.1,2-0.6,2.8-1.1c0.7-0.5,3.8-2.1,3.8-6.6C50.8,41.6,48.1,39.5,46.1,38.6z
			 M43.9,50H30.3c0,0-2.8-0.1-4.8-2.2c-2-2.1-2.2-2.6-2.5-3.7c-0.3-1.1-0.4-2-0.5-2.3c-0.1-0.3,0-20.7,0-20.7s0.2-2.1,1.4-3
			c1.2-0.9,2.3-1.1,3.1-1.1c0.8,0,2,0.5,2.5,1c0.6,0.6,1,1.2,1.3,1.9c0.3,1,0.2,5.7,0.2,5.7h12.9c0,0,3,0.9,3.1,4
			c0.1,3.1-2.9,4.4-2.9,4.4H30.9v7c0,0,0,0,0.2,0.2c0.2,0.2,12.6,0,12.6,0s3.1,0.8,3.2,4.5C47,49.6,43.9,50,43.9,50z"/>
	</g>
</g>
</svg>
