<?xml version="1.0" encoding="utf-8"?>
<!-- Generator: Adobe Illustrator 21.1.0, SVG Export Plug-In . SVG Version: 6.00 Build 0)  -->
<svg version="1.1" id="Capa_1" xmlns="http://www.w3.org/2000/svg" xmlns:xlink="http://www.w3.org/1999/xlink" x="0px" y="0px"
	 viewBox="0 0 27.8 18.8" style="enable-background:new 0 0 27.8 18.8;" xml:space="preserve">
<style type="text/css">
	.st0{fill:#FFFFFF;}
	.st1{fill:url(#SVGID_1_);}
	.st2{fill:url(#SVGID_2_);}
	.st3{fill:#F48E30;}
	.st4{fill:#5D717D;}
	.st5{fill:#57C6D2;}
	.st6{fill:#172F58;}
	.st7{fill:#183058;}
	.st8{fill-rule:evenodd;clip-rule:evenodd;fill:#F48E30;}
	.st9{fill:none;stroke:#5D717D;stroke-miterlimit:10;}
	.st10{fill:#414142;}
	.st11{fill:#F16A24;}
	.st12{opacity:0.5;}
	.st13{clip-path:url(#SVGID_4_);fill:#FFFFFF;}
	.st14{clip-path:url(#SVGID_6_);fill:#FFFFFF;}
	.st15{clip-path:url(#SVGID_8_);fill:#FFFFFF;}
	.st16{clip-path:url(#SVGID_10_);fill:#FFFFFF;}
	.st17{clip-path:url(#SVGID_12_);fill-rule:evenodd;clip-rule:evenodd;fill:#FFFFFF;}
	.st18{clip-path:url(#SVGID_14_);}
	.st19{opacity:0.9;}
	.st20{fill:url(#SVGID_15_);}
</style>
<g>
	<g>
		<g>
			<path class="st3" d="M27.7,3.7l0-2.2C27.7,0.7,27,0,26.1,0L1.6,0.1C0.7,0.1,0,0.8,0,1.7l0,2.2L27.7,3.7z"/>
			<path class="st3" d="M0,7.9l0,9.3c0,0.9,0.7,1.6,1.6,1.6l24.6-0.1c0.9,0,1.6-0.7,1.6-1.6l0-9.3L0,7.9z M10.6,15.8
				c0,0.2-0.1,0.3-0.3,0.3l-6.9,0c-0.2,0-0.3-0.1-0.3-0.3l0-1.6c0-0.2,0.1-0.3,0.3-0.3l6.9,0c0.2,0,0.3,0.1,0.3,0.3L10.6,15.8z"/>
		</g>
	</g>
</g>
</svg>
