<?xml version="1.0" encoding="utf-8"?>
<!-- Generator: Adobe Illustrator 21.1.0, SVG Export Plug-In . SVG Version: 6.00 Build 0)  -->
<svg version="1.1" id="Capa_1" xmlns="http://www.w3.org/2000/svg" xmlns:xlink="http://www.w3.org/1999/xlink" x="0px" y="0px"
	 viewBox="0 0 38.3 38.8" style="enable-background:new 0 0 38.3 38.8;" xml:space="preserve">
<style type="text/css">
	.st0{fill:#FFFFFF;}
	.st1{fill:url(#SVGID_1_);}
	.st2{fill:url(#SVGID_2_);}
	.st3{fill:#F48E30;}
	.st4{fill:#5D717D;}
	.st5{fill:#57C6D2;}
	.st6{fill:#172F58;}
	.st7{fill:#183058;}
	.st8{fill-rule:evenodd;clip-rule:evenodd;fill:#F48E30;}
	.st9{fill:none;stroke:#5D717D;stroke-miterlimit:10;}
	.st10{fill:#414142;}
	.st11{fill:#F16A24;}
	.st12{opacity:0.5;}
	.st13{clip-path:url(#SVGID_4_);fill:#FFFFFF;}
	.st14{clip-path:url(#SVGID_6_);fill:#FFFFFF;}
	.st15{clip-path:url(#SVGID_8_);fill:#FFFFFF;}
	.st16{clip-path:url(#SVGID_10_);fill:#FFFFFF;}
	.st17{clip-path:url(#SVGID_12_);fill-rule:evenodd;clip-rule:evenodd;fill:#FFFFFF;}
	.st18{clip-path:url(#SVGID_14_);}
	.st19{opacity:0.9;}
	.st20{fill:url(#SVGID_15_);}
</style>
<g>
	<g>
		<g>
			<path class="st3" d="M35.5,0H19.3c-1.6,0-2.8,1.3-2.8,2.8v32.9c0,1.6,1.3,2.8,2.8,2.8h16.2c1.6,0,2.8-1.3,2.8-2.8V2.8
				C38.3,1.3,37.1,0,35.5,0L35.5,0z M23.4,1.7h8c0.2,0,0.4,0.3,0.4,0.7c0,0.4-0.2,0.7-0.4,0.7h-8c-0.2,0-0.4-0.3-0.4-0.7
				C23,2,23.2,1.7,23.4,1.7L23.4,1.7z M27.4,35.8c-1,0-1.8-0.8-1.8-1.8c0-1,0.8-1.8,1.8-1.8c1,0,1.8,0.8,1.8,1.8
				C29.2,35,28.4,35.8,27.4,35.8L27.4,35.8z M36.2,29.6H18.6V4.7h17.6V29.6z M36.2,29.6"/>
		</g>
	</g>
	<g>
		<g>
			<path class="st3" d="M30.2,16.2L22.6,10c-0.1-0.1-0.3-0.1-0.5-0.1c-0.2,0.1-0.3,0.2-0.3,0.4v3.3c-3.7,0.1-6.2,1.4-7.5,3.8
				c-1.1,2.1-1.1,4.6-1.1,6.2v0.4c0,0.2,0.1,0.4,0.4,0.5c0,0,0.1,0,0.1,0c0.2,0,0.3-0.1,0.4-0.2c2.6-4.5,4.7-4.7,7.7-4.7v3.3
				c0,0.2,0.1,0.4,0.3,0.4c0.2,0.1,0.4,0.1,0.5-0.1l7.5-6.2c0.1-0.1,0.2-0.2,0.2-0.4C30.3,16.5,30.3,16.3,30.2,16.2L30.2,16.2z
				 M22.8,21.8"/>
		</g>
	</g>
	<g>
		<path class="st3" d="M7.8,23.1c-4.3,0-7.8,3.5-7.8,7.8c0,4.3,3.5,7.8,7.8,7.8c4.3,0,7.8-3.5,7.8-7.8C15.7,26.6,12.2,23.1,7.8,23.1
			z M7,32.4c-0.1,0.2-0.3,0.4-0.4,0.5c-0.2,0.2-0.4,0.3-0.7,0.3c-0.3,0.1-0.6,0.1-0.9,0.1H2.2v-6.1h3c0.7,0,1.3,0.2,1.6,0.7
			c0.2,0.3,0.3,0.6,0.3,0.9c0,0.4-0.1,0.7-0.3,0.9c-0.1,0.1-0.3,0.2-0.5,0.3c0.3,0.1,0.5,0.3,0.7,0.5c0.2,0.2,0.2,0.5,0.2,0.9
			C7.3,31.8,7.2,32.1,7,32.4z M11.6,33c-0.3,0.3-0.8,0.4-1.5,0.4c-0.7,0-1.2-0.2-1.6-0.5C8.2,32.7,8,32.3,8,31.8h1.2
			c0,0.2,0.1,0.4,0.2,0.4c0.1,0.2,0.4,0.2,0.8,0.2c0.2,0,0.4,0,0.6-0.1c0.1-0.1,0.2-0.2,0.2-0.3c0-0.1-0.1-0.2-0.2-0.3
			c-0.1-0.1-0.5-0.2-1.2-0.4C9,31.3,8.6,31.2,8.4,31c-0.2-0.2-0.3-0.5-0.3-0.8c0-0.4,0.2-0.8,0.5-1.1c0.3-0.3,0.8-0.5,1.4-0.5
			c0.6,0,1,0.1,1.4,0.3c0.4,0.2,0.6,0.6,0.6,1.2h-1.2c0-0.2-0.1-0.3-0.1-0.4c-0.1-0.2-0.4-0.2-0.7-0.2c-0.3,0-0.4,0-0.6,0.1
			c-0.1,0.1-0.2,0.2-0.2,0.3c0,0.1,0.1,0.2,0.2,0.3c0.1,0.1,0.5,0.2,1.2,0.3c0.5,0.1,0.8,0.3,1.1,0.5c0.2,0.2,0.3,0.5,0.3,0.9
			C12.1,32.4,12,32.7,11.6,33z M13,33.3V32h1.3v1.2H13z"/>
		<path class="st3" d="M5.6,30.7c-0.1-0.1-0.3-0.1-0.6-0.1H3.5v1.6H5c0.3,0,0.5,0,0.6-0.1C5.8,32,6,31.7,6,31.3
			C6,31,5.8,30.8,5.6,30.7z"/>
		<path class="st3" d="M5.6,29.4c0.2-0.1,0.2-0.3,0.2-0.5c0-0.3-0.1-0.5-0.3-0.6c-0.2-0.1-0.4-0.1-0.7-0.1H3.5v1.3H5
			C5.2,29.6,5.4,29.5,5.6,29.4z"/>
	</g>
</g>
</svg>
