<?xml version="1.0" encoding="utf-8"?>
<!-- Generator: Adobe Illustrator 21.1.0, SVG Export Plug-In . SVG Version: 6.00 Build 0)  -->
<svg version="1.1" id="Capa_1" xmlns="http://www.w3.org/2000/svg" xmlns:xlink="http://www.w3.org/1999/xlink" x="0px" y="0px"
	 viewBox="0 0 55 55" style="enable-background:new 0 0 55 55;" xml:space="preserve">
<style type="text/css">
	.st0{fill:#FFFFFF;}
	.st1{fill:url(#SVGID_1_);}
	.st2{fill:url(#SVGID_2_);}
	.st3{fill:#F48E30;}
	.st4{fill:#5D717D;}
	.st5{fill:#57C6D2;}
	.st6{fill:#172F58;}
	.st7{fill:#183058;}
	.st8{fill-rule:evenodd;clip-rule:evenodd;fill:#F48E30;}
	.st9{fill:none;stroke:#5D717D;stroke-miterlimit:10;}
	.st10{fill:#414142;}
	.st11{fill:#F16A24;}
	.st12{opacity:0.5;}
	.st13{clip-path:url(#SVGID_4_);fill:#FFFFFF;}
	.st14{clip-path:url(#SVGID_6_);fill:#FFFFFF;}
	.st15{clip-path:url(#SVGID_8_);fill:#FFFFFF;}
	.st16{clip-path:url(#SVGID_10_);fill:#FFFFFF;}
	.st17{clip-path:url(#SVGID_12_);fill-rule:evenodd;clip-rule:evenodd;fill:#FFFFFF;}
	.st18{clip-path:url(#SVGID_14_);}
	.st19{opacity:0.9;}
	.st20{fill:url(#SVGID_15_);}
</style>
<g>
	<g>
		<defs>
			<circle id="SVGID_13_" cx="27.5" cy="27.5" r="27.5"/>
		</defs>
		<use xlink:href="#SVGID_13_"  style="overflow:visible;fill:#F48E30;"/>
		<clipPath id="SVGID_1_">
			<use xlink:href="#SVGID_13_"  style="overflow:visible;"/>
		</clipPath>
		<g style="clip-path:url(#SVGID_1_);">
			<g>
				<path class="st0" d="M19.1,11.5h2.7l1.7,6.9h0.2l1.6-6.9H28l-3.1,10v7.1h-2.6v-6.8L19.1,11.5z"/>
				<path class="st0" d="M27.9,18.9c0-1,0.3-1.8,0.9-2.3c0.6-0.6,1.5-0.9,2.6-0.9c1,0,1.8,0.3,2.4,0.9c0.6,0.6,0.9,1.4,0.9,2.4v6.5
					c0,1.1-0.3,1.9-0.9,2.6c-0.6,0.6-1.4,0.9-2.5,0.9c-1,0-1.8-0.3-2.5-1c-0.6-0.6-0.9-1.5-0.9-2.6V18.9z M30.3,25.7
					c0,0.4,0.1,0.6,0.3,0.8c0.2,0.2,0.4,0.3,0.7,0.3c0.3,0,0.6-0.1,0.8-0.3c0.2-0.2,0.3-0.5,0.3-0.8v-6.9c0-0.3-0.1-0.5-0.3-0.7
					c-0.2-0.2-0.4-0.3-0.8-0.3c-0.3,0-0.5,0.1-0.7,0.3c-0.2,0.2-0.3,0.4-0.3,0.7V25.7z"/>
				<path class="st0" d="M43.4,16v12.7h-2.4v-1.4c-0.4,0.5-0.9,0.9-1.4,1.2c-0.5,0.3-0.9,0.4-1.4,0.4c-0.5,0-1-0.2-1.2-0.6
					c-0.3-0.4-0.4-0.9-0.4-1.7V16H39v9.7c0,0.3,0.1,0.5,0.1,0.7c0.1,0.1,0.3,0.2,0.5,0.2c0.2,0,0.4-0.1,0.7-0.3
					c0.3-0.2,0.5-0.4,0.7-0.7V16H43.4z"/>
			</g>
			<g>
				<path class="st0" d="M35.4,39.4c-0.1,0-0.3,0-0.4,0.1c-0.1,0.1-0.3,0.2-0.4,0.3v6.4c0.2,0.2,0.3,0.3,0.5,0.4
					c0.1,0.1,0.3,0.1,0.5,0.1c0.2,0,0.4-0.1,0.5-0.2c0.1-0.1,0.2-0.4,0.2-0.7v-5.3c0-0.3-0.1-0.6-0.2-0.8
					C35.9,39.5,35.7,39.4,35.4,39.4z"/>
				<path class="st0" d="M42.4,39.5c-0.3,0-0.5,0.1-0.7,0.3c-0.1,0.2-0.2,0.5-0.2,0.9v1h1.7v-1c0-0.4-0.1-0.7-0.2-0.9
					C42.9,39.6,42.7,39.5,42.4,39.5z"/>
				<path class="st0" d="M47.6,35.6c0-2.5-2-4.5-4.5-4.5c-3.6-0.1-7.2-0.2-11-0.2c-3.7,0-7.4,0.1-11,0.2c-2.5,0-4.5,2-4.5,4.5
					c-0.2,2-0.2,3.9-0.2,5.9c0,2,0.1,3.9,0.2,5.9c0,2.5,2,4.5,4.5,4.5c3.6,0.1,7.2,0.2,11,0.2c3.7,0,7.4-0.1,11-0.2
					c2.5,0,4.5-2,4.5-4.5c0.2-2,0.2-3.9,0.2-5.9C47.8,39.5,47.7,37.5,47.6,35.6z M23.2,48.2h-2.1V36.3h-2.2v-2h6.6v2h-2.2V48.2z
					 M30.8,48.2h-1.9v-1.1c-0.4,0.4-0.7,0.7-1.1,1c-0.4,0.2-0.8,0.3-1.1,0.3c-0.4,0-0.8-0.1-1-0.5c-0.2-0.3-0.3-0.8-0.3-1.4v-8.6
					h1.9v7.9c0,0.2,0,0.4,0.1,0.5c0.1,0.1,0.2,0.2,0.4,0.2c0.1,0,0.3-0.1,0.5-0.2c0.2-0.2,0.4-0.3,0.6-0.6v-7.8h1.9V48.2z
					 M38.2,46.1c0,0.7-0.1,1.3-0.4,1.7c-0.3,0.4-0.7,0.6-1.3,0.6c-0.4,0-0.7-0.1-1-0.2c-0.3-0.2-0.6-0.4-0.8-0.7v0.8h-1.9V34.3h1.9
					v4.5c0.3-0.3,0.5-0.5,0.8-0.7c0.3-0.2,0.6-0.2,0.9-0.2c0.6,0,1.1,0.2,1.4,0.7c0.3,0.4,0.5,1.1,0.5,1.9V46.1z M45.2,43.3h-3.6
					v1.9c0,0.5,0.1,0.9,0.2,1.1c0.1,0.2,0.3,0.3,0.6,0.3c0.3,0,0.5-0.1,0.7-0.3c0.1-0.2,0.2-0.6,0.2-1.2v-0.7h2v0.8
					c0,1.1-0.2,1.8-0.7,2.4c-0.5,0.5-1.2,0.8-2.1,0.8c-0.9,0-1.5-0.3-2-0.8c-0.5-0.6-0.7-1.3-0.7-2.3v-4.6c0-0.9,0.3-1.6,0.8-2.2
					c0.5-0.6,1.2-0.8,2.1-0.8c0.9,0,1.5,0.3,2,0.8c0.5,0.5,0.7,1.3,0.7,2.2V43.3z"/>
			</g>
		</g>
	</g>
</g>
</svg>
