<?xml version="1.0" encoding="utf-8"?>
<!-- Generator: Adobe Illustrator 21.1.0, SVG Export Plug-In . SVG Version: 6.00 Build 0)  -->
<svg version="1.1" id="Capa_1" xmlns="http://www.w3.org/2000/svg" xmlns:xlink="http://www.w3.org/1999/xlink" x="0px" y="0px"
	 viewBox="0 0 22.2 22.1" style="enable-background:new 0 0 22.2 22.1;" xml:space="preserve">
<style type="text/css">
	.st0{fill:#FFFFFF;}
	.st1{fill:url(#SVGID_1_);}
	.st2{fill:url(#SVGID_2_);}
	.st3{fill:#F48E30;}
	.st4{fill:#5D717D;}
	.st5{fill:#57C6D2;}
	.st6{fill:#172F58;}
	.st7{fill:#183058;}
	.st8{fill-rule:evenodd;clip-rule:evenodd;fill:#F48E30;}
	.st9{fill:none;stroke:#5D717D;stroke-miterlimit:10;}
	.st10{fill:#414142;}
	.st11{fill:#F16A24;}
	.st12{opacity:0.5;}
	.st13{clip-path:url(#SVGID_4_);fill:#FFFFFF;}
	.st14{clip-path:url(#SVGID_6_);fill:#FFFFFF;}
	.st15{clip-path:url(#SVGID_8_);fill:#FFFFFF;}
	.st16{clip-path:url(#SVGID_10_);fill:#FFFFFF;}
	.st17{clip-path:url(#SVGID_12_);fill-rule:evenodd;clip-rule:evenodd;fill:#FFFFFF;}
	.st18{clip-path:url(#SVGID_14_);}
	.st19{opacity:0.9;}
	.st20{fill:url(#SVGID_15_);}
</style>
<g>
	<g>
		<path class="st3" d="M0,13.3v-2.3c0-1.4,0.7-2.2,2.2-2.2h6.7V0h2.4c1.4,0,2.2,0.7,2.2,2.2l0,11.1H0L0,13.3z"/>
	</g>
	<path class="st8" d="M13.4,14.2v7.9H11c-1.4,0-2.2-0.7-2.2-2.1v-5.8h0.8H13.4L13.4,14.2z M22.2,8.8v2.3c0,1.4-0.7,2.2-2.2,2.2h-5.9
		V9.7V8.8H22.2L22.2,8.8z"/>
	<path class="st3" d="M13.4,14.2v7.9H11c-1.4,0-2.2-0.7-2.2-2.1v-5.8h0.8H13.4L13.4,14.2z"/>
	<g>
		<path class="st3" d="M22.2,8.8v2.3c0,1.4-0.7,2.2-2.2,2.2h-5.9V9.7V8.8H22.2L22.2,8.8z"/>
	</g>
</g>
</svg>
