<?xml version="1.0" encoding="utf-8"?>
<!-- Generator: Adobe Illustrator 21.1.0, SVG Export Plug-In . SVG Version: 6.00 Build 0)  -->
<svg version="1.1" id="Capa_1" xmlns="http://www.w3.org/2000/svg" xmlns:xlink="http://www.w3.org/1999/xlink" x="0px" y="0px"
	 viewBox="0 0 54.8 56" style="enable-background:new 0 0 54.8 56;" xml:space="preserve">
<style type="text/css">
	.st0{fill:#FFFFFF;}
	.st1{fill:url(#SVGID_1_);}
	.st2{fill:url(#SVGID_2_);}
	.st3{fill:#F48E30;}
	.st4{fill:#5D717D;}
	.st5{fill:#57C6D2;}
	.st6{fill:#172F58;}
	.st7{fill:#183058;}
	.st8{fill-rule:evenodd;clip-rule:evenodd;fill:#F48E30;}
	.st9{fill:none;stroke:#5D717D;stroke-miterlimit:10;}
	.st10{fill:#414142;}
	.st11{fill:#F16A24;}
	.st12{opacity:0.5;}
	.st13{clip-path:url(#SVGID_4_);fill:#FFFFFF;}
	.st14{clip-path:url(#SVGID_6_);fill:#FFFFFF;}
	.st15{clip-path:url(#SVGID_8_);fill:#FFFFFF;}
	.st16{clip-path:url(#SVGID_10_);fill:#FFFFFF;}
	.st17{clip-path:url(#SVGID_12_);fill-rule:evenodd;clip-rule:evenodd;fill:#FFFFFF;}
	.st18{clip-path:url(#SVGID_14_);}
	.st19{opacity:0.9;}
	.st20{fill:url(#SVGID_15_);}
</style>
<g>
	<circle class="st3" cx="27.4" cy="28.6" r="27.4"/>
	<g>
		<defs>
			<circle id="SVGID_7_" cx="27.4" cy="28.6" r="27.4"/>
		</defs>
		<use xlink:href="#SVGID_7_"  style="overflow:visible;fill:#F48E30;"/>
		<clipPath id="SVGID_1_">
			<use xlink:href="#SVGID_7_"  style="overflow:visible;"/>
		</clipPath>
		<path style="clip-path:url(#SVGID_1_);fill:#FFFFFF;" d="M37.6,0c-8.4,0-15.2,6.8-15.2,15.2c0,3.4,1.1,6.6,3.1,9.1
			c0,0,5.8,9.5,6.7,11.7C35.6,44.1,36,48,36,48c0,0.8,0.7,1.5,1.5,1.5h0.2c0.8,0,1.5-0.7,1.5-1.5c0,0,1.1-5.2,3.8-11.7
			C44,34.1,49.9,24,49.9,24c1.8-2.5,2.9-5.5,2.9-8.9C52.8,6.8,46,0,37.6,0z M37.6,21.2c-3.3,0-6-2.7-6-6c0-3.3,2.7-6,6-6
			c3.3,0,6,2.7,6,6C43.6,18.5,40.9,21.2,37.6,21.2z"/>
	</g>
</g>
</svg>
