<?xml version="1.0" encoding="utf-8"?>
<!-- Generator: Adobe Illustrator 16.0.0, SVG Export Plug-In . SVG Version: 6.00 Build 0)  -->
<!DOCTYPE svg PUBLIC "-//W3C//DTD SVG 1.1//EN" "http://www.w3.org/Graphics/SVG/1.1/DTD/svg11.dtd">
<svg version="1.1" id="Layer_1" xmlns="http://www.w3.org/2000/svg" xmlns:xlink="http://www.w3.org/1999/xlink" x="0px" y="0px"
	 width="42px" height="42px" viewBox="0 0 42 42" enable-background="new 0 0 42 42" xml:space="preserve">
<g>
	<g>
		<path fill="#F48E30" d="M21,18.94c-2.238,0-4.029,1.791-4.029,4.029c0,2.239,1.791,4.029,4.029,4.029s4.029-1.79,4.029-4.029
			C25.029,20.731,23.238,18.94,21,18.94z M19.567,24.313c-0.537,0-0.896-0.627-0.896-1.344c0-0.806,0.448-1.343,0.896-1.343
			c0.537,0,0.896,0.627,0.896,1.343C20.463,23.687,20.104,24.313,19.567,24.313z M22.164,24.313c-0.537,0-0.896-0.627-0.896-1.344
			c0-0.806,0.448-1.343,0.896-1.343c0.537,0,0.896,0.627,0.896,1.343C23.148,23.687,22.701,24.313,22.164,24.313z"/>
		<path fill="#F48E30" d="M33.805,11.777c0-0.806-0.09-2.776-0.985-3.402c-0.089-0.089-0.179-0.089-0.358-0.089
			c-1.164,0-4.477,1.88-5.909,3.312l-1.791-0.895c-0.269-0.09-0.537,0-0.627,0.269l-0.447,0.896
			c-1.702-0.358-3.492-0.448-5.283-0.09l-0.448-0.806c-0.089-0.269-0.448-0.358-0.716-0.269l-1.791,0.895
			c-1.343-1.433-4.656-3.312-5.82-3.312c-0.179,0-0.358,0-0.448,0.089c-0.895,0.626-0.985,2.597-0.985,3.402
			c0,2.06,0.716,4.747,2.06,5.821c-0.896,1.521-1.343,3.312-1.343,5.015c0,2.507,0.896,4.835,2.507,6.805v4.298h2.597l0.627-1.611
			c1.88,1.074,4.029,1.611,6.178,1.611c2.239,0,4.388-0.537,6.268-1.701l0.627,1.701h2.597v-4.477
			c1.522-1.971,2.418-4.209,2.418-6.626c0-1.702-0.447-3.313-1.164-4.836c0,0,0.089,0,0.089-0.089
			C33.088,16.791,33.805,14.016,33.805,11.777z M21,28.432c-3.044,0-5.462-2.507-5.462-5.462c0-3.044,2.507-5.462,5.462-5.462
			s5.462,2.508,5.462,5.462C26.462,25.925,24.045,28.432,21,28.432z"/>
	</g>
</g>
</svg>
