<?xml version="1.0" encoding="utf-8"?>
<!-- Generator: Adobe Illustrator 21.1.0, SVG Export Plug-In . SVG Version: 6.00 Build 0)  -->
<svg version="1.1" id="Capa_1" xmlns="http://www.w3.org/2000/svg" xmlns:xlink="http://www.w3.org/1999/xlink" x="0px" y="0px"
	 viewBox="0 0 19.8 20.5" style="enable-background:new 0 0 19.8 20.5;" xml:space="preserve">
<style type="text/css">
	.st0{fill:#FFFFFF;}
	.st1{fill:url(#SVGID_1_);}
	.st2{fill:url(#SVGID_2_);}
	.st3{fill:#F48E30;}
	.st4{fill:#5D717D;}
	.st5{fill:#57C6D2;}
	.st6{fill:#172F58;}
	.st7{fill:#183058;}
	.st8{fill-rule:evenodd;clip-rule:evenodd;fill:#F48E30;}
	.st9{fill:none;stroke:#5D717D;stroke-miterlimit:10;}
	.st10{fill:#414142;}
	.st11{fill:#F16A24;}
	.st12{opacity:0.5;}
	.st13{clip-path:url(#SVGID_4_);fill:#FFFFFF;}
	.st14{clip-path:url(#SVGID_6_);fill:#FFFFFF;}
	.st15{clip-path:url(#SVGID_8_);fill:#FFFFFF;}
	.st16{clip-path:url(#SVGID_10_);fill:#FFFFFF;}
	.st17{clip-path:url(#SVGID_12_);fill-rule:evenodd;clip-rule:evenodd;fill:#FFFFFF;}
	.st18{clip-path:url(#SVGID_14_);}
	.st19{opacity:0.9;}
	.st20{fill:url(#SVGID_15_);}
</style>
<path class="st3" d="M19.3,17.6l-5.1-5.2c2-3.1,1.7-7.3-1-10.1C11.8,0.8,9.9,0,7.8,0c-2.1,0-4,0.8-5.5,2.3c-3,3.1-3,8.1,0,11.2
	c1.5,1.5,3.4,2.3,5.5,2.3c1.5,0,2.9-0.4,4.1-1.2L17,20c0.3,0.3,0.7,0.5,1.2,0.5c0.4,0,0.8-0.2,1.2-0.5C20,19.3,20,18.3,19.3,17.6z
	 M4.6,11.2c-1.8-1.8-1.8-4.7,0-6.5c0.8-0.9,2-1.3,3.2-1.3c1.2,0,2.3,0.5,3.2,1.3c1.8,1.8,1.8,4.7,0,6.5c-0.9,0.9-2,1.3-3.2,1.3
	C6.6,12.5,5.4,12.1,4.6,11.2z"/>
</svg>
