<?xml version="1.0" encoding="utf-8"?>
<!-- Generator: Adobe Illustrator 21.1.0, SVG Export Plug-In . SVG Version: 6.00 Build 0)  -->
<svg version="1.1" id="Capa_1" xmlns="http://www.w3.org/2000/svg" xmlns:xlink="http://www.w3.org/1999/xlink" x="0px" y="0px"
	 viewBox="0 0 28.6 28.4" style="enable-background:new 0 0 28.6 28.4;" xml:space="preserve">
<style type="text/css">
	.st0{fill:#FFFFFF;}
	.st1{fill:url(#SVGID_1_);}
	.st2{fill:url(#SVGID_2_);}
	.st3{fill:#F48E30;}
	.st4{fill:#5D717D;}
	.st5{fill:#57C6D2;}
	.st6{fill:#172F58;}
	.st7{fill:#183058;}
	.st8{fill-rule:evenodd;clip-rule:evenodd;fill:#F48E30;}
	.st9{fill:none;stroke:#5D717D;stroke-miterlimit:10;}
	.st10{fill:#414142;}
	.st11{fill:#F16A24;}
	.st12{opacity:0.5;}
	.st13{clip-path:url(#SVGID_4_);fill:#FFFFFF;}
	.st14{clip-path:url(#SVGID_6_);fill:#FFFFFF;}
	.st15{clip-path:url(#SVGID_8_);fill:#FFFFFF;}
	.st16{clip-path:url(#SVGID_10_);fill:#FFFFFF;}
	.st17{clip-path:url(#SVGID_12_);fill-rule:evenodd;clip-rule:evenodd;fill:#FFFFFF;}
	.st18{clip-path:url(#SVGID_14_);}
	.st19{opacity:0.9;}
	.st20{fill:url(#SVGID_15_);}
</style>
<g>
	<g>
		<path class="st3" d="M14.3,11.9c-2.5,0-4.5,2-4.5,4.5c0,2.5,2,4.5,4.5,4.5c2.5,0,4.5-2,4.5-4.5C18.8,13.9,16.8,11.9,14.3,11.9z
			 M12.7,17.9c-0.6,0-1-0.7-1-1.5c0-0.9,0.5-1.5,1-1.5c0.6,0,1,0.7,1,1.5C13.7,17.2,13.3,17.9,12.7,17.9z M15.6,17.9
			c-0.6,0-1-0.7-1-1.5c0-0.9,0.5-1.5,1-1.5c0.6,0,1,0.7,1,1.5C16.7,17.2,16.2,17.9,15.6,17.9z"/>
		<path class="st3" d="M28.6,3.9c0-0.9-0.1-3.1-1.1-3.8C27.4,0,27.3,0,27.1,0c-1.3,0-5,2.1-6.6,3.7l-2-1c-0.3-0.1-0.6,0-0.7,0.3
			l-0.5,1c-1.9-0.4-3.9-0.5-5.9-0.1L10.9,3c-0.1-0.3-0.5-0.4-0.8-0.3l-2,1C6.6,2.1,2.9,0,1.6,0C1.4,0,1.2,0,1.1,0.1
			C0.1,0.8,0,3,0,3.9c0,2.3,0.8,5.3,2.3,6.5c-1,1.7-1.5,3.7-1.5,5.6c0,2.8,1,5.4,2.8,7.6v4.8h2.9l0.7-1.8c2.1,1.2,4.5,1.8,6.9,1.8
			c2.5,0,4.9-0.6,7-1.9l0.7,1.9h2.9v-5c1.7-2.2,2.7-4.7,2.7-7.4c0-1.9-0.5-3.7-1.3-5.4c0,0,0.1,0,0.1-0.1
			C27.8,9.5,28.6,6.4,28.6,3.9z M14.3,22.5c-3.4,0-6.1-2.8-6.1-6.1c0-3.4,2.8-6.1,6.1-6.1s6.1,2.8,6.1,6.1
			C20.4,19.7,17.7,22.5,14.3,22.5z"/>
	</g>
</g>
</svg>
