<?xml version="1.0" encoding="utf-8"?>
<!-- Generator: Adobe Illustrator 21.1.0, SVG Export Plug-In . SVG Version: 6.00 Build 0)  -->
<svg version="1.1" id="Capa_1" xmlns="http://www.w3.org/2000/svg" xmlns:xlink="http://www.w3.org/1999/xlink" x="0px" y="0px"
	 viewBox="0 0 27.7 29.6" style="enable-background:new 0 0 27.7 29.6;" xml:space="preserve">
<style type="text/css">
	.st0{fill:#FFFFFF;}
	.st1{fill:url(#SVGID_1_);}
	.st2{fill:url(#SVGID_2_);}
	.st3{fill:#F48E30;}
	.st4{fill:#5D717D;}
	.st5{fill:#57C6D2;}
	.st6{fill:#172F58;}
	.st7{fill:#183058;}
	.st8{fill-rule:evenodd;clip-rule:evenodd;fill:#F48E30;}
	.st9{fill:none;stroke:#5D717D;stroke-miterlimit:10;}
	.st10{fill:#414142;}
	.st11{fill:#F16A24;}
	.st12{opacity:0.5;}
	.st13{clip-path:url(#SVGID_4_);fill:#FFFFFF;}
	.st14{clip-path:url(#SVGID_6_);fill:#FFFFFF;}
	.st15{clip-path:url(#SVGID_8_);fill:#FFFFFF;}
	.st16{clip-path:url(#SVGID_10_);fill:#FFFFFF;}
	.st17{clip-path:url(#SVGID_12_);fill-rule:evenodd;clip-rule:evenodd;fill:#FFFFFF;}
	.st18{clip-path:url(#SVGID_14_);}
	.st19{opacity:0.9;}
	.st20{fill:url(#SVGID_15_);}
</style>
<g>
	<path class="st3" d="M13.8,29.6C6.2,29.6,0,23.4,0,15.8c0-3.9,1.7-7.7,4.6-10.3c0.8-0.7,2.1-0.7,2.8,0.2c0.7,0.8,0.7,2.1-0.2,2.8
		C5.2,10.3,4,13,4,15.8c0,5.5,4.4,9.9,9.9,9.9c5.4,0,9.9-4.4,9.9-9.9c0-2.8-1.2-5.5-3.3-7.4c-0.8-0.7-0.9-2-0.2-2.8
		c0.7-0.8,2-0.9,2.8-0.2c2.9,2.6,4.6,6.4,4.6,10.3C27.7,23.4,21.5,29.6,13.8,29.6z M15.8,11.9V2c0-1.1-0.9-2-2-2s-2,0.9-2,2v9.9
		c0,1.1,0.9,2,2,2S15.8,13,15.8,11.9z"/>
</g>
</svg>
