<?xml version="1.0" encoding="utf-8"?>
<!-- Generator: Adobe Illustrator 21.1.0, SVG Export Plug-In . SVG Version: 6.00 Build 0)  -->
<svg version="1.1" id="Capa_1" xmlns="http://www.w3.org/2000/svg" xmlns:xlink="http://www.w3.org/1999/xlink" x="0px" y="0px"
	 viewBox="0 0 45.6 74.6" style="enable-background:new 0 0 45.6 74.6;" xml:space="preserve">
<style type="text/css">
	.st0{fill:#FFFFFF;}
	.st1{fill:url(#SVGID_1_);}
	.st2{fill:url(#SVGID_2_);}
	.st3{fill:#F48E30;}
	.st4{fill:#5D717D;}
	.st5{fill:#57C6D2;}
	.st6{fill:#172F58;}
	.st7{fill:#183058;}
	.st8{fill-rule:evenodd;clip-rule:evenodd;fill:#F48E30;}
	.st9{fill:none;stroke:#5D717D;stroke-miterlimit:10;}
	.st10{fill:#414142;}
	.st11{fill:#F16A24;}
	.st12{opacity:0.5;}
	.st13{clip-path:url(#SVGID_4_);fill:#FFFFFF;}
	.st14{clip-path:url(#SVGID_6_);fill:#FFFFFF;}
	.st15{clip-path:url(#SVGID_8_);fill:#FFFFFF;}
	.st16{clip-path:url(#SVGID_10_);fill:#FFFFFF;}
	.st17{clip-path:url(#SVGID_12_);fill-rule:evenodd;clip-rule:evenodd;fill:#FFFFFF;}
	.st18{clip-path:url(#SVGID_14_);}
	.st19{opacity:0.9;}
	.st20{fill:url(#SVGID_15_);}
</style>
<path class="st3" d="M22.8,0C10.2,0,0,10.2,0,22.8c0,5.2,1.7,10,4.6,13.7c0,0,8.7,14.3,10.1,17.6c5.1,12.2,5.8,18.2,5.8,18.2
	c0,1.2,1,2.3,2.3,2.3h0.2c1.2,0,2.3-1.1,2.3-2.3c0,0,1.7-7.9,5.8-17.6c1.4-3.3,10.3-18.5,10.3-18.5c2.7-3.8,4.3-8.3,4.3-13.3
	C45.6,10.2,35.4,0,22.8,0z M22.8,31.8c-5,0-9-4-9-9s4-9,9-9c5,0,9,4,9,9S27.8,31.8,22.8,31.8z"/>
</svg>
