<?xml version="1.0" encoding="utf-8"?>
<!-- Generator: Adobe Illustrator 21.1.0, SVG Export Plug-In . SVG Version: 6.00 Build 0)  -->
<svg version="1.1" id="Capa_1" xmlns="http://www.w3.org/2000/svg" xmlns:xlink="http://www.w3.org/1999/xlink" x="0px" y="0px"
	 viewBox="0 0 27.6 27.6" style="enable-background:new 0 0 27.6 27.6;" xml:space="preserve">
<style type="text/css">
	.st0{fill:#FFFFFF;}
	.st1{fill:url(#SVGID_1_);}
	.st2{fill:url(#SVGID_2_);}
	.st3{fill:#F48E30;}
	.st4{fill:#5D717D;}
	.st5{fill:#57C6D2;}
	.st6{fill:#172F58;}
	.st7{fill:#183058;}
	.st8{fill-rule:evenodd;clip-rule:evenodd;fill:#F48E30;}
	.st9{fill:none;stroke:#5D717D;stroke-miterlimit:10;}
	.st10{fill:#414142;}
	.st11{fill:#F16A24;}
	.st12{opacity:0.5;}
	.st13{clip-path:url(#SVGID_4_);fill:#FFFFFF;}
	.st14{clip-path:url(#SVGID_6_);fill:#FFFFFF;}
	.st15{clip-path:url(#SVGID_8_);fill:#FFFFFF;}
	.st16{clip-path:url(#SVGID_10_);fill:#FFFFFF;}
	.st17{clip-path:url(#SVGID_12_);fill-rule:evenodd;clip-rule:evenodd;fill:#FFFFFF;}
	.st18{clip-path:url(#SVGID_14_);}
	.st19{opacity:0.9;}
	.st20{fill:url(#SVGID_15_);}
</style>
<g>
	<path class="st3" d="M10.6,17c2.5,2.5,5.3,4.8,6.5,3.7c1.6-1.6,2.6-3,6.2-0.2c3.6,2.9,0.8,4.8-0.7,6.3C20.7,28.7,14,27,7.3,20.4
		C0.6,13.7-1.1,7,0.7,5.2C2.2,3.6,4.1,0.9,7,4.4C9.9,8,8.5,9,6.9,10.6C5.7,11.7,8.1,14.6,10.6,17z M14.2,5.3c0,0-0.7-0.1-1.3,0.4
		c-0.5,0.5-0.6,1.5,0,2c0.3,0.3,0.8,0.4,0.8,0.4c0.9,0.2,2.3,0.5,3.8,1.9c1.5,1.5,1.8,2.9,1.9,3.8c0,0,0.1,0.5,0.4,0.8
		c0.6,0.6,1.5,0.5,2,0c0.5-0.5,0.4-1.3,0.4-1.3c-0.3-1.9-1.2-3.8-2.8-5.4C18,6.5,16.1,5.6,14.2,5.3z M21.2,6.4
		c2.7,2.7,3.9,5.8,3.5,8.3c0,0-0.1,0.8,0.4,1.3c0.6,0.6,1.5,0.5,2,0c0.3-0.3,0.4-0.9,0.4-0.9c0.3-2.2-0.1-6.5-4.3-10.7
		C19,0.2,14.7-0.2,12.5,0.1c0,0-0.6,0.1-0.9,0.4c-0.5,0.5-0.6,1.5,0,2c0.5,0.5,1.3,0.4,1.3,0.4C15.4,2.6,18.5,3.7,21.2,6.4z"/>
</g>
</svg>
