<?xml version="1.0" encoding="utf-8"?>
<!-- Generator: Adobe Illustrator 21.1.0, SVG Export Plug-In . SVG Version: 6.00 Build 0)  -->
<svg version="1.1" id="Capa_1" xmlns="http://www.w3.org/2000/svg" xmlns:xlink="http://www.w3.org/1999/xlink" x="0px" y="0px"
	 viewBox="0 0 30 30" style="enable-background:new 0 0 30 30;" xml:space="preserve">
<style type="text/css">
	.st0{fill:#FFFFFF;}
	.st1{fill:url(#SVGID_1_);}
	.st2{fill:url(#SVGID_2_);}
	.st3{fill:#F48E30;}
	.st4{fill:#5D717D;}
	.st5{fill:#57C6D2;}
	.st6{fill:#172F58;}
	.st7{fill:#183058;}
	.st8{fill-rule:evenodd;clip-rule:evenodd;fill:#F48E30;}
	.st9{fill:none;stroke:#5D717D;stroke-miterlimit:10;}
	.st10{fill:#414142;}
	.st11{fill:#F16A24;}
	.st12{opacity:0.5;}
	.st13{clip-path:url(#SVGID_4_);fill:#FFFFFF;}
	.st14{clip-path:url(#SVGID_6_);fill:#FFFFFF;}
	.st15{clip-path:url(#SVGID_8_);fill:#FFFFFF;}
	.st16{clip-path:url(#SVGID_10_);fill:#FFFFFF;}
	.st17{clip-path:url(#SVGID_12_);fill-rule:evenodd;clip-rule:evenodd;fill:#FFFFFF;}
	.st18{clip-path:url(#SVGID_14_);}
	.st19{opacity:0.9;}
	.st20{fill:url(#SVGID_15_);}
</style>
<g>
	<path class="st3" d="M0,26.9c0-7.2,0-14.3,0-21.5c0,0,0-0.1,0.1-0.1c0.3-1.5,1.3-2.6,2.8-2.9C3.4,2.3,4,2.3,4.5,2.3
		c0.4,0,0.8,0,1.2,0c0,0.1,0,0.2,0,0.4c0,0.6,0,1.2,0,1.8c0,1.1,0.6,2,1.6,2.3c1.5,0.5,3-0.5,3.1-2.1c0-0.7,0-1.3,0-2
		c0-0.1,0-0.2,0-0.3c3.1,0,6.1,0,9.2,0c0,0.1,0,0.2,0,0.3c0,0.7,0,1.4,0,2.1c0,1,0.9,1.9,2,2.1c1.1,0.1,2.2-0.5,2.5-1.5
		c0.1-0.3,0.1-0.7,0.2-1c0-0.7,0-1.3,0-2c0.9,0,1.7,0,2.5,0c1.6,0.1,2.8,1.2,3.2,2.7c0,0.1,0.1,0.2,0.1,0.4c0,7.2,0,14.3,0,21.5
		c0,0.1,0,0.1-0.1,0.2c-0.3,1.3-1,2.3-2.3,2.7c-0.2,0.1-0.5,0.1-0.7,0.2C19,30,11,30,3.1,30c-0.1,0-0.1,0-0.2-0.1
		c-1.4-0.2-2.3-1-2.8-2.3C0.1,27.4,0.1,27.1,0,26.9z M2.3,10.4c0,0.1,0,0.3,0,0.4c0,5.2,0,10.3,0,15.5c0,1,0.4,1.4,1.4,1.4
		c7.5,0,15,0,22.6,0c1,0,1.4-0.4,1.4-1.4c0-5.2,0-10.3,0-15.5c0-0.4,0-0.4-0.4-0.4c-8.2,0-16.4,0-24.6,0C2.6,10.4,2.5,10.4,2.3,10.4
		z"/>
	<path class="st8" d="M8.3,0c0.1,0,0.2,0.1,0.2,0.1C8.9,0.3,9.2,0.6,9.2,1c0,1.2,0,2.5,0,3.7c0,0.6-0.5,1-1,1C7.6,5.8,7,5.4,7,4.9
		c-0.1-1.3,0-2.7,0-4C7,0.4,7.4,0.2,7.9,0C8,0,8.2,0,8.3,0z"/>
	<path class="st8" d="M22.1,0c0.7,0.3,1,0.8,0.9,1.5c0,1,0,2,0,3c0,0.9-0.8,1.4-1.5,1.1c-0.4-0.2-0.7-0.5-0.7-1c0-1.2,0-2.5,0-3.7
		c0-0.4,0.3-0.7,0.7-0.9c0.1,0,0.2-0.1,0.2-0.1C21.8,0,22,0,22.1,0z"/>
</g>
</svg>
