<?xml version="1.0" encoding="utf-8"?>
<!-- Generator: Adobe Illustrator 21.1.0, SVG Export Plug-In . SVG Version: 6.00 Build 0)  -->
<svg version="1.1" id="Capa_1" xmlns="http://www.w3.org/2000/svg" xmlns:xlink="http://www.w3.org/1999/xlink" x="0px" y="0px"
	 viewBox="0 0 66.2 100.3" style="enable-background:new 0 0 66.2 100.3;" xml:space="preserve">
<style type="text/css">
	.st0{fill:#FFFFFF;}
	.st1{fill:url(#SVGID_1_);}
	.st2{fill:url(#SVGID_2_);}
	.st3{fill:#F48E30;}
	.st4{fill:#5D717D;}
	.st5{fill:#57C6D2;}
	.st6{fill:#172F58;}
	.st7{fill:#183058;}
	.st8{fill-rule:evenodd;clip-rule:evenodd;fill:#F48E30;}
	.st9{fill:none;stroke:#5D717D;stroke-miterlimit:10;}
	.st10{fill:#414142;}
	.st11{fill:#F16A24;}
	.st12{opacity:0.5;}
	.st13{clip-path:url(#SVGID_4_);fill:#FFFFFF;}
	.st14{clip-path:url(#SVGID_6_);fill:#FFFFFF;}
	.st15{clip-path:url(#SVGID_8_);fill:#FFFFFF;}
	.st16{clip-path:url(#SVGID_10_);fill:#FFFFFF;}
	.st17{clip-path:url(#SVGID_12_);fill-rule:evenodd;clip-rule:evenodd;fill:#FFFFFF;}
	.st18{clip-path:url(#SVGID_14_);}
	.st19{opacity:0.9;}
	.st20{fill:url(#SVGID_15_);}
</style>
<g>
	<g>
		<path class="st3" d="M0,27.7c0-4.2,1.3-8.4,4-12.8c2.7-4.3,6.6-7.9,11.8-10.7C21,1.4,27,0,33.9,0c6.4,0,12.1,1.2,17,3.5
			c4.9,2.4,8.7,5.6,11.4,9.6c2.7,4.1,4,8.5,4,13.3c0,3.8-0.8,7-2.3,9.9c-1.5,2.8-3.3,5.3-5.4,7.3c-2.1,2.1-5.9,5.5-11.3,10.4
			c-1.5,1.4-2.7,2.6-3.6,3.6c-0.9,1-1.6,2-2,2.9c-0.4,0.9-0.8,1.7-1,2.6c-0.2,0.9-0.6,2.4-1.1,4.5c-0.8,4.6-3.5,6.9-7.9,6.9
			c-2.3,0-4.2-0.8-5.8-2.3c-1.6-1.5-2.3-3.7-2.3-6.7c0-3.7,0.6-6.9,1.7-9.6c1.1-2.7,2.7-5.1,4.6-7.2c1.9-2.1,4.5-4.5,7.7-7.3
			c2.8-2.5,4.9-4.3,6.1-5.6c1.3-1.3,2.3-2.7,3.2-4.2c0.9-1.5,1.3-3.2,1.3-5c0-3.5-1.3-6.5-3.9-8.9c-2.6-2.4-6-3.6-10.2-3.6
			c-4.9,0-8.4,1.2-10.7,3.7c-2.3,2.4-4.2,6.1-5.8,10.8c-1.5,5-4.3,7.5-8.5,7.5c-2.5,0-4.6-0.9-6.3-2.6C0.8,31.6,0,29.7,0,27.7z
			 M32.3,100.3c-2.7,0-5-0.9-7.1-2.6c-2-1.7-3-4.2-3-7.3c0-2.8,1-5.1,2.9-7c1.9-1.9,4.3-2.8,7.2-2.8c2.8,0,5.1,0.9,7,2.8
			c1.9,1.9,2.8,4.2,2.8,7c0,3.1-1,5.5-3,7.3C37.2,99.4,34.9,100.3,32.3,100.3z"/>
	</g>
</g>
</svg>
