<?xml version="1.0" encoding="utf-8"?>
<!-- Generator: Adobe Illustrator 21.1.0, SVG Export Plug-In . SVG Version: 6.00 Build 0)  -->
<svg version="1.1" id="Capa_1" xmlns="http://www.w3.org/2000/svg" xmlns:xlink="http://www.w3.org/1999/xlink" x="0px" y="0px"
	 viewBox="0 0 53.3 75.2" style="enable-background:new 0 0 53.3 75.2;" xml:space="preserve">
<style type="text/css">
	.st0{fill:#FFFFFF;}
	.st1{fill:url(#SVGID_1_);}
	.st2{fill:url(#SVGID_2_);}
	.st3{fill:#F48E30;}
	.st4{fill:#5D717D;}
	.st5{fill:#57C6D2;}
	.st6{fill:#172F58;}
	.st7{fill:#183058;}
	.st8{fill-rule:evenodd;clip-rule:evenodd;fill:#F48E30;}
	.st9{fill:none;stroke:#5D717D;stroke-miterlimit:10;}
	.st10{fill:#414142;}
	.st11{fill:#F16A24;}
	.st12{opacity:0.5;}
	.st13{clip-path:url(#SVGID_4_);fill:#FFFFFF;}
	.st14{clip-path:url(#SVGID_6_);fill:#FFFFFF;}
	.st15{clip-path:url(#SVGID_8_);fill:#FFFFFF;}
	.st16{clip-path:url(#SVGID_10_);fill:#FFFFFF;}
	.st17{clip-path:url(#SVGID_12_);fill-rule:evenodd;clip-rule:evenodd;fill:#FFFFFF;}
	.st18{clip-path:url(#SVGID_14_);}
	.st19{opacity:0.9;}
	.st20{fill:url(#SVGID_15_);}
</style>
<g class="st19">
	<path class="st3" d="M26.6,0C11.7,0,0.1,12.1,0.1,27.1c0,18.7,24.5,47.1,24.5,47.1c1.2,1.3,3.1,1.3,4.2,0c0,0,24.5-28.4,24.5-47.1
		C53.2,12.1,41.6,0,26.6,0z M26.6,43.5c-9,0-16.3-7.3-16.3-16.3s7.3-16.3,16.3-16.3c9,0,16.3,7.3,16.3,16.3S35.7,43.5,26.6,43.5z"/>
	<path class="st11" d="M26.6,2.1c-14,0-24.9,11.4-24.9,25.4c0,17.6,22.8,44,22.8,44c1.1,1.3,3,1.3,4.1,0c0,0,22.8-26.5,22.8-44
		C51.6,13.4,40.7,2.1,26.6,2.1z M26.6,42.8c-8.4,0-15.3-6.8-15.3-15.3c0-8.4,6.8-15.3,15.3-15.3c8.4,0,15.3,6.8,15.3,15.3
		C41.9,36,35.1,42.8,26.6,42.8z"/>
	<path class="st3" d="M26.6,10.4c8.3,0,15.1,6.2,16.1,14.3c3,0.5,6.5,1.2,10.5,1.9C53.3,11.9,41.4,0,26.6,0S0,11.9,0,26.6
		c4.1-0.7,7.5-1.4,10.5-1.9C11.5,16.7,18.3,10.4,26.6,10.4z"/>
	<path class="st3" d="M26.6,10.1c-9.7,0-17.5,7.8-17.5,17.5C9.2,37.2,17,45,26.6,45c9.7,0,17.5-7.8,17.5-17.5
		C44.1,17.9,36.3,10.1,26.6,10.1z M26.6,42.8c-8.4,0-15.3-6.8-15.3-15.3c0-8.4,6.8-15.3,15.3-15.3c8.4,0,15.3,6.8,15.3,15.3
		C41.9,36,35.1,42.8,26.6,42.8z"/>
</g>
</svg>
