<?xml version="1.0" encoding="utf-8"?>
<!-- Generator: Adobe Illustrator 21.1.0, SVG Export Plug-In . SVG Version: 6.00 Build 0)  -->
<svg version="1.1" id="Capa_1" xmlns="http://www.w3.org/2000/svg" xmlns:xlink="http://www.w3.org/1999/xlink" x="0px" y="0px"
	 viewBox="0 0 42.5 42.5" style="enable-background:new 0 0 42.5 42.5;" xml:space="preserve">
<style type="text/css">
	.st0{fill:#FFFFFF;}
	.st1{fill:url(#SVGID_1_);}
	.st2{fill:url(#SVGID_2_);}
	.st3{fill:#F48E30;}
	.st4{fill:#5D717D;}
	.st5{fill:#57C6D2;}
	.st6{fill:#172F58;}
	.st7{fill:#183058;}
	.st8{fill-rule:evenodd;clip-rule:evenodd;fill:#F48E30;}
	.st9{fill:none;stroke:#5D717D;stroke-miterlimit:10;}
	.st10{fill:#414142;}
	.st11{fill:#F16A24;}
	.st12{opacity:0.5;}
	.st13{clip-path:url(#SVGID_4_);fill:#FFFFFF;}
	.st14{clip-path:url(#SVGID_6_);fill:#FFFFFF;}
	.st15{clip-path:url(#SVGID_8_);fill:#FFFFFF;}
	.st16{clip-path:url(#SVGID_10_);fill:#FFFFFF;}
	.st17{clip-path:url(#SVGID_12_);fill-rule:evenodd;clip-rule:evenodd;fill:#FFFFFF;}
	.st18{clip-path:url(#SVGID_14_);}
	.st19{opacity:0.9;}
	.st20{fill:url(#SVGID_15_);}
	.st21{clip-path:url(#SVGID_19_);fill:url(#SVGID_20_);}
</style>
<g>
	<path class="st3" d="M18,24.5c2.5,2.5,5.3,4.8,6.5,3.7c1.6-1.6,2.6-3,6.2-0.2c3.6,2.9,0.8,4.8-0.7,6.3c-1.8,1.8-8.6,0.1-15.2-6.5
		c-6.7-6.6-8.4-13.4-6.6-15.2c1.6-1.6,3.5-4.3,6.3-0.8c2.9,3.6,1.5,4.6-0.1,6.2C13.2,19.2,15.6,22.1,18,24.5z M21.6,12.8
		c0,0-0.7-0.1-1.3,0.4c-0.5,0.5-0.6,1.5,0,2c0.3,0.3,0.8,0.4,0.8,0.4c0.9,0.2,2.3,0.5,3.8,1.9c1.5,1.5,1.8,2.9,1.9,3.8
		c0,0,0.1,0.5,0.4,0.8c0.6,0.6,1.5,0.5,2,0c0.5-0.5,0.4-1.3,0.4-1.3c-0.3-1.9-1.2-3.8-2.8-5.4C25.5,14,23.5,13.1,21.6,12.8z
		 M28.6,13.9c2.7,2.7,3.9,5.8,3.5,8.3c0,0-0.1,0.8,0.4,1.3c0.6,0.6,1.5,0.5,2,0c0.3-0.3,0.4-0.9,0.4-0.9c0.3-2.2-0.1-6.5-4.3-10.7
		C26.5,7.6,22.1,7.2,20,7.6c0,0-0.6,0.1-0.9,0.4c-0.5,0.5-0.6,1.5,0,2c0.5,0.5,1.3,0.4,1.3,0.4C22.9,10,25.9,11.2,28.6,13.9z"/>
</g>
</svg>
