<?xml version="1.0" encoding="utf-8"?>
<!-- Generator: Adobe Illustrator 21.1.0, SVG Export Plug-In . SVG Version: 6.00 Build 0)  -->
<svg version="1.1" id="Capa_1" xmlns="http://www.w3.org/2000/svg" xmlns:xlink="http://www.w3.org/1999/xlink" x="0px" y="0px"
	 viewBox="0 0 42.5 42.5" style="enable-background:new 0 0 42.5 42.5;" xml:space="preserve">
<style type="text/css">
	.st0{fill:#FFFFFF;}
	.st1{fill:url(#SVGID_1_);}
	.st2{fill:url(#SVGID_2_);}
	.st3{fill:#F48E30;}
	.st4{fill:#5D717D;}
	.st5{fill:#57C6D2;}
	.st6{fill:#172F58;}
	.st7{fill:#183058;}
	.st8{fill-rule:evenodd;clip-rule:evenodd;fill:#F48E30;}
	.st9{fill:none;stroke:#5D717D;stroke-miterlimit:10;}
	.st10{fill:#414142;}
	.st11{fill:#F16A24;}
	.st12{opacity:0.5;}
	.st13{clip-path:url(#SVGID_4_);fill:#FFFFFF;}
	.st14{clip-path:url(#SVGID_6_);fill:#FFFFFF;}
	.st15{clip-path:url(#SVGID_8_);fill:#FFFFFF;}
	.st16{clip-path:url(#SVGID_10_);fill:#FFFFFF;}
	.st17{clip-path:url(#SVGID_12_);fill-rule:evenodd;clip-rule:evenodd;fill:#FFFFFF;}
	.st18{clip-path:url(#SVGID_14_);}
	.st19{opacity:0.9;}
	.st20{fill:url(#SVGID_15_);}
	.st21{clip-path:url(#SVGID_19_);fill:url(#SVGID_20_);}
</style>
<g>
	<g>
		<path class="st3" d="M15.1,23.3c0.8,0,1.6-0.1,2.4-0.2V15c-0.8-0.1-1.5-0.2-2.4-0.2c-4.7,0-8.5,1.7-8.5,3.8v0.8
			C6.7,21.6,10.5,23.3,15.1,23.3z"/>
		<path class="st3" d="M15.1,27.6c0.8,0,1.6-0.1,2.4-0.2v-2.4c-0.8,0.1-1.5,0.2-2.4,0.2c-4.1,0-7.5-1.3-8.3-3.1
			c-0.1,0.3-0.2,0.5-0.2,0.8v0.8C6.7,25.9,10.5,27.6,15.1,27.6z"/>
		<path class="st3" d="M17.5,29.6v-0.2c-0.8,0.1-1.5,0.2-2.4,0.2c-4.1,0-7.5-1.3-8.3-3.1c-0.1,0.3-0.2,0.5-0.2,0.8v0.8
			c0,2.1,3.8,3.8,8.5,3.8c0.9,0,1.8-0.1,2.7-0.2c-0.2-0.4-0.3-0.9-0.3-1.3V29.6z"/>
		<path class="st3" d="M27.4,8.3c-4.7,0-8.5,1.7-8.5,3.8V13c0,2.1,3.8,3.8,8.5,3.8c4.7,0,8.5-1.7,8.5-3.8v-0.8
			C35.9,10,32.1,8.3,27.4,8.3z"/>
		<path class="st3" d="M27.4,18.7c-4.1,0-7.5-1.3-8.3-3.1c-0.1,0.3-0.2,0.5-0.2,0.8v0.8c0,2.1,3.8,3.8,8.5,3.8
			c4.7,0,8.5-1.7,8.5-3.8v-0.8c0-0.3-0.1-0.5-0.2-0.8C34.9,17.4,31.5,18.7,27.4,18.7z"/>
		<path class="st3" d="M27.4,23c-4.1,0-7.5-1.3-8.3-3.1c-0.1,0.3-0.2,0.5-0.2,0.8v0.8c0,2.1,3.8,3.8,8.5,3.8c4.7,0,8.5-1.7,8.5-3.8
			v-0.8c0-0.3-0.1-0.5-0.2-0.8C34.9,21.7,31.5,23,27.4,23z"/>
		<path class="st3" d="M27.4,27.5c-4.1,0-7.5-1.3-8.3-3.1c-0.1,0.3-0.2,0.5-0.2,0.8v0.8c0,2.1,3.8,3.8,8.5,3.8
			c4.7,0,8.5-1.7,8.5-3.8v-0.8c0-0.3-0.1-0.5-0.2-0.8C34.9,26.2,31.5,27.5,27.4,27.5z"/>
		<path class="st3" d="M27.4,31.8c-4.1,0-7.5-1.3-8.3-3.1c-0.1,0.3-0.2,0.5-0.2,0.8v0.8c0,2.1,3.8,3.8,8.5,3.8
			c4.7,0,8.5-1.7,8.5-3.8v-0.8c0-0.3-0.1-0.5-0.2-0.8C34.9,30.5,31.5,31.8,27.4,31.8z"/>
	</g>
</g>
</svg>
