<?xml version="1.0" encoding="utf-8"?>
<!-- Generator: Adobe Illustrator 21.1.0, SVG Export Plug-In . SVG Version: 6.00 Build 0)  -->
<svg version="1.1" id="Capa_1" xmlns="http://www.w3.org/2000/svg" xmlns:xlink="http://www.w3.org/1999/xlink" x="0px" y="0px"
	 viewBox="0 0 42.5 42.5" style="enable-background:new 0 0 42.5 42.5;" xml:space="preserve">
<style type="text/css">
	.st0{fill:#FFFFFF;}
	.st1{fill:url(#SVGID_1_);}
	.st2{fill:url(#SVGID_2_);}
	.st3{fill:#F48E30;}
	.st4{fill:#5D717D;}
	.st5{fill:#57C6D2;}
	.st6{fill:#172F58;}
	.st7{fill:#183058;}
	.st8{fill-rule:evenodd;clip-rule:evenodd;fill:#F48E30;}
	.st9{fill:none;stroke:#5D717D;stroke-miterlimit:10;}
	.st10{fill:#414142;}
	.st11{fill:#F16A24;}
	.st12{opacity:0.5;}
	.st13{clip-path:url(#SVGID_4_);fill:#FFFFFF;}
	.st14{clip-path:url(#SVGID_6_);fill:#FFFFFF;}
	.st15{clip-path:url(#SVGID_8_);fill:#FFFFFF;}
	.st16{clip-path:url(#SVGID_10_);fill:#FFFFFF;}
	.st17{clip-path:url(#SVGID_12_);fill-rule:evenodd;clip-rule:evenodd;fill:#FFFFFF;}
	.st18{clip-path:url(#SVGID_14_);}
	.st19{opacity:0.9;}
	.st20{fill:url(#SVGID_15_);}
	.st21{clip-path:url(#SVGID_19_);fill:url(#SVGID_20_);}
</style>
<g>
	<g>
		<g>
			<path class="st3" d="M33,7.4H21.4c-1.1,0-2,0.9-2,2V33c0,1.1,0.9,2,2,2H33c1.1,0,2-0.9,2-2V9.4C35,8.3,34.1,7.4,33,7.4L33,7.4z
				 M24.3,8.6H30c0.1,0,0.3,0.2,0.3,0.5c0,0.3-0.1,0.5-0.3,0.5h-5.7c-0.1,0-0.3-0.2-0.3-0.5C24,8.8,24.1,8.6,24.3,8.6L24.3,8.6z
				 M27.2,33c-0.7,0-1.3-0.6-1.3-1.3c0-0.7,0.6-1.3,1.3-1.3c0.7,0,1.3,0.6,1.3,1.3S27.9,33,27.2,33L27.2,33z M33.5,28.6H20.9V10.8
				h12.6C33.5,10.8,33.5,28.6,33.5,28.6z"/>
		</g>
	</g>
	<g>
		<g>
			<path class="st3" d="M29.1,19l-5.4-4.4c-0.1-0.1-0.2-0.1-0.4,0c-0.1,0.1-0.2,0.2-0.2,0.3v2.3c-2.6,0.1-4.4,1-5.4,2.8
				C17,21.4,17,23.2,17,24.4v0.3c0,0.2,0.1,0.3,0.3,0.3c0,0,0.1,0,0.1,0c0.1,0,0.2-0.1,0.3-0.2c1.8-3.2,3.3-3.4,5.5-3.4v2.3
				c0,0.1,0.1,0.3,0.2,0.3c0.1,0.1,0.3,0,0.4,0l5.4-4.5c0.1-0.1,0.1-0.2,0.1-0.3C29.2,19.2,29.2,19.1,29.1,19L29.1,19z"/>
		</g>
	</g>
	<g>
		<path class="st3" d="M13.2,23.9c-3.1,0-5.6,2.5-5.6,5.6s2.5,5.6,5.6,5.6s5.6-2.5,5.6-5.6S16.3,23.9,13.2,23.9z M12.6,30.6
			c-0.1,0.1-0.2,0.3-0.3,0.3c-0.1,0.1-0.3,0.2-0.5,0.2c-0.2,0-0.4,0.1-0.6,0.1h-2v-4.4h2.1c0.5,0,0.9,0.2,1.1,0.5
			c0.1,0.2,0.2,0.4,0.2,0.7c0,0.3-0.1,0.5-0.2,0.6c-0.1,0.1-0.2,0.2-0.3,0.2c0.2,0.1,0.4,0.2,0.5,0.4c0.1,0.2,0.2,0.4,0.2,0.6
			C12.8,30.1,12.7,30.4,12.6,30.6z M15.9,31c-0.2,0.2-0.6,0.3-1.1,0.3c-0.5,0-0.9-0.1-1.1-0.3s-0.4-0.5-0.4-0.8h0.9
			c0,0.1,0.1,0.3,0.1,0.3c0.1,0.1,0.3,0.2,0.6,0.2c0.2,0,0.3,0,0.4-0.1c0.1,0,0.1-0.1,0.1-0.2c0-0.1,0-0.2-0.1-0.2
			c-0.1,0-0.4-0.1-0.9-0.3c-0.4-0.1-0.6-0.2-0.8-0.3c-0.2-0.1-0.2-0.3-0.2-0.6c0-0.3,0.1-0.6,0.4-0.8c0.2-0.2,0.6-0.3,1-0.3
			c0.4,0,0.7,0.1,1,0.2c0.3,0.2,0.4,0.4,0.4,0.8h-0.8c0-0.1,0-0.2-0.1-0.3c-0.1-0.1-0.3-0.2-0.5-0.2c-0.2,0-0.3,0-0.4,0.1
			c-0.1,0.1-0.1,0.1-0.1,0.2c0,0.1,0,0.2,0.1,0.2c0.1,0,0.4,0.1,0.9,0.2c0.3,0.1,0.6,0.2,0.8,0.4c0.2,0.2,0.2,0.4,0.2,0.6
			C16.2,30.5,16.1,30.8,15.9,31z M16.8,31.2v-0.9h0.9v0.9H16.8z"/>
		<path class="st3" d="M11.6,29.3c-0.1,0-0.2-0.1-0.4-0.1H10v1.2h1.1c0.2,0,0.3,0,0.4-0.1c0.2-0.1,0.3-0.3,0.3-0.5
			C11.8,29.6,11.7,29.4,11.6,29.3z"/>
		<path class="st3" d="M11.6,28.4c0.1-0.1,0.2-0.2,0.2-0.4c0-0.2-0.1-0.3-0.2-0.4c-0.1,0-0.3-0.1-0.5-0.1h-1v1h1.1
			C11.3,28.5,11.4,28.5,11.6,28.4z"/>
	</g>
</g>
</svg>
